<svg width="258" height="51" viewBox="0 0 258 51" fill="none" xmlns="http://www.w3.org/2000/svg">
<rect width="258" height="51" rx="15" fill="#881C70"/>
<path d="M78.56 40.24C78.16 40.08 77.7467 39.9067 77.32 39.72C76.92 39.5333 76.5333 39.2533 76.16 38.88C75.8133 38.5333 75.5067 38.04 75.24 37.4C74.9733 36.6267 74.7867 35.8667 74.68 35.12C74.6 34.3733 74.5733 33.5067 74.6 32.52C74.6 31.1333 74.6933 29.9333 74.88 28.92C75.0933 27.88 75.4133 26.8267 75.84 25.76C75.8933 25.68 75.9867 25.4533 76.12 25.08C76.28 24.68 76.4533 24.2533 76.64 23.8C76.8533 23.3467 77.0133 23 77.12 22.76C77.3333 22.3067 77.6533 21.7067 78.08 20.96C78.5333 20.1867 79.0133 19.44 79.52 18.72C80.2933 17.5733 80.9333 16.6667 81.44 16C81.9467 15.3333 82.4267 14.7733 82.88 14.32C83.3333 13.8667 83.84 13.44 84.4 13.04C84.9867 12.6133 85.7333 12.0933 86.64 11.48C87.2267 11.0533 87.8667 10.8267 88.56 10.8C89.28 10.7733 89.9467 10.9333 90.56 11.28C91.1733 11.6 91.6267 12.08 91.92 12.72C92.2133 13.28 92.36 13.96 92.36 14.76C92.36 15.5333 92.24 16.36 92 17.24C91.76 18.0933 91.4267 18.9067 91 19.68C90.5733 20.4533 90.08 21.0933 89.52 21.6C89.1733 21.92 88.8533 22.04 88.56 21.96C88.2933 21.88 87.9733 21.6667 87.6 21.32C87.36 20.8667 87.2267 20.6 87.2 20.52C87.2 20.44 87.2533 20.3867 87.36 20.36C87.52 20.1733 87.7333 19.8533 88 19.4C88.2667 18.9467 88.5333 18.4667 88.8 17.96C89.0667 17.4267 89.2533 17 89.36 16.68C89.5733 15.56 89.72 14.7733 89.8 14.32C89.88 13.84 89.8 13.48 89.56 13.24C89.4533 13.1333 89.2933 13.0933 89.08 13.12C88.8933 13.1467 88.5733 13.28 88.12 13.52C87.5067 13.7867 86.7067 14.3867 85.72 15.32C84.7333 16.2267 83.8267 17.24 83 18.36C81.9333 19.7733 81.04 21.0267 80.32 22.12C79.6 23.2133 79.0533 24.3333 78.68 25.48C78.6267 25.5867 78.5333 25.7867 78.4 26.08C78.2933 26.3733 78.24 26.52 78.24 26.52C78.2667 26.6267 78.2267 26.8933 78.12 27.32C78.0133 27.72 77.8933 28.0667 77.76 28.36C77.4667 29.5867 77.2933 30.8667 77.24 32.2C77.1867 33.5067 77.2533 34.6667 77.44 35.68C77.6533 36.6933 77.96 37.4 78.36 37.8C78.7067 38.04 79.1733 38.12 79.76 38.04C80.3733 37.96 81.0667 37.7733 81.84 37.48C82.6133 37.1867 83.4 36.8667 84.2 36.52C84.84 36.2533 85.4267 35.96 85.96 35.64C86.4933 35.32 86.8933 35.04 87.16 34.8C87.3733 34.64 87.64 34.48 87.96 34.32C88.3067 34.1333 88.6 34.04 88.84 34.04C89.2133 33.9067 89.4267 33.8533 89.48 33.88C89.5333 33.9067 89.56 34.0267 89.56 34.24C89.56 34.6133 89.3467 35.0267 88.92 35.48C88.52 35.9333 88 36.3467 87.36 36.72C87.1467 36.9333 86.8667 37.16 86.52 37.4C86.1733 37.64 85.8133 37.8267 85.44 37.96C84.88 38.3867 84.1867 38.8 83.36 39.2C82.5333 39.6 81.6933 39.9067 80.84 40.12C80.0133 40.3333 79.2533 40.3733 78.56 40.24ZM95.6272 37.4C95.2805 37.4 95.0005 37.3333 94.7872 37.2C94.6005 37.0667 94.3605 36.88 94.0672 36.64C93.5605 36.1067 93.2005 35.6 92.9872 35.12C92.7739 34.6133 92.7072 34.1333 92.7872 33.68C92.8672 33.4667 92.8939 33.2667 92.8672 33.08C92.8672 32.8667 92.8672 32.76 92.8672 32.76C92.7339 32.6267 92.6939 32.5467 92.7472 32.52C92.8005 32.4667 92.8539 32.3867 92.9072 32.28C93.0672 32.28 93.1205 32.1333 93.0672 31.84C93.0139 31.6267 93.1205 31.16 93.3872 30.44C93.6539 29.72 93.9872 29.04 94.3872 28.4C94.5472 28.1333 94.7872 27.7867 95.1072 27.36C95.4272 26.9067 95.7739 26.4667 96.1472 26.04C96.5472 25.5867 96.9072 25.2267 97.2272 24.96C97.8939 24.4 98.4805 23.9867 98.9872 23.72C99.4939 23.4533 100.041 23.2533 100.627 23.12C101.214 22.9867 101.614 22.92 101.827 22.92C102.067 22.92 102.387 23.1333 102.787 23.56C103.401 23.8267 103.841 24.1467 104.107 24.52C104.401 24.8933 104.587 25.44 104.667 26.16C104.747 26.96 104.681 27.88 104.467 28.92C104.281 29.9333 103.654 31.2 102.587 32.72C101.921 33.68 101.307 34.4 100.747 34.88C100.187 35.3333 99.5205 35.7867 98.7472 36.24C98.1872 36.6133 97.6805 36.8933 97.2272 37.08C96.7739 37.24 96.2405 37.3467 95.6272 37.4ZM99.4672 33.16C100.107 32.44 100.614 31.76 100.987 31.12C101.387 30.48 101.761 29.6667 102.107 28.68C102.214 28.3867 102.281 28.0267 102.307 27.6C102.334 27.1467 102.321 26.7333 102.267 26.36C102.241 25.96 102.147 25.7333 101.987 25.68C101.667 25.4933 101.281 25.44 100.827 25.52C100.374 25.5733 99.8805 25.8267 99.3472 26.28C98.5205 26.9733 97.8005 27.84 97.1872 28.88C96.5739 29.8933 95.9739 31.0533 95.3872 32.36C94.9872 33.32 94.8939 34.0933 95.1072 34.68C95.3472 35.24 95.8405 35.44 96.5872 35.28C97.3605 35.0933 98.3205 34.3867 99.4672 33.16ZM121.129 36.16C120.595 36.16 120.155 36.0533 119.809 35.84C119.462 35.6 119.169 35.2133 118.929 34.68C118.822 34.3067 118.729 33.8933 118.649 33.44C118.595 32.96 118.569 32.52 118.569 32.12C118.569 31.6933 118.609 31.4133 118.689 31.28C118.795 31.1733 118.835 30.9867 118.809 30.72C118.809 30.4267 118.809 30.12 118.809 29.8C118.782 29.2667 118.649 28.9733 118.409 28.92C118.195 28.84 117.875 28.92 117.449 29.16C116.969 29.4533 116.342 29.8533 115.569 30.36C114.795 30.84 113.982 31.3733 113.129 31.96C112.302 32.5467 111.515 33.16 110.769 33.8C110.182 34.44 109.822 34.9333 109.689 35.28C109.582 35.6 109.422 35.76 109.209 35.76C108.995 35.8667 108.809 35.88 108.649 35.8C108.515 35.6933 108.315 35.5333 108.049 35.32C107.862 35.1067 107.675 34.9067 107.489 34.72C107.302 34.5067 107.182 34.3467 107.129 34.24C107.129 34.1067 107.169 33.8267 107.249 33.4C107.329 32.9733 107.422 32.5467 107.529 32.12C107.662 31.6933 107.755 31.4133 107.809 31.28C107.942 31.28 108.049 31.1467 108.129 30.88C108.235 30.6133 108.395 30.32 108.609 30C108.662 29.68 108.795 29.2533 109.009 28.72C109.249 28.16 109.462 27.6667 109.649 27.24C110.022 26.6 110.275 26.0667 110.409 25.64C110.569 25.2133 110.675 24.68 110.729 24.04C110.702 23.9333 110.729 23.84 110.809 23.76C110.889 23.6533 110.982 23.6 111.089 23.6C111.302 23.3867 111.555 23.3333 111.849 23.44C112.142 23.52 112.409 23.72 112.649 24.04C113.129 24.68 113.315 25.3467 113.209 26.04C113.129 26.7067 112.702 27.6667 111.929 28.92C111.742 29.3467 111.595 29.68 111.489 29.92C111.409 30.1333 111.369 30.3067 111.369 30.44C111.369 30.44 111.502 30.3467 111.769 30.16C112.062 29.9733 112.382 29.76 112.729 29.52C113.102 29.2533 113.395 29.0533 113.609 28.92C113.742 28.7867 114.049 28.5467 114.529 28.2C115.009 27.8533 115.515 27.52 116.049 27.2C116.609 26.8533 117.022 26.6533 117.289 26.6C117.502 26.4933 117.729 26.4 117.969 26.32C118.209 26.2133 118.382 26.16 118.489 26.16C118.702 26.16 118.969 26.28 119.289 26.52C119.635 26.7333 119.955 27 120.249 27.32C120.542 27.6133 120.715 27.8667 120.769 28.08C120.769 28.1867 120.769 28.2933 120.769 28.4C120.795 28.5067 120.822 28.6133 120.849 28.72C120.955 29.0667 121.009 29.5333 121.009 30.12C121.035 30.7067 121.022 31.24 120.969 31.72C120.915 32.2 120.822 32.48 120.689 32.56C120.689 32.56 120.689 32.6 120.689 32.68C120.715 32.7333 120.782 32.76 120.889 32.76C120.889 32.8667 120.889 32.9333 120.889 32.96C120.755 32.96 120.702 33.08 120.729 33.32C120.755 33.5333 120.835 33.7733 120.969 34.04C121.129 34.3067 121.289 34.52 121.449 34.68C121.769 35 121.902 35.3067 121.849 35.6C121.795 35.8667 121.555 36.0533 121.129 36.16ZM129.977 37.92C129.603 37.8133 129.297 37.6933 129.057 37.56C128.817 37.4 128.497 37.1467 128.097 36.8C127.777 36.3733 127.523 35.9733 127.337 35.6C127.177 35.2267 127.07 34.8 127.017 34.32C126.963 33.8133 126.937 33.1733 126.937 32.4C126.937 32.08 126.99 31.6 127.097 30.96C127.23 30.32 127.377 29.6533 127.537 28.96C127.723 28.24 127.883 27.6 128.017 27.04C128.177 26.48 128.27 26.12 128.297 25.96C128.377 25.6133 128.243 25.4133 127.897 25.36C127.55 25.3067 127.163 25.2933 126.737 25.32C126.337 25.32 126.07 25.28 125.937 25.2C125.83 25.1733 125.777 25.1333 125.777 25.08C125.777 25 125.777 24.96 125.777 24.96C125.777 24.8533 125.763 24.7867 125.737 24.76C125.737 24.7067 125.697 24.6133 125.617 24.48C125.563 24.3733 125.59 24.2267 125.697 24.04C125.83 23.8267 126.043 23.6933 126.337 23.64C126.577 23.5867 126.897 23.5467 127.297 23.52C127.723 23.4667 128.15 23.3733 128.577 23.24C129.003 23.08 129.35 22.84 129.617 22.52C129.857 21.9333 130.137 21.28 130.457 20.56C130.777 19.84 131.083 19.2 131.377 18.64C131.697 18.0533 131.91 17.6933 132.017 17.56C132.47 17.32 132.803 17.2267 133.017 17.28C133.23 17.3067 133.47 17.5333 133.737 17.96C133.87 18.1467 133.963 18.2933 134.017 18.4C134.097 18.5067 134.11 18.6667 134.057 18.88C134.003 19.0933 133.857 19.4267 133.617 19.88C133.403 20.3333 133.07 20.9867 132.617 21.84C132.483 22.1067 132.363 22.3467 132.257 22.56C132.15 22.7467 132.097 22.84 132.097 22.84C132.203 22.8667 132.363 22.88 132.577 22.88C132.79 22.88 133.057 22.8667 133.377 22.84C133.67 22.7867 134.043 22.7467 134.497 22.72C134.95 22.6667 135.31 22.6667 135.577 22.72C136.19 22.72 136.643 22.84 136.937 23.08C137.23 23.2933 137.39 23.6667 137.417 24.2C137.47 24.4933 137.403 24.6667 137.217 24.72C137.057 24.7733 136.617 24.8 135.897 24.8C135.657 24.8 135.283 24.8133 134.777 24.84C134.27 24.8667 133.737 24.8933 133.177 24.92C132.643 24.9467 132.177 24.9867 131.777 25.04C131.403 25.0667 131.217 25.1067 131.217 25.16C131.137 25.2133 131.003 25.4667 130.817 25.92C130.657 26.3733 130.483 26.8933 130.297 27.48C130.137 28.04 129.99 28.5467 129.857 29C129.67 29.9067 129.523 30.8133 129.417 31.72C129.337 32.6267 129.323 33.4133 129.377 34.08C129.43 34.7467 129.577 35.2133 129.817 35.48C130.057 35.72 130.523 35.7733 131.217 35.64C131.91 35.48 132.47 35.2267 132.897 34.88C133.377 34.48 133.763 34.28 134.057 34.28C134.377 34.28 134.55 34.4267 134.577 34.72C134.63 34.9867 134.483 35.3733 134.137 35.88C133.817 36.36 133.417 36.7867 132.937 37.16C132.457 37.5067 131.95 37.76 131.417 37.92C130.91 38.0533 130.43 38.0533 129.977 37.92ZM140.219 36.76C139.819 36.7067 139.472 36.4267 139.179 35.92C138.912 35.3867 138.752 34.9067 138.699 34.48C138.725 34.2667 138.752 33.96 138.779 33.56C138.832 33.16 138.885 32.7467 138.939 32.32C139.045 31.8133 139.192 31.2 139.379 30.48C139.565 29.7333 139.752 28.9867 139.939 28.24C140.152 27.4933 140.339 26.8533 140.499 26.32C140.659 25.7867 140.765 25.4667 140.819 25.36C140.952 25.1467 141.165 25.0933 141.459 25.2C141.752 25.3067 141.992 25.4667 142.179 25.68C142.339 25.8933 142.432 26.1467 142.459 26.44C142.512 26.7333 142.472 27.16 142.339 27.72C142.232 28.28 142.019 29.1067 141.699 30.2C141.405 31.2667 141.179 32.1333 141.019 32.8C140.885 33.44 140.832 34.12 140.859 34.84C140.752 35.7467 140.672 36.3067 140.619 36.52C140.565 36.7067 140.432 36.7867 140.219 36.76ZM144.819 20.8C144.712 20.88 144.605 20.92 144.499 20.92C144.419 20.8933 144.272 20.8133 144.059 20.68C143.872 20.6533 143.632 20.5333 143.339 20.32C143.072 20.08 142.832 19.84 142.619 19.6C142.432 19.3333 142.339 19.1733 142.339 19.12C142.312 18.8533 142.325 18.52 142.379 18.12C142.459 17.6933 142.605 17.32 142.819 17C143.032 16.6533 143.339 16.4667 143.739 16.44C143.845 16.44 143.939 16.4533 144.019 16.48C144.099 16.5067 144.339 16.6 144.739 16.76C144.952 17.16 145.165 17.6133 145.379 18.12C145.592 18.6 145.685 19.08 145.659 19.56C145.632 20.0133 145.352 20.4267 144.819 20.8ZM147.6 36.24C147.493 36.24 147.333 36.1733 147.12 36.04C146.933 35.88 146.786 35.7467 146.68 35.64C146.493 35.4267 146.373 35.2133 146.32 35C146.293 34.7867 146.28 34.3067 146.28 33.56C146.28 32.7067 146.453 31.7867 146.8 30.8C147.146 29.7867 147.733 28.3733 148.56 26.56L149.88 23.76C149.986 23.5467 150.08 23.3867 150.16 23.28C150.266 23.1733 150.36 23.0667 150.44 22.96C150.546 22.96 150.64 22.96 150.72 22.96C150.8 22.96 150.84 22.96 150.84 22.96C151.053 22.96 151.266 23.0933 151.48 23.36C151.693 23.6 151.853 23.8667 151.96 24.16C151.96 24.5067 151.906 24.8667 151.8 25.24C151.72 25.6133 151.4 26.1733 150.84 26.92C150.653 27.2133 150.4 27.7067 150.08 28.4C149.786 29.0933 149.586 29.6933 149.48 30.2C149.453 30.2267 149.4 30.3467 149.32 30.56C149.24 30.7467 149.146 30.96 149.04 31.2C148.96 31.44 148.866 31.6667 148.76 31.88L148.56 32.76L151.24 30C152.493 28.7467 153.506 27.8533 154.28 27.32C155.053 26.7867 155.666 26.56 156.12 26.64C156.573 26.72 156.96 27.08 157.28 27.72C157.466 28.0133 157.6 28.28 157.68 28.52C157.786 28.7333 157.853 29.0267 157.88 29.4C157.906 29.7733 157.88 30.3333 157.8 31.08V33.56C158.2 33.4533 158.52 33.36 158.76 33.28C159 33.1733 159.253 33.0667 159.52 32.96C159.76 32.8533 160.04 32.76 160.36 32.68C160.68 32.5733 161.08 32.5067 161.56 32.48C161.533 32.8267 161.413 33.2 161.2 33.6C160.986 33.9733 160.72 34.3333 160.4 34.68C160.08 35.0267 159.72 35.3067 159.32 35.52C158.946 35.7333 158.573 35.84 158.2 35.84C157.853 35.84 157.466 35.6667 157.04 35.32C156.613 34.9733 156.306 34.5867 156.12 34.16C156.013 33.8667 155.946 33.5467 155.92 33.2C155.92 32.8533 155.92 32.2133 155.92 31.28V29.8C155.92 29.3733 155.786 29.2533 155.52 29.44C155.28 29.6 155.08 29.7467 154.92 29.88C154.52 30.2267 154.093 30.6267 153.64 31.08C153.213 31.5333 152.773 32 152.32 32.48C151.093 33.76 150.066 34.7067 149.24 35.32C148.44 35.9333 147.893 36.24 147.6 36.24ZM166.488 35.96C165.981 35.5067 165.594 35.04 165.328 34.56C165.088 34.08 164.901 33.32 164.768 32.28C164.714 31.8 164.768 31.1733 164.928 30.4C165.088 29.6 165.314 28.76 165.608 27.88C165.901 27 166.234 26.2 166.608 25.48C166.981 24.7333 167.354 24.1733 167.728 23.8C168.048 23.4 168.301 23.1867 168.488 23.16C168.701 23.1067 169.074 23.2 169.608 23.44C169.901 23.7867 170.048 24.16 170.048 24.56C170.048 24.96 169.888 25.4133 169.568 25.92C169.034 26.64 168.568 27.5467 168.168 28.64C167.794 29.7067 167.541 30.6667 167.408 31.52C167.141 32.4267 167.021 33.04 167.048 33.36C167.074 33.68 167.314 33.8933 167.768 34C168.274 34.1067 168.874 33.92 169.568 33.44C170.261 32.9333 170.941 32.24 171.608 31.36C172.274 30.4533 172.808 29.4667 173.208 28.4C173.368 28.0267 173.488 27.5867 173.568 27.08C173.674 26.5733 173.781 26.2 173.888 25.96C174.021 25.4267 174.208 25.04 174.448 24.8C174.688 24.5333 174.941 24.3867 175.208 24.36C175.474 24.3067 175.701 24.36 175.888 24.52C176.128 24.6267 176.274 24.76 176.328 24.92C176.381 25.0533 176.381 25.4267 176.328 26.04C176.328 27.0267 176.114 27.8667 175.688 28.56C175.261 29.2533 174.901 29.9867 174.608 30.76C174.368 31.32 174.008 31.9467 173.528 32.64C173.074 33.3333 172.568 33.96 172.008 34.52C171.474 35.08 170.954 35.4667 170.448 35.68C169.701 36.16 169.034 36.4 168.448 36.4C167.888 36.3733 167.234 36.2267 166.488 35.96ZM185.532 36.6C184.972 37.08 184.319 37.36 183.572 37.44C182.852 37.52 182.146 37.4133 181.452 37.12C180.759 36.8 180.186 36.32 179.732 35.68C179.279 35.0933 178.986 34.4267 178.852 33.68C178.719 32.9067 178.706 31.9067 178.812 30.68C178.892 29.64 179.226 28.6 179.812 27.56C180.399 26.4933 181.106 25.5467 181.932 24.72C182.786 23.8933 183.626 23.32 184.452 23C184.852 22.7333 185.186 22.6133 185.452 22.64C185.746 22.64 186.186 22.6667 186.772 22.72C187.386 22.8 187.839 22.92 188.132 23.08C188.452 23.24 188.706 23.4533 188.892 23.72C189.292 24.12 189.559 24.52 189.692 24.92C189.826 25.2933 189.892 25.6667 189.892 26.04C189.786 26.6267 189.386 27.3467 188.692 28.2C188.026 29.0267 187.146 29.7067 186.052 30.24C185.466 30.4267 184.826 30.5067 184.132 30.48C183.439 30.4533 182.866 30.28 182.412 29.96C181.906 29.7467 181.572 29.7867 181.412 30.08C181.252 30.3467 181.106 31.0133 180.972 32.08C180.866 33.0933 180.946 33.84 181.212 34.32C181.479 34.7733 181.839 35.04 182.292 35.12C182.826 35.2267 183.239 35.3067 183.532 35.36C183.852 35.3867 184.239 35.2667 184.692 35C185.119 34.7333 185.386 34.5867 185.492 34.56C185.599 34.5067 185.679 34.4533 185.732 34.4C185.812 34.32 185.986 34.1467 186.252 33.88C186.439 33.6933 186.586 33.56 186.692 33.48C186.799 33.3733 186.919 33.32 187.052 33.32C187.186 33.32 187.306 33.3867 187.412 33.52C187.519 33.6267 187.626 33.7067 187.732 33.76C187.999 33.76 188.052 33.92 187.892 34.24C187.759 34.56 187.479 34.9467 187.052 35.4C186.626 35.8267 186.119 36.2267 185.532 36.6ZM185.492 28.12C185.786 27.9867 186.092 27.8 186.412 27.56C186.732 27.2933 186.999 27.0133 187.212 26.72C187.452 26.4 187.572 26.1333 187.572 25.92C187.572 25.5467 187.399 25.24 187.052 25C186.706 24.7333 186.186 24.6933 185.492 24.88C185.199 24.96 184.866 25.16 184.492 25.48C184.119 25.7733 183.759 26.1067 183.412 26.48C183.092 26.8533 182.826 27.1867 182.612 27.48C182.426 27.7733 182.359 27.9467 182.412 28C182.492 28.1333 182.719 28.24 183.092 28.32C183.466 28.3733 183.879 28.3867 184.332 28.36C184.812 28.3333 185.199 28.2533 185.492 28.12Z" fill="white"/>
</svg>
