<svg width="352" height="38" viewBox="0 0 352 38" fill="none" xmlns="http://www.w3.org/2000/svg">
<path d="M12.775 19.1C12.725 19.2167 12.5333 19.3083 12.2 19.375C11.8667 19.4417 11.3333 19.5167 10.6 19.6C10.3833 19.6167 10.0583 19.6333 9.625 19.65C9.20833 19.6667 8.75 19.6833 8.25 19.7C7.76667 19.7167 7.325 19.725 6.925 19.725C6.525 19.7083 6.25 19.6833 6.1 19.65C6.1 19.65 6.05833 19.6917 5.975 19.775C5.90833 19.8583 5.875 19.9667 5.875 20.1C5.75833 20.3 5.60833 20.6083 5.425 21.025C5.25833 21.4417 5.06667 21.9 4.85 22.4C4.65 22.9 4.45833 23.4 4.275 23.9C4.10833 24.4 3.96667 24.8333 3.85 25.2C3.73333 25.5667 3.675 25.8167 3.675 25.95C3.525 26.35 3.43333 26.6917 3.4 26.975C3.36667 27.2583 3.30833 27.425 3.225 27.475C3.20833 27.5417 3.1 27.5583 2.9 27.525C2.7 27.4917 2.53333 27.4 2.4 27.25C2.2 27.1 2.08333 26.9667 2.05 26.85C2.03333 26.7167 2.08333 26.4667 2.2 26.1C2.25 25.8833 2.33333 25.5667 2.45 25.15C2.58333 24.7167 2.725 24.2417 2.875 23.725C3.04167 23.2083 3.20833 22.7083 3.375 22.225C3.55833 21.725 3.73333 21.3167 3.9 21C4.08333 20.6833 4.2 20.4 4.25 20.15C4.3 19.8833 4.36667 19.6417 4.45 19.425C4.43333 19.2417 4.43333 19.1167 4.45 19.05C4.46667 18.9833 4.53333 18.8833 4.65 18.75C4.73333 18.6833 4.83333 18.5667 4.95 18.4C5.08333 18.2167 5.23333 17.9417 5.4 17.575C5.45 17.4083 5.525 17.1833 5.625 16.9C5.74167 16.6 5.85 16.3 5.95 16C6.05 15.6833 6.14167 15.4167 6.225 15.2C6.30833 14.9833 6.35 14.8667 6.35 14.85C6.38333 14.7833 6.43333 14.6583 6.5 14.475C6.56667 14.275 6.61667 14.1167 6.65 14C6.71667 13.7667 6.76667 13.575 6.8 13.425C6.85 13.275 6.84167 13.2 6.775 13.2C6.64167 13.2333 6.375 13.2583 5.975 13.275C5.775 13.3083 5.625 13.3333 5.525 13.35C5.44167 13.35 5.36667 13.3583 5.3 13.375C5.13333 13.3917 4.98333 13.375 4.85 13.325C4.71667 13.275 4.65 13.175 4.65 13.025C4.68333 12.7583 4.775 12.5417 4.925 12.375C5.09167 12.1917 5.3 12.0917 5.55 12.075C5.66667 12.0417 5.79167 12.0167 5.925 12C6.075 11.9667 6.275 11.9167 6.525 11.85C6.84167 11.7833 7.08333 11.7333 7.25 11.7C7.43333 11.65 7.575 11.6417 7.675 11.675C7.75833 11.625 7.83333 11.575 7.9 11.525C7.96667 11.4583 8 11.3917 8 11.325C8 11.2417 8.03333 11.1833 8.1 11.15C8.18333 11.1 8.275 11.075 8.375 11.075C8.475 11.0583 8.575 11.0667 8.675 11.1C8.79167 11.1333 8.875 11.1917 8.925 11.275C8.95833 11.325 9.03333 11.3667 9.15 11.4C9.26667 11.4333 9.475 11.4333 9.775 11.4C10.0917 11.35 10.5333 11.2667 11.1 11.15C11.4 11.1167 11.775 11.0833 12.225 11.05C12.6917 11.0167 13.0583 11.0417 13.325 11.125C13.6083 11.075 13.8583 11.0583 14.075 11.075C14.3083 11.075 14.4667 11.0417 14.55 10.975C14.9 11.0417 15.15 11.0917 15.3 11.125C15.4667 11.1417 15.6 11.1917 15.7 11.275C15.7667 11.3417 15.7833 11.4083 15.75 11.475C15.7333 11.525 15.725 11.55 15.725 11.55C15.6583 11.5167 15.6667 11.525 15.75 11.575C15.8333 11.6083 15.8917 11.6417 15.925 11.675C16.0417 11.725 16.1167 11.7917 16.15 11.875C16.1833 11.9417 16.2 12.0083 16.2 12.075C16.2 12.1417 16.1917 12.2 16.175 12.25C16.1583 12.4 16.075 12.4917 15.925 12.525C15.775 12.5417 15.4 12.5417 14.8 12.525C14.0833 12.425 13.375 12.3917 12.675 12.425C11.9917 12.4417 11.1917 12.5167 10.275 12.65C9.94167 12.6667 9.64167 12.7167 9.375 12.8C9.125 12.8667 8.98333 12.9 8.95 12.9C8.88333 12.9 8.76667 13.0167 8.6 13.25C8.43333 13.4667 8.275 13.7917 8.125 14.225C8.05833 14.3417 7.94167 14.6083 7.775 15.025C7.60833 15.4417 7.425 15.8917 7.225 16.375C7.04167 16.8583 6.875 17.2833 6.725 17.65C6.59167 18.0167 6.50833 18.2167 6.475 18.25C6.70833 18.3167 7.08333 18.35 7.6 18.35C8.13333 18.35 8.71667 18.3333 9.35 18.3C10 18.25 10.5917 18.2 11.125 18.15C11.375 18.1 11.6333 18.0583 11.9 18.025C12.1833 17.975 12.3667 17.9667 12.45 18C12.5333 18.05 12.6083 18.15 12.675 18.3C12.7417 18.4333 12.7833 18.575 12.8 18.725C12.8333 18.875 12.825 19 12.775 19.1ZM14.3717 26.2C14.2383 26.0667 14.1383 25.9 14.0717 25.7C14.0217 25.5 14.005 25.3 14.0217 25.1C14.0383 24.9 14.08 24.7333 14.1467 24.6C14.1467 24.4667 14.1633 24.3667 14.1967 24.3C14.2467 24.2167 14.2633 24.1417 14.2467 24.075C14.23 24.0083 14.2467 23.8917 14.2967 23.725C14.3467 23.5583 14.3967 23.4 14.4467 23.25C14.5633 22.9833 14.6883 22.6667 14.8217 22.3C14.955 21.9167 15.08 21.5417 15.1967 21.175C15.3133 20.8083 15.4133 20.4917 15.4967 20.225C15.58 19.9583 15.63 19.7917 15.6467 19.725C15.6467 19.525 15.78 19.4167 16.0467 19.4C16.2467 19.3333 16.3967 19.3333 16.4967 19.4C16.5967 19.45 16.73 19.6083 16.8967 19.875C17.03 20.0083 17.08 20.2083 17.0467 20.475C17.0133 20.7417 16.905 21.075 16.7217 21.475C16.655 21.6083 16.5717 21.8 16.4717 22.05C16.3883 22.3 16.33 22.525 16.2967 22.725C16.23 22.8583 16.1467 23.05 16.0467 23.3C15.9633 23.5333 15.8883 23.7583 15.8217 23.975C15.7883 24.0583 15.755 24.1833 15.7217 24.35C15.6883 24.5 15.6467 24.6667 15.5967 24.85C15.5467 25.0167 15.48 25.1667 15.3967 25.3C15.2467 25.9833 15.105 26.3833 14.9717 26.5C14.855 26.6167 14.655 26.5167 14.3717 26.2ZM16.7967 16.05C16.7133 15.9667 16.6383 15.85 16.5717 15.7C16.505 15.5333 16.4633 15.3833 16.4467 15.25C16.43 15.1 16.4467 15.025 16.4967 15.025C16.63 15.0083 16.7883 14.8667 16.9717 14.6C17.155 14.3333 17.23 14.1 17.1967 13.9C17.1967 13.8333 17.2217 13.775 17.2717 13.725C17.3217 13.6583 17.38 13.6167 17.4467 13.6C17.6467 13.4667 17.8383 13.45 18.0217 13.55C18.2217 13.6333 18.405 13.8083 18.5717 14.075C18.7217 14.3917 18.7633 14.6583 18.6967 14.875C18.63 15.075 18.4467 15.3583 18.1467 15.725C17.8967 16.0583 17.6633 16.2417 17.4467 16.275C17.2467 16.3083 17.03 16.2333 16.7967 16.05ZM19.2348 26.125C19.0848 26.0083 18.9764 25.8917 18.9098 25.775C18.8598 25.6583 18.8598 25.4333 18.9098 25.1C18.9598 24.6333 19.0264 24.225 19.1098 23.875C19.1931 23.5083 19.2931 23.0917 19.4098 22.625C19.4431 22.425 19.5348 22.0833 19.6848 21.6C19.8514 21.1167 20.0514 20.5917 20.2848 20.025C20.5181 19.4583 20.7514 18.925 20.9848 18.425C21.2181 17.9083 21.4181 17.525 21.5848 17.275C21.7181 17.175 21.8764 17.1333 22.0598 17.15C22.2598 17.1667 22.4264 17.2417 22.5598 17.375C22.7431 17.525 22.7681 17.7917 22.6348 18.175C22.5181 18.5417 22.2681 19.125 21.8848 19.925C21.6848 20.375 21.5348 20.7167 21.4348 20.95C21.3348 21.1667 21.2931 21.3 21.3098 21.35C21.3264 21.3833 21.4014 21.3583 21.5348 21.275C21.6348 21.0917 21.8181 20.8833 22.0848 20.65C22.3514 20.4 22.6348 20.1583 22.9348 19.925C23.2348 19.6917 23.5181 19.4833 23.7848 19.3C24.0514 19.1167 24.2348 19 24.3348 18.95C24.4681 18.8667 24.6181 18.8 24.7848 18.75C24.9681 18.6833 25.0931 18.6333 25.1598 18.6C25.5431 18.4167 25.9348 18.35 26.3348 18.4C26.7348 18.45 26.9848 18.6 27.0848 18.85C27.1014 18.9833 27.1514 19.0833 27.2348 19.15C27.3348 19.2167 27.3848 19.25 27.3848 19.25C27.4514 19.25 27.4848 19.275 27.4848 19.325C27.5014 19.375 27.5098 19.4 27.5098 19.4C27.5098 19.5167 27.4181 19.5917 27.2348 19.625C27.0681 19.6417 26.8514 19.6583 26.5848 19.675C26.3681 19.6917 26.1764 19.7333 26.0098 19.8C25.8431 19.8667 25.6431 19.95 25.4098 20.05C24.7764 20.4167 24.1681 20.775 23.5848 21.125C23.0181 21.475 22.4681 21.9417 21.9348 22.525C21.8181 22.6583 21.7014 22.8167 21.5848 23C21.4681 23.1833 21.3431 23.3833 21.2098 23.6C21.1264 23.6833 21.0431 23.8667 20.9598 24.15C20.8764 24.4333 20.8014 24.7083 20.7348 24.975C20.6848 25.225 20.6598 25.375 20.6598 25.425C20.6598 25.425 20.6348 25.5083 20.5848 25.675C20.5348 25.825 20.4514 25.975 20.3348 26.125C20.1348 26.3917 19.9681 26.525 19.8348 26.525C19.7014 26.525 19.5014 26.3917 19.2348 26.125ZM30.1436 26.775C29.7269 26.8083 29.3269 26.7833 28.9436 26.7C28.5769 26.6167 28.2602 26.475 27.9936 26.275C27.7436 26.0583 27.5686 25.8 27.4686 25.5C27.3519 25.2667 27.2936 25.1083 27.2936 25.025C27.2936 24.925 27.3519 24.8417 27.4686 24.775C27.6019 24.775 27.7186 24.8167 27.8186 24.9C27.9352 24.9667 28.0852 25.0417 28.2686 25.125C28.5186 25.3417 28.8186 25.4583 29.1686 25.475C29.5352 25.4917 29.8686 25.4333 30.1686 25.3C30.4686 25.1667 30.6352 25 30.6686 24.8C30.6686 24.7333 30.6436 24.6167 30.5936 24.45C30.5436 24.2833 30.4852 24.1083 30.4186 23.925C29.9686 23.2917 29.6352 22.6667 29.4186 22.05C29.2186 21.4167 29.1186 20.9 29.1186 20.5C29.1186 20.2 29.2102 19.8833 29.3936 19.55C29.5769 19.2 29.8269 18.9083 30.1436 18.675C30.4436 18.3583 30.7769 18.075 31.1436 17.825C31.5102 17.575 31.8769 17.3583 32.2436 17.175C32.6269 16.9917 32.9686 16.8583 33.2686 16.775C33.4519 16.775 33.6936 16.8 33.9936 16.85C34.2936 16.9 34.5019 16.9583 34.6186 17.025C34.8019 17.0917 34.9769 17.275 35.1436 17.575C35.3102 17.8583 35.3936 18.1417 35.3936 18.425C35.3936 18.5417 35.3602 18.6917 35.2936 18.875C35.2269 19.0583 35.1186 19.275 34.9686 19.525C34.9019 19.7083 34.8269 19.8833 34.7436 20.05C34.6602 20.2 34.6186 20.3083 34.6186 20.375C34.5352 20.5583 34.4186 20.65 34.2686 20.65C34.1352 20.6333 33.9936 20.5583 33.8436 20.425C33.7102 20.275 33.6019 20.1 33.5186 19.9C33.4519 19.65 33.4269 19.45 33.4436 19.3C33.4602 19.1333 33.5269 18.9583 33.6436 18.775C33.8269 18.5917 33.9186 18.4667 33.9186 18.4C33.9186 18.3333 33.8269 18.3 33.6436 18.3C33.5269 18.3 33.3102 18.375 32.9936 18.525C32.6936 18.6583 32.3686 18.8417 32.0186 19.075C31.6852 19.2917 31.3936 19.525 31.1436 19.775C30.8269 20.075 30.6352 20.2917 30.5686 20.425C30.5186 20.5583 30.4936 20.7667 30.4936 21.05C30.4936 21.2833 30.5436 21.575 30.6436 21.925C30.7602 22.275 30.8769 22.5083 30.9936 22.625C30.9936 22.625 31.0519 22.7417 31.1686 22.975C31.2852 23.1917 31.4269 23.425 31.5936 23.675C32.0769 24.7417 32.2019 25.5083 31.9686 25.975C31.7352 26.4417 31.1269 26.7083 30.1436 26.775ZM38.5391 28.25C37.9891 28.1667 37.6141 27.9583 37.4141 27.625C37.2307 27.3083 37.1891 26.8167 37.2891 26.15C37.3891 25.8333 37.4474 25.55 37.4641 25.3C37.4974 25.0333 37.5724 24.8667 37.6891 24.8C37.6891 24.8 37.6974 24.775 37.7141 24.725C37.7474 24.675 37.7391 24.625 37.6891 24.575C37.6891 24.3583 37.7641 24.0583 37.9141 23.675C37.9474 23.575 37.9891 23.4583 38.0391 23.325C38.1057 23.175 38.1391 23.1 38.1391 23.1C38.0557 22.9667 38.0557 22.8583 38.1391 22.775C38.2224 22.6917 38.3057 22.6167 38.3891 22.55C38.4891 22.4667 38.4974 22.375 38.4141 22.275C38.3807 22.2083 38.4224 22.0583 38.5391 21.825C38.6557 21.575 38.7891 21.3167 38.9391 21.05C39.0891 20.7833 39.1891 20.575 39.2391 20.425C39.2391 20.3917 39.2807 20.275 39.3641 20.075C39.4474 19.875 39.5474 19.6417 39.6641 19.375C39.7807 19.1083 39.8891 18.8667 39.9891 18.65C40.1057 18.4333 40.1807 18.2917 40.2141 18.225C40.3807 18.1417 40.3141 18.0833 40.0141 18.05C39.7141 18.0167 39.3974 18.0083 39.0641 18.025C38.5474 18.0083 38.1307 17.9833 37.8141 17.95C37.5141 17.9167 37.2641 17.8417 37.0641 17.725C36.8641 17.4917 36.7891 17.325 36.8391 17.225C36.9057 17.1083 37.1057 17.0417 37.4391 17.025C37.6557 17.0083 37.8224 17 37.9391 17C38.0724 17 38.2391 16.9917 38.4391 16.975C38.6557 16.9417 38.9891 16.9 39.4391 16.85L40.7141 16.75L40.7891 16.325C40.9224 16.1083 41.0307 15.9167 41.1141 15.75C41.2141 15.5667 41.2974 15.3833 41.3641 15.2C41.4307 15.0167 41.4807 14.825 41.5141 14.625C41.5141 14.625 41.5891 14.4917 41.7391 14.225C41.8891 13.9417 41.9807 13.65 42.0141 13.35C42.2141 13.0167 42.3891 12.7167 42.5391 12.45C42.6891 12.1667 42.7807 11.9917 42.8141 11.925C42.9974 11.775 43.1224 11.7 43.1891 11.7C43.2724 11.7 43.4391 11.7833 43.6891 11.95C43.8391 12.0333 43.9724 12.1333 44.0891 12.25C44.2057 12.3667 44.2807 12.4917 44.3141 12.625C44.3474 12.7417 44.2974 12.8583 44.1641 12.975C44.1307 13.0417 44.0807 13.1667 44.0141 13.35C43.9474 13.5167 43.8974 13.6583 43.8641 13.775C43.7641 13.8917 43.6391 14.0833 43.4891 14.35C43.3557 14.6 43.2641 14.8583 43.2141 15.125C43.0807 15.4083 42.9557 15.6667 42.8391 15.9C42.7224 16.1167 42.6307 16.225 42.5641 16.225C42.5974 16.3917 42.6974 16.475 42.8641 16.475C43.0307 16.4583 43.3057 16.4417 43.6891 16.425C44.0057 16.3917 44.2224 16.3583 44.3391 16.325C44.4724 16.275 44.6224 16.2917 44.7891 16.375C44.8724 16.4917 44.9391 16.625 44.9891 16.775C45.0391 16.925 45.0474 17.0667 45.0141 17.2C44.9974 17.3167 44.9307 17.4 44.8141 17.45C44.7307 17.45 44.5557 17.5 44.2891 17.6C44.0391 17.6833 43.7224 17.7333 43.3391 17.75L42.0141 17.875L41.5891 18.725C41.4724 18.9417 41.3724 19.1417 41.2891 19.325C41.2057 19.4917 41.1474 19.5917 41.1141 19.625C41.1141 19.725 41.0557 19.875 40.9391 20.075C40.8391 20.275 40.7307 20.4917 40.6141 20.725C40.5141 21.0083 40.3974 21.2667 40.2641 21.5C40.1474 21.7333 40.0891 21.85 40.0891 21.85C40.0224 21.85 39.9891 21.9 39.9891 22C40.0724 22.2 40.0474 22.35 39.9141 22.45C39.8307 22.5 39.7557 22.575 39.6891 22.675C39.6391 22.7583 39.6141 22.8 39.6141 22.8C39.6807 22.8667 39.6891 22.95 39.6391 23.05C39.6057 23.15 39.5557 23.2583 39.4891 23.375C39.4891 23.5083 39.4474 23.7 39.3641 23.95C39.2974 24.2 39.2224 24.4333 39.1391 24.65C39.1557 24.95 39.1724 25.1417 39.1891 25.225C39.2057 25.3083 39.2474 25.3417 39.3141 25.325C39.3974 25.3417 39.4724 25.3417 39.5391 25.325C39.6057 25.3083 39.6724 25.3 39.7391 25.3C39.9724 25.2 39.8474 25.7833 39.3641 27.05C39.0974 27.4667 38.9141 27.7667 38.8141 27.95C38.7141 28.15 38.6224 28.25 38.5391 28.25ZM56.5998 28.55C56.4331 28.3667 56.3248 28.2083 56.2748 28.075C56.2248 27.9583 56.2165 27.8083 56.2498 27.625C56.2998 27.4583 56.3665 27.2167 56.4498 26.9C56.5831 26.3667 56.7248 25.925 56.8748 25.575C57.0415 25.2083 57.1998 24.8333 57.3498 24.45C57.5165 24.05 57.6581 23.5417 57.7748 22.925C58.0415 22.3083 58.2748 21.725 58.4748 21.175C58.6915 20.625 58.8581 20.175 58.9748 19.825C59.0915 19.475 59.1498 19.3 59.1498 19.3C59.1665 19.2333 59.2415 19.0583 59.3748 18.775C59.5081 18.4917 59.6748 18.15 59.8748 17.75C60.0915 17.3333 60.2915 16.9167 60.4748 16.5C60.7581 15.7 60.9831 15.0167 61.1498 14.45C61.3331 13.8667 61.5165 13.3417 61.6998 12.875C61.8831 12.4083 62.1248 11.95 62.4248 11.5C62.6248 11.15 62.8581 10.925 63.1248 10.825C63.3915 10.725 63.6415 10.7333 63.8748 10.85C64.1248 10.95 64.2998 11.1667 64.3998 11.5C64.4831 11.6667 64.5498 11.8667 64.5998 12.1C64.6665 12.3333 64.7248 12.675 64.7748 13.125C64.8248 13.5583 64.8581 14.175 64.8748 14.975C64.9081 15.925 64.9165 16.8667 64.8998 17.8C64.8831 18.7167 64.8831 19.5667 64.8998 20.35C64.9331 21.1333 65.0248 21.8 65.1748 22.35C65.2248 22.65 65.2915 23.0167 65.3748 23.45C65.4748 23.8667 65.5748 24.2833 65.6748 24.7C65.7915 25.1167 65.8998 25.4667 65.9998 25.75C66.1165 26.0333 66.2081 26.175 66.2748 26.175C66.3581 26.175 66.4665 26.0667 66.5998 25.85C66.7498 25.6333 66.9331 25.2417 67.1498 24.675C67.3831 24.1083 67.6581 23.3083 67.9748 22.275C68.2915 21.225 68.6498 19.8833 69.0498 18.25C69.1331 17.9667 69.2415 17.5083 69.3748 16.875C69.5248 16.2417 69.6331 15.6 69.6998 14.95C69.8165 14.5333 69.9331 14.075 70.0498 13.575C70.1665 13.075 70.2665 12.6333 70.3498 12.25C70.4498 11.8667 70.4998 11.65 70.4998 11.6C70.4998 11.4833 70.4998 11.3833 70.4998 11.3C70.5165 11.2167 70.5165 11.1333 70.4998 11.05C70.5831 11.05 70.6581 10.9417 70.7248 10.725C70.7915 10.4917 70.8248 10.2917 70.8248 10.125C70.8248 9.84167 70.8581 9.61667 70.9248 9.45C71.0081 9.26667 71.0915 9.13333 71.1748 9.05C71.2248 8.91667 71.3498 8.85833 71.5498 8.875C71.7498 8.875 71.9498 8.925 72.1498 9.025C72.3498 9.125 72.4748 9.25833 72.5248 9.425C72.5581 9.60833 72.5081 10.025 72.3748 10.675C72.2581 11.3083 72.0748 12.1667 71.8248 13.25C71.8248 13.4333 71.7748 13.7333 71.6748 14.15C71.5748 14.5667 71.4665 15.0083 71.3498 15.475C71.2498 15.9417 71.1748 16.3417 71.1248 16.675C71.0581 17.1083 70.9831 17.5167 70.8998 17.9C70.8165 18.2667 70.7331 18.4417 70.6498 18.425C70.2165 20.3083 69.7581 21.9167 69.2748 23.25C68.8081 24.5667 68.3915 25.6417 68.0248 26.475C67.6248 27.3917 67.1831 27.9417 66.6998 28.125C66.2331 28.325 65.7331 28.0833 65.1998 27.4C64.8831 26.9667 64.6331 26.5417 64.4498 26.125C64.2665 25.6917 64.1165 25.1917 63.9998 24.625C63.8831 24.0417 63.7415 23.325 63.5748 22.475C63.3248 21.7917 63.1831 21.1 63.1498 20.4C63.1331 19.7 63.1581 18.9833 63.2248 18.25C63.2915 17.5 63.3415 16.725 63.3748 15.925C63.3581 15.125 63.3248 14.5917 63.2748 14.325C63.2248 14.0583 63.1248 14.075 62.9748 14.375C62.8415 14.6583 62.6165 15.2417 62.2998 16.125C62.1831 16.4417 62.0248 16.825 61.8248 17.275C61.6415 17.725 61.4581 18.175 61.2748 18.625C61.0915 19.0583 60.9331 19.4417 60.7998 19.775C60.6665 20.0917 60.5831 20.2917 60.5498 20.375C60.4498 20.575 60.3331 20.8417 60.1998 21.175C60.0665 21.4917 59.9581 21.8333 59.8748 22.2C59.2748 23.7667 58.8248 25.0167 58.5248 25.95C58.2415 26.8833 58.0331 27.5333 57.8998 27.9C57.7331 28.3667 57.5581 28.675 57.3748 28.825C57.1915 28.9917 56.9331 28.9 56.5998 28.55ZM71.8156 26.1C71.749 25.9667 71.6656 25.8667 71.5656 25.8C71.4656 25.7167 71.4156 25.6417 71.4156 25.575C71.4156 25.5083 71.4073 25.4417 71.3906 25.375C71.3906 25.2917 71.3573 25.2167 71.2906 25.15C71.2073 25.05 71.2156 24.825 71.3156 24.475C71.4156 24.1083 71.5823 23.6667 71.8156 23.15C72.049 22.6167 72.324 22.0583 72.6406 21.475C72.774 21.3417 72.9073 21.1667 73.0406 20.95C73.174 20.7333 73.274 20.5917 73.3406 20.525C73.3406 20.4583 73.3656 20.4 73.4156 20.35C73.4656 20.2833 73.524 20.25 73.5906 20.25V20.1C73.5906 20.0167 73.6656 19.875 73.8156 19.675C73.9823 19.475 74.1823 19.2583 74.4156 19.025C74.649 18.775 74.8906 18.5417 75.1406 18.325C75.3906 18.0917 75.599 17.925 75.7656 17.825C76.1156 17.5917 76.474 17.45 76.8406 17.4C77.224 17.35 77.549 17.4333 77.8156 17.65C77.8656 17.7 77.949 17.7833 78.0656 17.9C78.1823 18.0167 78.3156 18.15 78.4656 18.3C78.6323 18.4333 78.799 18.575 78.9656 18.725L79.8906 19.55L79.4406 20.8C79.224 21.4667 79.1656 22.05 79.2656 22.55C79.3823 23.05 79.549 23.4833 79.7656 23.85C79.849 24.0333 80.0156 24.2083 80.2656 24.375C80.5323 24.5417 80.7823 24.6417 81.0156 24.675C81.149 24.6917 81.274 24.7417 81.3906 24.825C81.5073 24.9083 81.5656 25.0417 81.5656 25.225C81.5656 25.3917 81.5323 25.525 81.4656 25.625C81.399 25.725 81.2823 25.7917 81.1156 25.825C80.5656 25.8917 80.049 25.7583 79.5656 25.425C79.099 25.0917 78.6656 24.5417 78.2656 23.775C78.199 23.675 78.1073 23.4917 77.9906 23.225C77.8906 22.9417 77.8323 22.7583 77.8156 22.675C77.749 22.7583 77.624 22.9167 77.4406 23.15C77.2573 23.3667 77.1156 23.525 77.0156 23.625C75.8323 24.825 74.8073 25.6333 73.9406 26.05C73.0906 26.45 72.3823 26.4667 71.8156 26.1ZM72.7156 24.7C72.7156 24.8167 72.8906 24.8167 73.2406 24.7C73.6073 24.5667 73.999 24.3333 74.4156 24C74.9823 23.5167 75.549 22.9833 76.1156 22.4C76.699 21.8167 77.1656 21.275 77.5156 20.775L78.0656 19.875C77.899 19.4917 77.7156 19.2333 77.5156 19.1C77.3323 18.95 77.174 18.875 77.0406 18.875C76.824 18.875 76.499 19.075 76.0656 19.475C75.649 19.875 75.199 20.4083 74.7156 21.075C74.2323 21.7417 73.774 22.475 73.3406 23.275C73.174 23.6083 73.024 23.9333 72.8906 24.25C72.774 24.55 72.7156 24.7 72.7156 24.7ZM93.8287 25.95C93.7454 25.9167 93.6204 25.8333 93.4537 25.7C93.287 25.5667 93.1454 25.3417 93.0287 25.025C92.912 24.6917 92.8537 24.2333 92.8537 23.65C92.8704 23.15 92.8787 22.7583 92.8787 22.475C92.8954 22.1917 92.837 22.05 92.7037 22.05C92.5704 22.05 92.312 22.1833 91.9287 22.45C91.562 22.7 91.137 23.0417 90.6537 23.475C90.1704 23.9083 89.6787 24.3917 89.1787 24.925C89.012 25.1083 88.8454 25.2833 88.6787 25.45C88.5287 25.6 88.3787 25.7 88.2287 25.75C88.0787 25.7833 87.9037 25.725 87.7037 25.575L87.4287 25.35C87.3454 25.2667 87.2954 25.1833 87.2787 25.1C87.262 25 87.2704 24.8917 87.3037 24.775L87.8787 23.125C88.1454 22.525 88.3287 22.0917 88.4287 21.825C88.5287 21.5417 88.5787 21.3667 88.5787 21.3C88.5787 21.2167 88.5537 21.1833 88.5037 21.2C88.3704 21.2167 88.1704 21.3 87.9037 21.45C87.637 21.5833 87.462 21.7167 87.3787 21.85C87.312 21.85 87.212 21.925 87.0787 22.075C86.9454 22.225 86.7787 22.3667 86.5787 22.5C86.462 22.7 86.2287 22.9583 85.8787 23.275C85.5454 23.5917 85.212 23.9167 84.8787 24.25C84.662 24.4333 84.4454 24.6583 84.2287 24.925C84.0287 25.1917 83.8537 25.425 83.7037 25.625C83.5704 25.825 83.4787 25.925 83.4287 25.925C83.212 25.925 83.012 25.8667 82.8287 25.75C82.662 25.6333 82.537 25.4417 82.4537 25.175C82.3204 24.8917 82.3204 24.5 82.4537 24C82.587 23.4833 82.737 22.8167 82.9037 22C82.9704 21.75 83.012 21.5667 83.0287 21.45C83.0454 21.3333 83.0704 21.2167 83.1037 21.1C83.1537 20.9667 83.2287 20.7667 83.3287 20.5C83.4454 20.2333 83.6204 19.8333 83.8537 19.3C83.9704 18.9833 84.037 18.75 84.0537 18.6C84.087 18.4333 84.1037 18.3167 84.1037 18.25C84.1037 18.0833 84.1454 17.9417 84.2287 17.825C84.3287 17.7083 84.4454 17.625 84.5787 17.575C84.712 17.525 84.837 17.5167 84.9537 17.55C85.137 17.5833 85.2954 17.675 85.4287 17.825C85.5787 17.975 85.662 18.1833 85.6787 18.45C85.6954 18.65 85.6787 18.8333 85.6287 19C85.5787 19.15 85.5287 19.2917 85.4787 19.425L85.2037 20.1C85.1204 20.2833 85.012 20.55 84.8787 20.9C84.7454 21.25 84.6287 21.575 84.5287 21.875C84.4287 22.1583 84.3787 22.325 84.3787 22.375C84.3954 22.425 84.4537 22.4167 84.5537 22.35C84.6537 22.2667 84.7787 22.1583 84.9287 22.025C85.0954 21.875 85.262 21.7333 85.4287 21.6C85.7787 21.2667 86.1704 20.95 86.6037 20.65C87.0537 20.3333 87.4787 20.0667 87.8787 19.85C88.2787 19.6333 88.587 19.4917 88.8037 19.425C89.087 19.425 89.2787 19.475 89.3787 19.575C89.4954 19.675 89.687 19.8583 89.9537 20.125C90.0704 20.2417 90.137 20.3917 90.1537 20.575C90.1704 20.7583 90.162 20.9333 90.1287 21.1C90.112 21.1667 90.062 21.3333 89.9787 21.6C89.8954 21.85 89.812 22.0917 89.7287 22.325C89.662 22.5583 89.6287 22.675 89.6287 22.675C89.6287 22.675 89.7204 22.5917 89.9037 22.425C90.1037 22.2583 90.3204 22.0833 90.5537 21.9C90.787 21.7 90.962 21.55 91.0787 21.45C91.7287 20.95 92.2954 20.6333 92.7787 20.5C93.262 20.3667 93.6537 20.5417 93.9537 21.025C94.1537 21.2083 94.2537 21.4083 94.2537 21.625C94.2704 21.8417 94.2787 22.2167 94.2787 22.75C94.2954 22.9667 94.312 23.225 94.3287 23.525C94.3454 23.825 94.362 24.1 94.3787 24.35C94.412 24.5833 94.4454 24.725 94.4787 24.775C94.5287 24.8417 94.6204 24.9 94.7537 24.95C94.9037 24.9833 95.0954 25.0167 95.3287 25.05C95.5787 25.0833 95.7287 25.1917 95.7787 25.375C95.8287 25.5583 95.7204 25.7333 95.4537 25.9C95.2037 26.05 94.9287 26.1167 94.6287 26.1C94.3287 26.0833 94.062 26.0333 93.8287 25.95ZM98.943 27.075C98.2096 27.075 97.6096 26.8 97.143 26.25C96.6763 25.6833 96.4513 24.9833 96.468 24.15C96.5013 23.55 96.618 22.9083 96.818 22.225C97.0346 21.525 97.318 20.8583 97.668 20.225C98.018 19.575 98.4013 19.0083 98.818 18.525C99.2346 18.0417 99.668 17.7 100.118 17.5C100.285 17.4167 100.46 17.35 100.643 17.3C100.843 17.25 101.043 17.225 101.243 17.225C101.426 17.225 101.618 17.2583 101.818 17.325C102.018 17.375 102.185 17.4333 102.318 17.5C102.601 17.6167 102.818 17.7583 102.968 17.925C103.118 18.0917 103.251 18.35 103.368 18.7C103.418 19.0167 103.443 19.2417 103.443 19.375C103.443 19.5083 103.401 19.7083 103.318 19.975C103.118 20.575 102.86 21.0917 102.543 21.525C102.226 21.9583 101.801 22.325 101.268 22.625C101.135 22.7083 100.976 22.775 100.793 22.825C100.626 22.8583 100.451 22.875 100.268 22.875C99.9346 22.875 99.6096 22.8167 99.293 22.7C98.993 22.5667 98.7513 22.375 98.568 22.125L98.393 21.925L98.318 22.125C98.1513 22.575 98.018 22.9917 97.918 23.375C97.8346 23.7583 97.793 24.1083 97.793 24.425C97.793 24.625 97.8096 24.8167 97.843 25C97.893 25.1833 97.9596 25.3417 98.043 25.475C98.1096 25.575 98.218 25.65 98.368 25.7C98.5346 25.7333 98.7096 25.75 98.893 25.75C99.0096 25.75 99.1263 25.75 99.243 25.75C99.3763 25.7333 99.5013 25.7 99.618 25.65C99.9013 25.55 100.126 25.4417 100.293 25.325C100.476 25.2083 100.66 25.0833 100.843 24.95L100.943 24.9H100.918C101.118 24.8 101.293 24.7 101.443 24.6C101.61 24.5 101.693 24.45 101.693 24.45C101.76 24.45 101.826 24.4083 101.893 24.325C102.026 24.2583 102.193 24.2833 102.393 24.4C102.61 24.5167 102.718 24.6667 102.718 24.85C102.701 24.9333 102.626 25.0667 102.493 25.25C102.36 25.4167 102.21 25.575 102.043 25.725C101.893 25.875 101.768 25.9583 101.668 25.975C101.651 25.9917 101.593 26.025 101.493 26.075C101.393 26.1083 101.326 26.1417 101.293 26.175H101.318C101.168 26.375 101.018 26.475 100.868 26.475H100.668C100.601 26.5917 100.385 26.725 100.018 26.875C99.6513 27.0083 99.293 27.075 98.943 27.075ZM100.068 21.575C100.368 21.575 100.626 21.4917 100.843 21.325C101.076 21.1417 101.276 20.9417 101.443 20.725C101.776 20.275 101.968 19.8417 102.018 19.425C102.085 18.9917 102.035 18.6917 101.868 18.525C101.768 18.475 101.676 18.45 101.593 18.45C101.526 18.4333 101.385 18.4583 101.168 18.525C101.018 18.5583 100.81 18.6833 100.543 18.9C100.276 19.1167 100.01 19.3583 99.743 19.625C99.493 19.8917 99.3013 20.1167 99.168 20.3L98.843 20.825C98.9763 20.775 99.1013 20.75 99.218 20.75C99.3513 20.7333 99.4263 20.7417 99.443 20.775C99.443 20.925 99.468 21.0667 99.518 21.2C99.5846 21.3167 99.6596 21.4083 99.743 21.475C99.843 21.5417 99.9513 21.575 100.068 21.575ZM120.007 20.45C119.691 20.5667 119.424 20.625 119.207 20.625C119.007 20.6083 118.782 20.5083 118.532 20.325C118.216 20.025 118.107 19.725 118.207 19.425C118.324 19.1083 118.599 18.8 119.032 18.5C119.332 18.3167 119.549 18.2167 119.682 18.2C119.832 18.1833 120.057 18.2417 120.357 18.375C120.857 18.6917 121.074 19.0417 121.007 19.425C120.957 19.8083 120.624 20.15 120.007 20.45ZM118.257 25.7C117.941 25.8167 117.674 25.875 117.457 25.875C117.257 25.8583 117.032 25.7583 116.782 25.575C116.466 25.275 116.357 24.975 116.457 24.675C116.574 24.3583 116.849 24.05 117.282 23.75C117.582 23.5667 117.799 23.4667 117.932 23.45C118.082 23.4333 118.307 23.4917 118.607 23.625C119.107 23.9417 119.324 24.2917 119.257 24.675C119.207 25.0583 118.874 25.4 118.257 25.7Z" fill="black"/>
<rect x="134.5" y="0.5" width="217" height="37" rx="9.5" stroke="black"/>
</svg>
