<svg width="427" height="49" viewBox="0 0 427 49" fill="none" xmlns="http://www.w3.org/2000/svg">
<rect width="427" height="49" rx="24.5" fill="url(#paint0_linear_39_2)"/>
<path d="M169.923 30.775C169.473 30.4917 169.123 30.0917 168.873 29.575C168.623 29.0417 168.506 28.5083 168.523 27.975C168.506 26.9417 168.59 25.9 168.773 24.85C168.973 23.7833 169.231 22.75 169.548 21.75C169.765 21.15 169.998 20.5333 170.248 19.9C170.515 19.25 170.781 18.6417 171.048 18.075C171.315 17.5083 171.548 17.0583 171.748 16.725C172.265 15.875 172.806 15.175 173.373 14.625C173.956 14.0583 174.39 13.6917 174.673 13.525C174.906 13.3917 175.306 13.2583 175.873 13.125C176.456 12.9917 177.056 13 177.673 13.15C178.106 13.2667 178.506 13.4083 178.873 13.575C179.256 13.7417 179.506 13.8833 179.623 14C179.756 14.2 179.873 14.375 179.973 14.525C180.09 14.6583 180.148 14.825 180.148 15.025C180.165 15.1583 180.115 15.325 179.998 15.525C179.898 15.7083 179.765 15.8417 179.598 15.925C179.448 16.0083 179.298 15.9667 179.148 15.8C178.931 15.4667 178.706 15.2417 178.473 15.125C178.24 14.9917 177.99 14.8583 177.723 14.725C177.54 14.6083 177.29 14.55 176.973 14.55C176.656 14.5333 176.331 14.5667 175.998 14.65C175.665 14.7333 175.373 14.875 175.123 15.075C174.956 15.225 174.74 15.45 174.473 15.75C174.206 16.0333 173.94 16.35 173.673 16.7C173.406 17.05 173.19 17.3917 173.023 17.725C172.573 18.5083 172.165 19.3 171.798 20.1C171.448 20.8833 171.148 21.7417 170.898 22.675C170.831 22.9083 170.74 23.25 170.623 23.7C170.523 24.15 170.423 24.6 170.323 25.05C170.223 25.5 170.156 25.8667 170.123 26.15C170.006 26.9667 169.965 27.6833 169.998 28.3C170.048 28.9167 170.265 29.3417 170.648 29.575C171.031 29.8083 171.665 29.775 172.548 29.475C172.931 29.425 173.34 29.2583 173.773 28.975C174.223 28.6917 174.656 28.3417 175.073 27.925C175.506 27.4917 175.873 27.0333 176.173 26.55C176.456 26.0167 176.706 25.4917 176.923 24.975C177.156 24.4583 177.281 24.0333 177.298 23.7C177.315 23.3667 177.156 23.2083 176.823 23.225C176.206 23.1583 175.706 23.1417 175.323 23.175C174.94 23.1917 174.598 23.1333 174.298 23C174.181 22.8167 174.131 22.6333 174.148 22.45C174.165 22.2667 174.265 22.0833 174.448 21.9C174.631 21.8333 174.94 21.7833 175.373 21.75C175.806 21.7167 176.273 21.7333 176.773 21.8C177.273 21.85 177.715 21.9667 178.098 22.15C178.381 22.2833 178.581 22.4833 178.698 22.75C178.815 23 178.873 23.2917 178.873 23.625C178.873 23.9583 178.84 24.3 178.773 24.65C178.69 25.0167 178.506 25.4583 178.223 25.975C177.956 26.475 177.631 27.0083 177.248 27.575C176.998 27.925 176.648 28.3083 176.198 28.725C175.765 29.1417 175.315 29.5167 174.848 29.85C174.398 30.1833 174.015 30.4083 173.698 30.525C173.031 30.825 172.348 31.0167 171.648 31.1C170.948 31.2 170.373 31.0917 169.923 30.775ZM184.731 29.125C184.381 29.425 183.972 29.6 183.506 29.65C183.056 29.7 182.614 29.6333 182.181 29.45C181.747 29.25 181.389 28.95 181.106 28.55C180.822 28.1833 180.639 27.7667 180.556 27.3C180.472 26.8167 180.464 26.1917 180.531 25.425C180.581 24.775 180.789 24.125 181.156 23.475C181.522 22.8083 181.964 22.2167 182.481 21.7C183.014 21.1833 183.539 20.825 184.056 20.625C184.306 20.4583 184.514 20.3833 184.681 20.4C184.864 20.4 185.139 20.4167 185.506 20.45C185.889 20.5 186.172 20.575 186.356 20.675C186.556 20.775 186.714 20.9083 186.831 21.075C187.081 21.325 187.247 21.575 187.331 21.825C187.414 22.0583 187.456 22.2917 187.456 22.525C187.389 22.8917 187.139 23.3417 186.706 23.875C186.289 24.3917 185.739 24.8167 185.056 25.15C184.689 25.2667 184.289 25.3167 183.856 25.3C183.422 25.2833 183.064 25.175 182.781 24.975C182.464 24.8417 182.256 24.8667 182.156 25.05C182.056 25.2167 181.964 25.6333 181.881 26.3C181.814 26.9333 181.864 27.4 182.031 27.7C182.197 27.9833 182.422 28.15 182.706 28.2C183.039 28.2667 183.297 28.3167 183.481 28.35C183.681 28.3667 183.922 28.2917 184.206 28.125C184.472 27.9583 184.639 27.8667 184.706 27.85C184.772 27.8167 184.822 27.7833 184.856 27.75C184.906 27.7 185.014 27.5917 185.181 27.425C185.297 27.3083 185.389 27.225 185.456 27.175C185.522 27.1083 185.597 27.075 185.681 27.075C185.764 27.075 185.839 27.1167 185.906 27.2C185.972 27.2667 186.039 27.3167 186.106 27.35C186.272 27.35 186.306 27.45 186.206 27.65C186.122 27.85 185.947 28.0917 185.681 28.375C185.414 28.6417 185.097 28.8917 184.731 29.125ZM184.706 23.825C184.889 23.7417 185.081 23.625 185.281 23.475C185.481 23.3083 185.647 23.1333 185.781 22.95C185.931 22.75 186.006 22.5833 186.006 22.45C186.006 22.2167 185.897 22.025 185.681 21.875C185.464 21.7083 185.139 21.6833 184.706 21.8C184.522 21.85 184.314 21.975 184.081 22.175C183.847 22.3583 183.622 22.5667 183.406 22.8C183.206 23.0333 183.039 23.2417 182.906 23.425C182.789 23.6083 182.747 23.7167 182.781 23.75C182.831 23.8333 182.972 23.9 183.206 23.95C183.439 23.9833 183.697 23.9917 183.981 23.975C184.281 23.9583 184.522 23.9083 184.706 23.825ZM190.435 29.825C190.252 29.7917 190.06 29.7 189.86 29.55C189.677 29.3833 189.51 29.2 189.36 29C189.227 28.7833 189.135 28.5917 189.085 28.425C189.085 28.3917 189.06 28.35 189.01 28.3C188.977 28.25 188.96 28.225 188.96 28.225C188.894 28.175 188.852 27.9583 188.835 27.575C188.835 27.175 188.86 26.7333 188.91 26.25C188.96 25.7667 189.019 25.3833 189.085 25.1C189.169 24.8333 189.294 24.475 189.46 24.025C189.627 23.5583 189.769 23.1417 189.885 22.775L190.56 21.325L189.56 21.05C189.444 21.0167 189.344 20.95 189.26 20.85C189.194 20.75 189.16 20.6667 189.16 20.6C189.16 20.4667 189.235 20.3083 189.385 20.125C189.535 19.925 189.644 19.825 189.71 19.825C189.794 19.8417 189.944 19.85 190.16 19.85C190.394 19.85 190.619 19.8417 190.835 19.825C191.052 19.8083 191.185 19.7917 191.235 19.775C191.302 19.7417 191.369 19.7 191.435 19.65C191.502 19.5833 191.552 19.4917 191.585 19.375C191.669 19.1917 191.744 19.025 191.81 18.875C191.877 18.7083 191.969 18.525 192.085 18.325C192.202 18.1083 192.294 17.925 192.36 17.775C192.444 17.625 192.569 17.4167 192.735 17.15C192.819 17.0333 192.91 16.8917 193.01 16.725C193.11 16.5583 193.235 16.4167 193.385 16.3C193.535 16.1667 193.685 16.1083 193.835 16.125C194.002 16.125 194.21 16.2333 194.46 16.45C194.594 16.6167 194.669 16.7417 194.685 16.825C194.702 16.9083 194.635 17.0667 194.485 17.3C194.352 17.5833 194.194 17.8667 194.01 18.15C193.844 18.4333 193.685 18.7167 193.535 19C193.269 19.3667 193.219 19.575 193.385 19.625C193.552 19.675 194.019 19.6417 194.785 19.525C195.269 19.4417 195.619 19.4667 195.835 19.6C196.052 19.7167 196.177 19.9167 196.21 20.2C196.26 20.6 196.219 20.8417 196.085 20.925C195.952 21.0083 195.569 21.05 194.935 21.05C194.535 21.1167 194.194 21.1583 193.91 21.175C193.627 21.175 193.419 21.175 193.285 21.175C193.069 21.1917 192.927 21.2 192.86 21.2C192.794 21.2 192.694 21.2167 192.56 21.25C192.427 21.2833 192.327 21.3417 192.26 21.425C192.21 21.4917 192.152 21.5917 192.085 21.725C192.019 21.7917 191.919 21.9667 191.785 22.25C191.652 22.5333 191.485 22.8417 191.285 23.175C191.052 23.875 190.852 24.575 190.685 25.275C190.519 25.9583 190.385 26.625 190.285 27.275C190.219 27.6917 190.227 27.9833 190.31 28.15C190.394 28.3 190.61 28.3917 190.96 28.425C191.144 28.4417 191.435 28.4417 191.835 28.425C192.252 28.3917 192.577 28.3417 192.81 28.275C192.994 28.1917 193.185 28.1083 193.385 28.025C193.585 27.925 193.769 27.825 193.935 27.725C194.085 27.6417 194.235 27.5583 194.385 27.475C194.535 27.375 194.61 27.325 194.61 27.325C194.694 27.1917 194.785 27.15 194.885 27.2C194.985 27.25 195.069 27.375 195.135 27.575C195.135 27.775 195.094 27.9833 195.01 28.2C194.927 28.4167 194.619 28.675 194.085 28.975C193.335 29.4417 192.644 29.725 192.01 29.825C191.394 29.9083 190.869 29.9083 190.435 29.825ZM205.167 29.775C204.75 29.8083 204.35 29.7833 203.967 29.7C203.6 29.6167 203.283 29.475 203.017 29.275C202.767 29.0583 202.592 28.8 202.492 28.5C202.375 28.2667 202.317 28.1083 202.317 28.025C202.317 27.925 202.375 27.8417 202.492 27.775C202.625 27.775 202.742 27.8167 202.842 27.9C202.958 27.9667 203.108 28.0417 203.292 28.125C203.542 28.3417 203.842 28.4583 204.192 28.475C204.558 28.4917 204.892 28.4333 205.192 28.3C205.492 28.1667 205.658 28 205.692 27.8C205.692 27.7333 205.667 27.6167 205.617 27.45C205.567 27.2833 205.508 27.1083 205.442 26.925C204.992 26.2917 204.658 25.6667 204.442 25.05C204.242 24.4167 204.142 23.9 204.142 23.5C204.142 23.2 204.233 22.8833 204.417 22.55C204.6 22.2 204.85 21.9083 205.167 21.675C205.467 21.3583 205.8 21.075 206.167 20.825C206.533 20.575 206.9 20.3583 207.267 20.175C207.65 19.9917 207.992 19.8583 208.292 19.775C208.475 19.775 208.717 19.8 209.017 19.85C209.317 19.9 209.525 19.9583 209.642 20.025C209.825 20.0917 210 20.275 210.167 20.575C210.333 20.8583 210.417 21.1417 210.417 21.425C210.417 21.5417 210.383 21.6917 210.317 21.875C210.25 22.0583 210.142 22.275 209.992 22.525C209.925 22.7083 209.85 22.8833 209.767 23.05C209.683 23.2 209.642 23.3083 209.642 23.375C209.558 23.5583 209.442 23.65 209.292 23.65C209.158 23.6333 209.017 23.5583 208.867 23.425C208.733 23.275 208.625 23.1 208.542 22.9C208.475 22.65 208.45 22.45 208.467 22.3C208.483 22.1333 208.55 21.9583 208.667 21.775C208.85 21.5917 208.942 21.4667 208.942 21.4C208.942 21.3333 208.85 21.3 208.667 21.3C208.55 21.3 208.333 21.375 208.017 21.525C207.717 21.6583 207.392 21.8417 207.042 22.075C206.708 22.2917 206.417 22.525 206.167 22.775C205.85 23.075 205.658 23.2917 205.592 23.425C205.542 23.5583 205.517 23.7667 205.517 24.05C205.517 24.2833 205.567 24.575 205.667 24.925C205.783 25.275 205.9 25.5083 206.017 25.625C206.017 25.625 206.075 25.7417 206.192 25.975C206.308 26.1917 206.45 26.425 206.617 26.675C207.1 27.7417 207.225 28.5083 206.992 28.975C206.758 29.4417 206.15 29.7083 205.167 29.775ZM213.562 31.25C213.012 31.1667 212.637 30.9583 212.437 30.625C212.254 30.3083 212.212 29.8167 212.312 29.15C212.412 28.8333 212.47 28.55 212.487 28.3C212.52 28.0333 212.595 27.8667 212.712 27.8C212.712 27.8 212.72 27.775 212.737 27.725C212.77 27.675 212.762 27.625 212.712 27.575C212.712 27.3583 212.787 27.0583 212.937 26.675C212.97 26.575 213.012 26.4583 213.062 26.325C213.129 26.175 213.162 26.1 213.162 26.1C213.079 25.9667 213.079 25.8583 213.162 25.775C213.245 25.6917 213.329 25.6167 213.412 25.55C213.512 25.4667 213.52 25.375 213.437 25.275C213.404 25.2083 213.445 25.0583 213.562 24.825C213.679 24.575 213.812 24.3167 213.962 24.05C214.112 23.7833 214.212 23.575 214.262 23.425C214.262 23.3917 214.304 23.275 214.387 23.075C214.47 22.875 214.57 22.6417 214.687 22.375C214.804 22.1083 214.912 21.8667 215.012 21.65C215.129 21.4333 215.204 21.2917 215.237 21.225C215.404 21.1417 215.337 21.0833 215.037 21.05C214.737 21.0167 214.42 21.0083 214.087 21.025C213.57 21.0083 213.154 20.9833 212.837 20.95C212.537 20.9167 212.287 20.8417 212.087 20.725C211.887 20.4917 211.812 20.325 211.862 20.225C211.929 20.1083 212.129 20.0417 212.462 20.025C212.679 20.0083 212.845 20 212.962 20C213.095 20 213.262 19.9917 213.462 19.975C213.679 19.9417 214.012 19.9 214.462 19.85L215.737 19.75L215.812 19.325C215.945 19.1083 216.054 18.9167 216.137 18.75C216.237 18.5667 216.32 18.3833 216.387 18.2C216.454 18.0167 216.504 17.825 216.537 17.625C216.537 17.625 216.612 17.4917 216.762 17.225C216.912 16.9417 217.004 16.65 217.037 16.35C217.237 16.0167 217.412 15.7167 217.562 15.45C217.712 15.1667 217.804 14.9917 217.837 14.925C218.02 14.775 218.145 14.7 218.212 14.7C218.295 14.7 218.462 14.7833 218.712 14.95C218.862 15.0333 218.995 15.1333 219.112 15.25C219.229 15.3667 219.304 15.4917 219.337 15.625C219.37 15.7417 219.32 15.8583 219.187 15.975C219.154 16.0417 219.104 16.1667 219.037 16.35C218.97 16.5167 218.92 16.6583 218.887 16.775C218.787 16.8917 218.662 17.0833 218.512 17.35C218.379 17.6 218.287 17.8583 218.237 18.125C218.104 18.4083 217.979 18.6667 217.862 18.9C217.745 19.1167 217.654 19.225 217.587 19.225C217.62 19.3917 217.72 19.475 217.887 19.475C218.054 19.4583 218.329 19.4417 218.712 19.425C219.029 19.3917 219.245 19.3583 219.362 19.325C219.495 19.275 219.645 19.2917 219.812 19.375C219.895 19.4917 219.962 19.625 220.012 19.775C220.062 19.925 220.07 20.0667 220.037 20.2C220.02 20.3167 219.954 20.4 219.837 20.45C219.754 20.45 219.579 20.5 219.312 20.6C219.062 20.6833 218.745 20.7333 218.362 20.75L217.037 20.875L216.612 21.725C216.495 21.9417 216.395 22.1417 216.312 22.325C216.229 22.4917 216.17 22.5917 216.137 22.625C216.137 22.725 216.079 22.875 215.962 23.075C215.862 23.275 215.754 23.4917 215.637 23.725C215.537 24.0083 215.42 24.2667 215.287 24.5C215.17 24.7333 215.112 24.85 215.112 24.85C215.045 24.85 215.012 24.9 215.012 25C215.095 25.2 215.07 25.35 214.937 25.45C214.854 25.5 214.779 25.575 214.712 25.675C214.662 25.7583 214.637 25.8 214.637 25.8C214.704 25.8667 214.712 25.95 214.662 26.05C214.629 26.15 214.579 26.2583 214.512 26.375C214.512 26.5083 214.47 26.7 214.387 26.95C214.32 27.2 214.245 27.4333 214.162 27.65C214.179 27.95 214.195 28.1417 214.212 28.225C214.229 28.3083 214.27 28.3417 214.337 28.325C214.42 28.3417 214.495 28.3417 214.562 28.325C214.629 28.3083 214.695 28.3 214.762 28.3C214.995 28.2 214.87 28.7833 214.387 30.05C214.12 30.4667 213.937 30.7667 213.837 30.95C213.737 31.15 213.645 31.25 213.562 31.25ZM221.713 29.275C221.58 29.3083 221.405 29.325 221.188 29.325C220.972 29.3083 220.78 29.2833 220.613 29.25C220.463 29.2 220.388 29.15 220.388 29.1C220.388 29.0167 220.347 28.975 220.263 28.975C220.263 28.975 220.222 28.9417 220.138 28.875C220.072 28.8083 219.963 28.7417 219.813 28.675C219.663 28.4417 219.588 28.1917 219.588 27.925C219.588 27.6417 219.663 27.2 219.813 26.6C219.863 26.1833 220.022 25.7 220.288 25.15C220.572 24.5833 220.913 24.0083 221.313 23.425C221.713 22.8417 222.13 22.3167 222.563 21.85C223.013 21.3833 223.422 21.0417 223.788 20.825C224.022 20.5917 224.305 20.4667 224.638 20.45C224.972 20.4333 225.288 20.5083 225.588 20.675C225.755 20.7583 225.922 20.8917 226.088 21.075C226.255 21.2583 226.413 21.4583 226.563 21.675C226.713 21.8917 226.838 22.1083 226.938 22.325C226.988 22.5083 227.013 22.675 227.013 22.825C227.03 22.9583 227.03 23.125 227.013 23.325C227.013 23.525 226.988 23.825 226.938 24.225C226.855 24.525 226.78 24.8917 226.713 25.325C226.663 25.7583 226.638 26.1333 226.638 26.45C226.605 26.7667 226.638 26.9917 226.738 27.125C226.855 27.2583 227.022 27.2667 227.238 27.15C227.438 27.05 227.63 27.0083 227.813 27.025C227.997 27.025 228.138 27.075 228.238 27.175C228.355 27.275 228.413 27.425 228.413 27.625C228.413 27.825 228.313 28.0333 228.113 28.25C227.93 28.45 227.697 28.625 227.413 28.775C227.147 28.9083 226.888 28.975 226.638 28.975C226.455 28.975 226.28 28.8667 226.113 28.65C225.947 28.4167 225.797 28.1417 225.663 27.825C225.547 27.4917 225.438 27.175 225.338 26.875L225.188 26.3L224.113 27.325C223.897 27.5583 223.68 27.775 223.463 27.975C223.263 28.1583 223.138 28.2917 223.088 28.375C223.005 28.525 222.847 28.675 222.613 28.825C222.397 28.975 222.097 29.125 221.713 29.275ZM221.788 27.8C222.072 27.6333 222.397 27.3917 222.763 27.075C223.13 26.7417 223.488 26.3833 223.838 26C224.188 25.6 224.48 25.2333 224.713 24.9C224.997 24.5167 225.213 24.1583 225.363 23.825C225.513 23.4917 225.622 23.175 225.688 22.875C225.622 22.6917 225.513 22.5 225.363 22.3C225.213 22.0833 225.08 21.9667 224.963 21.95C224.597 21.95 224.205 22.1833 223.788 22.65C223.388 23.1 222.997 23.5917 222.613 24.125C222.547 24.2083 222.455 24.3417 222.338 24.525C222.222 24.7083 222.105 24.8833 221.988 25.05C221.888 25.2 221.822 25.3 221.788 25.35C221.738 25.4167 221.638 25.6083 221.488 25.925C221.355 26.225 221.222 26.5333 221.088 26.85C220.955 27.15 220.888 27.35 220.888 27.45C220.888 27.55 220.897 27.6583 220.913 27.775C220.947 27.8917 221.03 27.9667 221.163 28C221.297 28.0333 221.505 27.9667 221.788 27.8ZM230.098 29.125C229.948 29.0083 229.839 28.8917 229.773 28.775C229.723 28.6583 229.723 28.4333 229.773 28.1C229.823 27.6333 229.889 27.225 229.973 26.875C230.056 26.5083 230.156 26.0917 230.273 25.625C230.306 25.425 230.398 25.0833 230.548 24.6C230.714 24.1167 230.914 23.5917 231.148 23.025C231.381 22.4583 231.614 21.925 231.848 21.425C232.081 20.9083 232.281 20.525 232.448 20.275C232.581 20.175 232.739 20.1333 232.923 20.15C233.123 20.1667 233.289 20.2417 233.423 20.375C233.606 20.525 233.631 20.7917 233.498 21.175C233.381 21.5417 233.131 22.125 232.748 22.925C232.548 23.375 232.398 23.7167 232.298 23.95C232.198 24.1667 232.156 24.3 232.173 24.35C232.189 24.3833 232.264 24.3583 232.398 24.275C232.498 24.0917 232.681 23.8833 232.948 23.65C233.214 23.4 233.498 23.1583 233.798 22.925C234.098 22.6917 234.381 22.4833 234.648 22.3C234.914 22.1167 235.098 22 235.198 21.95C235.331 21.8667 235.481 21.8 235.648 21.75C235.831 21.6833 235.956 21.6333 236.023 21.6C236.406 21.4167 236.798 21.35 237.198 21.4C237.598 21.45 237.848 21.6 237.948 21.85C237.964 21.9833 238.014 22.0833 238.098 22.15C238.198 22.2167 238.248 22.25 238.248 22.25C238.314 22.25 238.348 22.275 238.348 22.325C238.364 22.375 238.373 22.4 238.373 22.4C238.373 22.5167 238.281 22.5917 238.098 22.625C237.931 22.6417 237.714 22.6583 237.448 22.675C237.231 22.6917 237.039 22.7333 236.873 22.8C236.706 22.8667 236.506 22.95 236.273 23.05C235.639 23.4167 235.031 23.775 234.448 24.125C233.881 24.475 233.331 24.9417 232.798 25.525C232.681 25.6583 232.564 25.8167 232.448 26C232.331 26.1833 232.206 26.3833 232.073 26.6C231.989 26.6833 231.906 26.8667 231.823 27.15C231.739 27.4333 231.664 27.7083 231.598 27.975C231.548 28.225 231.523 28.375 231.523 28.425C231.523 28.425 231.498 28.5083 231.448 28.675C231.398 28.825 231.314 28.975 231.198 29.125C230.998 29.3917 230.831 29.525 230.698 29.525C230.564 29.525 230.364 29.3917 230.098 29.125ZM241.756 29.95C241.523 29.8833 241.331 29.8083 241.181 29.725C241.031 29.625 240.831 29.4667 240.581 29.25C240.381 28.9833 240.223 28.7333 240.106 28.5C240.006 28.2667 239.94 28 239.906 27.7C239.873 27.3833 239.856 26.9833 239.856 26.5C239.856 26.3 239.89 26 239.956 25.6C240.04 25.2 240.131 24.7833 240.231 24.35C240.348 23.9 240.448 23.5 240.531 23.15C240.631 22.8 240.69 22.575 240.706 22.475C240.756 22.2583 240.673 22.1333 240.456 22.1C240.24 22.0667 239.998 22.0583 239.731 22.075C239.481 22.075 239.315 22.05 239.231 22C239.165 21.9833 239.131 21.9583 239.131 21.925C239.131 21.875 239.131 21.85 239.131 21.85C239.131 21.7833 239.123 21.7417 239.106 21.725C239.106 21.6917 239.081 21.6333 239.031 21.55C238.998 21.4833 239.015 21.3917 239.081 21.275C239.165 21.1417 239.298 21.0583 239.481 21.025C239.631 20.9917 239.831 20.9667 240.081 20.95C240.348 20.9167 240.615 20.8583 240.881 20.775C241.148 20.675 241.365 20.525 241.531 20.325C241.681 19.9583 241.856 19.55 242.056 19.1C242.256 18.65 242.448 18.25 242.631 17.9C242.831 17.5333 242.965 17.3083 243.031 17.225C243.315 17.075 243.523 17.0167 243.656 17.05C243.79 17.0667 243.94 17.2083 244.106 17.475C244.19 17.5917 244.248 17.6833 244.281 17.75C244.331 17.8167 244.34 17.9167 244.306 18.05C244.273 18.1833 244.181 18.3917 244.031 18.675C243.898 18.9583 243.69 19.3667 243.406 19.9C243.323 20.0667 243.248 20.2167 243.181 20.35C243.115 20.4667 243.081 20.525 243.081 20.525C243.148 20.5417 243.248 20.55 243.381 20.55C243.515 20.55 243.681 20.5417 243.881 20.525C244.065 20.4917 244.298 20.4667 244.581 20.45C244.865 20.4167 245.09 20.4167 245.256 20.45C245.64 20.45 245.923 20.525 246.106 20.675C246.29 20.8083 246.39 21.0417 246.406 21.375C246.44 21.5583 246.398 21.6667 246.281 21.7C246.181 21.7333 245.906 21.75 245.456 21.75C245.306 21.75 245.073 21.7583 244.756 21.775C244.44 21.7917 244.106 21.8083 243.756 21.825C243.423 21.8417 243.131 21.8667 242.881 21.9C242.648 21.9167 242.531 21.9417 242.531 21.975C242.481 22.0083 242.398 22.1667 242.281 22.45C242.181 22.7333 242.073 23.0583 241.956 23.425C241.856 23.775 241.765 24.0917 241.681 24.375C241.565 24.9417 241.473 25.5083 241.406 26.075C241.356 26.6417 241.348 27.1333 241.381 27.55C241.415 27.9667 241.506 28.2583 241.656 28.425C241.806 28.575 242.098 28.6083 242.531 28.525C242.965 28.425 243.315 28.2667 243.581 28.05C243.881 27.8 244.123 27.675 244.306 27.675C244.506 27.675 244.615 27.7667 244.631 27.95C244.665 28.1167 244.573 28.3583 244.356 28.675C244.156 28.975 243.906 29.2417 243.606 29.475C243.306 29.6917 242.99 29.85 242.656 29.95C242.34 30.0333 242.04 30.0333 241.756 29.95ZM248.658 29.4C248.008 29.1333 247.583 28.7667 247.383 28.3C247.199 27.8167 247.166 27.075 247.283 26.075C247.316 25.5583 247.333 25.2167 247.333 25.05C247.333 24.8833 247.241 24.7167 247.058 24.55C247.008 24.4833 246.916 24.3917 246.783 24.275C246.666 24.1583 246.616 24.0583 246.633 23.975C246.616 23.8583 246.624 23.7333 246.658 23.6C246.691 23.45 246.741 23.375 246.808 23.375C246.874 23.375 246.941 23.3583 247.008 23.325C247.091 23.2917 247.166 23.2917 247.233 23.325C247.299 23.325 247.374 23.3333 247.458 23.35C247.541 23.3667 247.583 23.4083 247.583 23.475C247.649 23.5917 247.758 23.6083 247.908 23.525C248.058 23.425 248.216 23.2083 248.383 22.875C248.549 22.6083 248.766 22.3417 249.033 22.075C249.316 21.8083 249.591 21.5667 249.858 21.35C250.141 21.1167 250.374 20.95 250.558 20.85C250.641 20.8167 250.766 20.775 250.933 20.725C251.099 20.675 251.274 20.6333 251.458 20.6C251.658 20.5667 251.824 20.5583 251.958 20.575C252.258 20.5917 252.508 20.675 252.708 20.825C252.924 20.975 253.124 21.15 253.308 21.35C253.524 21.5 253.658 21.7 253.708 21.95C253.774 22.2 253.791 22.4667 253.758 22.75C253.724 23.0333 253.649 23.2917 253.533 23.525C253.483 23.6917 253.341 23.8917 253.108 24.125C252.874 24.3583 252.608 24.5833 252.308 24.8C252.008 25.0167 251.733 25.175 251.483 25.275C251.266 25.325 250.983 25.3667 250.633 25.4C250.299 25.4333 249.983 25.45 249.683 25.45C249.399 25.4333 249.208 25.4 249.108 25.35C248.991 25.2833 248.899 25.375 248.833 25.625C248.766 25.875 248.716 26.2333 248.683 26.7C248.649 27.0667 248.649 27.3333 248.683 27.5C248.716 27.6667 248.749 27.7833 248.783 27.85C248.899 27.9667 249.058 28.1167 249.258 28.3C249.474 28.4667 249.774 28.4917 250.158 28.375C250.474 28.2917 250.783 28.075 251.083 27.725C251.399 27.375 251.691 27.0917 251.958 26.875C252.024 26.7583 252.133 26.6917 252.283 26.675C252.449 26.6417 252.624 26.65 252.808 26.7C252.991 26.8167 253.066 26.9583 253.033 27.125C253.016 27.275 252.933 27.5083 252.783 27.825C252.733 27.9417 252.616 28.0917 252.433 28.275C252.266 28.4417 252.074 28.6167 251.858 28.8C251.658 28.9667 251.474 29.1 251.308 29.2C250.808 29.4667 250.341 29.6083 249.908 29.625C249.474 29.625 249.058 29.55 248.658 29.4ZM250.133 24.325C250.499 24.2417 250.791 24.1833 251.008 24.15C251.224 24.1167 251.433 24.025 251.633 23.875C251.833 23.7083 252.083 23.4 252.383 22.95C252.449 22.7667 252.466 22.5833 252.433 22.4C252.416 22.2167 252.374 22.0917 252.308 22.025C252.158 21.8583 251.974 21.8083 251.758 21.875C251.558 21.925 251.366 22.0167 251.183 22.15C251.066 22.2 250.891 22.325 250.658 22.525C250.441 22.7083 250.224 22.925 250.008 23.175C249.791 23.4083 249.616 23.625 249.483 23.825C249.349 24.025 249.316 24.1417 249.383 24.175C249.349 24.2417 249.441 24.2833 249.658 24.3C249.891 24.3167 250.049 24.325 250.133 24.325ZM260.613 29.925C260.429 29.9917 260.296 30.0167 260.213 30C260.146 29.9667 259.971 29.8417 259.688 29.625C259.571 29.425 259.496 29.25 259.463 29.1C259.446 28.9333 259.438 28.6417 259.438 28.225C259.471 27.975 259.538 27.6167 259.638 27.15C259.754 26.6833 259.888 26.1917 260.038 25.675C260.188 25.1583 260.321 24.6917 260.438 24.275C260.571 23.8583 260.671 23.575 260.738 23.425C260.854 23.025 260.879 22.7833 260.813 22.7C260.746 22.6 260.546 22.5333 260.213 22.5C259.546 22.4167 258.946 22.6333 258.413 23.15C257.879 23.6667 257.346 24.3417 256.813 25.175C256.413 25.7917 256.171 26.325 256.088 26.775C256.021 27.2083 256.013 27.5083 256.063 27.675C256.113 27.8083 256.229 27.8833 256.413 27.9C256.596 27.9 256.796 27.8583 257.013 27.775C257.246 27.6917 257.446 27.6083 257.613 27.525C257.729 27.4583 257.871 27.3917 258.038 27.325C258.221 27.2417 258.396 27.1667 258.563 27.1C258.663 27.1 258.729 27.1333 258.763 27.2C258.813 27.25 258.838 27.3583 258.838 27.525C258.838 27.5917 258.863 27.65 258.913 27.7C258.963 27.75 259.021 27.7917 259.088 27.825C259.154 27.8917 259.054 28.0417 258.788 28.275C258.538 28.5083 258.146 28.775 257.613 29.075C257.113 29.1917 256.704 29.25 256.388 29.25C256.088 29.25 255.796 29.1417 255.513 28.925C255.046 28.6417 254.779 28.1833 254.713 27.55C254.663 26.9 254.796 26.1083 255.113 25.175C255.429 24.425 255.779 23.8167 256.163 23.35C256.546 22.8667 256.954 22.4 257.388 21.95C257.454 21.8833 257.604 21.7833 257.838 21.65C258.088 21.5 258.396 21.3667 258.763 21.25C259.179 21.1167 259.571 21.0333 259.938 21C260.304 20.9667 260.621 21.0417 260.888 21.225C261.188 21.2917 261.379 21.2833 261.463 21.2C261.546 21.1 261.688 20.8 261.888 20.3C262.221 19.4667 262.546 18.625 262.863 17.775C263.179 16.9083 263.521 16.0333 263.888 15.15C264.054 14.8333 264.154 14.5917 264.188 14.425C264.238 14.2417 264.296 14.1167 264.363 14.05H264.838C264.904 14.05 265.021 14.1083 265.188 14.225C265.354 14.3417 265.471 14.5 265.538 14.7C265.538 14.85 265.471 15.1833 265.338 15.7C265.204 16.2 264.988 16.8 264.688 17.5C264.421 18.1167 264.154 18.7417 263.888 19.375C263.638 19.9917 263.396 20.65 263.163 21.35C262.979 21.8667 262.813 22.2833 262.663 22.6C262.513 22.9167 262.413 23.1917 262.363 23.425C262.263 23.8583 262.138 24.25 261.988 24.6C261.854 24.9333 261.763 25.1667 261.713 25.3C261.496 25.9333 261.321 26.45 261.188 26.85C261.054 27.2333 260.954 27.5583 260.888 27.825C260.821 28.075 260.779 28.3333 260.763 28.6C260.763 28.85 260.788 29.15 260.838 29.5C260.838 29.5667 260.829 29.6333 260.813 29.7C260.796 29.7667 260.729 29.8417 260.613 29.925Z" fill="#060959"/>
<defs>
<linearGradient id="paint0_linear_39_2" x1="0" y1="24.5" x2="427" y2="24.5" gradientUnits="userSpaceOnUse">
<stop stop-color="#14FC00"/>
<stop offset="0.374031" stop-color="#00F0FF"/>
<stop offset="0.619467" stop-color="#00FFD1"/>
<stop offset="1" stop-color="#FF0000"/>
</linearGradient>
</defs>
</svg>
