<svg width="1440" height="105" viewBox="0 0 1440 105" fill="none" xmlns="http://www.w3.org/2000/svg">
<rect width="1440" height="105" fill="#881C70" fill-opacity="0.29"/>
<path d="M51.7578 51.0352H69.2383V53.457H51.7578V51.0352ZM121.133 41.2891C120.378 41.2891 119.648 41.2174 118.945 41.0742C118.242 40.918 117.624 40.6771 117.09 40.3516C116.556 40.013 116.126 39.5833 115.801 39.0625C115.475 38.5417 115.312 37.9036 115.312 37.1484C115.312 36.3932 115.475 35.7552 115.801 35.2344C116.126 34.7005 116.556 34.2708 117.09 33.9453C117.624 33.6068 118.242 33.3659 118.945 33.2227C119.648 33.0664 120.378 32.9883 121.133 32.9883C121.875 32.9883 122.598 33.0664 123.301 33.2227C124.004 33.3659 124.622 33.6068 125.156 33.9453C125.69 34.2708 126.12 34.694 126.445 35.2148C126.771 35.7357 126.934 36.3737 126.934 37.1289C126.934 37.8841 126.771 38.5286 126.445 39.0625C126.12 39.5833 125.69 40.013 125.156 40.3516C124.622 40.6771 124.004 40.918 123.301 41.0742C122.598 41.2174 121.875 41.2891 121.133 41.2891ZM112.109 63.5938H115.527V44.668H112.109V43.2617H127.148V63.5938H130.566V65H112.109V63.5938ZM174.414 41.2891C173.659 41.2891 172.93 41.2174 172.227 41.0742C171.523 40.918 170.905 40.6771 170.371 40.3516C169.837 40.013 169.408 39.5833 169.082 39.0625C168.757 38.5417 168.594 37.9036 168.594 37.1484C168.594 36.3932 168.757 35.7552 169.082 35.2344C169.408 34.7005 169.837 34.2708 170.371 33.9453C170.905 33.6068 171.523 33.3659 172.227 33.2227C172.93 33.0664 173.659 32.9883 174.414 32.9883C175.156 32.9883 175.879 33.0664 176.582 33.2227C177.285 33.3659 177.904 33.6068 178.438 33.9453C178.971 34.2708 179.401 34.694 179.727 35.2148C180.052 35.7357 180.215 36.3737 180.215 37.1289C180.215 37.8841 180.052 38.5286 179.727 39.0625C179.401 39.5833 178.971 40.013 178.438 40.3516C177.904 40.6771 177.285 40.918 176.582 41.0742C175.879 41.2174 175.156 41.2891 174.414 41.2891ZM165.391 63.5938H168.809V44.668H165.391V43.2617H180.43V63.5938H183.848V65H165.391V63.5938ZM223.398 63.5938H226.816V44.668H223.398V43.2617H238.438V45.7617C238.854 45.2539 239.349 44.8047 239.922 44.4141C240.495 44.0104 241.126 43.6719 241.816 43.3984C242.52 43.112 243.268 42.8971 244.062 42.7539C244.87 42.5977 245.703 42.5195 246.562 42.5195C247.461 42.5195 248.268 42.6302 248.984 42.8516C249.701 43.0729 250.312 43.3789 250.82 43.7695C251.328 44.1471 251.712 44.6029 251.973 45.1367C252.246 45.6576 252.383 46.224 252.383 46.8359C252.383 47.4219 252.233 47.9753 251.934 48.4961C251.647 49.0169 251.243 49.4727 250.723 49.8633C250.215 50.2539 249.616 50.5664 248.926 50.8008C248.236 51.0221 247.5 51.1328 246.719 51.1328C245.938 51.1328 245.202 51.0221 244.512 50.8008C243.822 50.5664 243.216 50.2539 242.695 49.8633C242.188 49.4727 241.784 49.0169 241.484 48.4961C241.185 47.9753 241.035 47.4219 241.035 46.8359C241.035 46.5365 241.074 46.2435 241.152 45.957C241.243 45.6576 241.361 45.3776 241.504 45.1172C241.23 45.2474 240.911 45.4492 240.547 45.7227C240.195 45.9831 239.863 46.3086 239.551 46.6992C239.238 47.0898 238.971 47.5456 238.75 48.0664C238.542 48.5742 238.438 49.1276 238.438 49.7266V63.5938H242.227V65H223.398V63.5938Z" fill="white"/>
<path d="M72.9492 63.457H76.3672V38.8477H72.9492V37.3242H94.7266C96.7969 37.3242 98.6654 37.6367 100.332 38.2617C101.999 38.8737 103.418 39.7721 104.59 40.957C105.762 42.1419 106.66 43.5938 107.285 45.3125C107.923 47.0182 108.242 48.9648 108.242 51.1523C108.242 53.3529 107.923 55.3125 107.285 57.0312C106.66 58.75 105.762 60.2018 104.59 61.3867C103.418 62.5586 101.999 63.457 100.332 64.082C98.6654 64.694 96.7969 65 94.7266 65H72.9492V63.457ZM89.8438 63.457C90.4557 63.457 91.0091 63.3984 91.5039 63.2812C92.0117 63.151 92.4544 62.9167 92.832 62.5781C93.2096 62.2396 93.5352 61.7839 93.8086 61.2109C94.082 60.625 94.3034 59.8763 94.4727 58.9648C94.6549 58.0534 94.7852 56.9596 94.8633 55.6836C94.9544 54.3945 95 52.8841 95 51.1523C95 49.4206 94.9544 47.9167 94.8633 46.6406C94.7852 45.3646 94.6549 44.2708 94.4727 43.3594C94.3034 42.4479 94.082 41.6992 93.8086 41.1133C93.5352 40.5273 93.2096 40.0716 92.832 39.7461C92.4544 39.4076 92.0117 39.1732 91.5039 39.043C91.0091 38.9128 90.4557 38.8477 89.8438 38.8477V63.457Z" fill="#FE0101"/>
<path d="M132.871 69.3555C132.871 68.7305 133.19 68.1185 133.828 67.5195C134.479 66.9206 135.547 66.3607 137.031 65.8398C134.974 64.7461 133.945 63.138 133.945 61.0156C133.945 60.3906 134.043 59.7852 134.238 59.1992C134.434 58.6003 134.733 58.0404 135.137 57.5195C135.553 56.9987 136.074 56.5365 136.699 56.1328C137.337 55.7292 138.086 55.4036 138.945 55.1562C137.526 54.5443 136.452 53.763 135.723 52.8125C134.993 51.849 134.629 50.7487 134.629 49.5117C134.629 48.5872 134.876 47.7018 135.371 46.8555C135.879 46.0091 136.641 45.2669 137.656 44.6289C138.672 43.9779 139.954 43.4635 141.504 43.0859C143.053 42.7083 144.876 42.5195 146.973 42.5195C148.066 42.5195 149.082 42.5716 150.02 42.6758C150.97 42.7799 151.855 42.9297 152.676 43.125C153.092 42.4089 153.594 41.7969 154.18 41.2891C154.766 40.7812 155.404 40.3646 156.094 40.0391C156.797 39.7135 157.539 39.4727 158.32 39.3164C159.102 39.1602 159.896 39.082 160.703 39.082C161.263 39.082 161.784 39.1667 162.266 39.3359C162.747 39.4922 163.164 39.707 163.516 39.9805C163.88 40.2539 164.167 40.5729 164.375 40.9375C164.583 41.3021 164.688 41.6927 164.688 42.1094C164.688 42.526 164.583 42.9167 164.375 43.2812C164.167 43.6458 163.88 43.9648 163.516 44.2383C163.164 44.5117 162.747 44.7331 162.266 44.9023C161.784 45.0586 161.263 45.1367 160.703 45.1367C160.156 45.1367 159.635 45.0586 159.141 44.9023C158.659 44.7331 158.236 44.5117 157.871 44.2383C157.507 43.9648 157.22 43.6458 157.012 43.2812C156.803 42.9167 156.699 42.526 156.699 42.1094C156.699 41.7708 156.777 41.4323 156.934 41.0938C156.374 41.3281 155.84 41.6471 155.332 42.0508C154.837 42.4544 154.414 42.9492 154.062 43.5352C155.781 44.1211 157.083 44.9284 157.969 45.957C158.867 46.9727 159.316 48.1576 159.316 49.5117C159.316 50.5664 159.043 51.5234 158.496 52.3828C157.949 53.2422 157.148 53.9779 156.094 54.5898C155.052 55.2018 153.763 55.6771 152.227 56.0156C150.69 56.3411 148.939 56.5039 146.973 56.5039C144.499 56.5039 142.383 56.25 140.625 55.7422C139.883 55.8854 139.362 56.0872 139.062 56.3477C138.776 56.6081 138.633 56.875 138.633 57.1484C138.633 57.3307 138.698 57.513 138.828 57.6953C138.958 57.8776 139.206 58.0404 139.57 58.1836C139.948 58.3268 140.462 58.4505 141.113 58.5547C141.764 58.6458 142.617 58.6914 143.672 58.6914H151.523C152.956 58.6914 154.277 58.8151 155.488 59.0625C156.699 59.2969 157.741 59.694 158.613 60.2539C159.499 60.8008 160.189 61.5365 160.684 62.4609C161.178 63.3854 161.426 64.5312 161.426 65.8984C161.426 67.0703 161.159 68.125 160.625 69.0625C160.104 70.013 159.245 70.8203 158.047 71.4844C156.862 72.1484 155.306 72.6562 153.379 73.0078C151.452 73.3594 149.095 73.5352 146.309 73.5352C143.887 73.5352 141.823 73.4245 140.117 73.2031C138.424 72.9818 137.038 72.6823 135.957 72.3047C134.889 71.9271 134.108 71.4844 133.613 70.9766C133.118 70.4688 132.871 69.9284 132.871 69.3555ZM146.973 55.293C147.467 55.293 147.878 55.1888 148.203 54.9805C148.542 54.7591 148.809 54.4206 149.004 53.9648C149.199 53.4961 149.336 52.8971 149.414 52.168C149.492 51.4388 149.531 50.5534 149.531 49.5117C149.531 48.4701 149.492 47.5846 149.414 46.8555C149.336 46.1263 149.199 45.5339 149.004 45.0781C148.809 44.6094 148.542 44.2708 148.203 44.0625C147.878 43.8411 147.467 43.7305 146.973 43.7305C146.478 43.7305 146.061 43.8411 145.723 44.0625C145.397 44.2708 145.137 44.6094 144.941 45.0781C144.746 45.5339 144.603 46.1263 144.512 46.8555C144.434 47.5846 144.395 48.4701 144.395 49.5117C144.395 50.5534 144.434 51.4388 144.512 52.168C144.603 52.8971 144.746 53.4961 144.941 53.9648C145.137 54.4206 145.397 54.7591 145.723 54.9805C146.061 55.1888 146.478 55.293 146.973 55.293ZM135.996 69.1602C135.996 69.3555 136.035 69.5638 136.113 69.7852C136.204 70.0065 136.374 70.2279 136.621 70.4492C136.882 70.6706 137.24 70.8789 137.695 71.0742C138.164 71.2695 138.783 71.4453 139.551 71.6016C140.319 71.7578 141.257 71.8815 142.363 71.9727C143.47 72.0638 144.792 72.1094 146.328 72.1094C148.164 72.1094 149.792 72.0312 151.211 71.875C152.63 71.7188 153.822 71.5039 154.785 71.2305C155.762 70.9701 156.497 70.651 156.992 70.2734C157.5 69.9089 157.754 69.5117 157.754 69.082C157.754 68.457 157.292 68.0013 156.367 67.7148C155.443 67.4414 154.108 67.3047 152.363 67.3047H144.609C143.438 67.3047 142.363 67.2396 141.387 67.1094C140.41 66.9792 139.518 66.7904 138.711 66.543C137.708 66.9596 137.005 67.3828 136.602 67.8125C136.198 68.2552 135.996 68.7044 135.996 69.1602Z" fill="#0500FF"/>
<path d="M184.59 63.457C185.645 63.457 186.452 63.3854 187.012 63.2422C187.585 63.099 187.949 62.8385 188.105 62.4609L198.164 37.3242H206.738L218.516 63.457H221.914V65H199.766V63.457H203.535L200.84 56.7188H192.246L189.961 62.4023C189.948 62.4414 189.941 62.4935 189.941 62.5586C189.941 62.7409 190.026 62.8906 190.195 63.0078C190.378 63.112 190.625 63.2031 190.938 63.2812C191.263 63.3464 191.641 63.3919 192.07 63.418C192.513 63.444 192.995 63.457 193.516 63.457V65H184.59V63.457ZM200.234 55.1758L196.465 45.957L192.852 55.1758H200.234Z" fill="#05FF00"/>
<path d="M256.641 44.668H253.223V43.2617H256.641C257.956 43.2617 259.134 43.0404 260.176 42.5977C261.23 42.1419 262.122 41.556 262.852 40.8398C263.594 40.1107 264.16 39.2969 264.551 38.3984C264.941 37.5 265.137 36.6016 265.137 35.7031H268.262V43.2617H274.551V44.668H268.262V56.6992C268.262 58.0924 268.333 59.2318 268.477 60.1172C268.633 60.9896 268.848 61.6732 269.121 62.168C269.408 62.6628 269.74 63.0013 270.117 63.1836C270.508 63.3529 270.938 63.4375 271.406 63.4375C271.862 63.4375 272.305 63.3398 272.734 63.1445C273.164 62.9362 273.542 62.6107 273.867 62.168C274.193 61.7122 274.453 61.1263 274.648 60.4102C274.844 59.681 274.941 58.7891 274.941 57.7344C274.941 57.487 274.935 57.2331 274.922 56.9727C274.909 56.6992 274.889 56.4193 274.863 56.1328H276.504C276.543 56.7839 276.562 57.3763 276.562 57.9102C276.562 59.5378 276.335 60.8659 275.879 61.8945C275.436 62.9102 274.798 63.7044 273.965 64.2773C273.132 64.8503 272.116 65.2409 270.918 65.4492C269.733 65.6576 268.398 65.7617 266.914 65.7617C265.247 65.7617 263.776 65.599 262.5 65.2734C261.224 64.9479 260.15 64.4336 259.277 63.7305C258.405 63.0143 257.747 62.0964 257.305 60.9766C256.862 59.8568 256.641 58.4961 256.641 56.8945V44.668Z" fill="#FFD706"/>
</svg>
