<svg width="104" height="92" viewBox="0 0 104 92" fill="none" xmlns="http://www.w3.org/2000/svg">
<rect width="104" height="92" rx="10" fill="white"/>
<path d="M22.88 61.48C22.6133 61.1867 22.44 60.9333 22.36 60.72C22.28 60.5333 22.2667 60.2933 22.32 60C22.4 59.7333 22.5067 59.3467 22.64 58.84C22.8533 57.9867 23.08 57.28 23.32 56.72C23.5867 56.1333 23.84 55.5333 24.08 54.92C24.3467 54.28 24.5733 53.4667 24.76 52.48C25.1867 51.4933 25.56 50.56 25.88 49.68C26.2267 48.8 26.4933 48.08 26.68 47.52C26.8667 46.96 26.96 46.68 26.96 46.68C26.9867 46.5733 27.1067 46.2933 27.32 45.84C27.5333 45.3867 27.8 44.84 28.12 44.2C28.4667 43.5333 28.7867 42.8667 29.08 42.2C29.5333 40.92 29.8933 39.8267 30.16 38.92C30.4533 37.9867 30.7467 37.1467 31.04 36.4C31.3333 35.6533 31.72 34.92 32.2 34.2C32.52 33.64 32.8933 33.28 33.32 33.12C33.7467 32.96 34.1467 32.9733 34.52 33.16C34.92 33.32 35.2 33.6667 35.36 34.2C35.4933 34.4667 35.6 34.7867 35.68 35.16C35.7867 35.5333 35.88 36.08 35.96 36.8C36.04 37.4933 36.0933 38.48 36.12 39.76C36.1733 41.28 36.1867 42.7867 36.16 44.28C36.1333 45.7467 36.1333 47.1067 36.16 48.36C36.2133 49.6133 36.36 50.68 36.6 51.56C36.68 52.04 36.7867 52.6267 36.92 53.32C37.08 53.9867 37.24 54.6533 37.4 55.32C37.5867 55.9867 37.76 56.5467 37.92 57C38.1067 57.4533 38.2533 57.68 38.36 57.68C38.4933 57.68 38.6667 57.5067 38.88 57.16C39.12 56.8133 39.4133 56.1867 39.76 55.28C40.1333 54.3733 40.5733 53.0933 41.08 51.44C41.5867 49.76 42.16 47.6133 42.8 45C42.9333 44.5467 43.1067 43.8133 43.32 42.8C43.56 41.7867 43.7333 40.76 43.84 39.72C44.0267 39.0533 44.2133 38.32 44.4 37.52C44.5867 36.72 44.7467 36.0133 44.88 35.4C45.04 34.7867 45.12 34.44 45.12 34.36C45.12 34.1733 45.12 34.0133 45.12 33.88C45.1467 33.7467 45.1467 33.6133 45.12 33.48C45.2533 33.48 45.3733 33.3067 45.48 32.96C45.5867 32.5867 45.64 32.2667 45.64 32C45.64 31.5467 45.6933 31.1867 45.8 30.92C45.9333 30.6267 46.0667 30.4133 46.2 30.28C46.28 30.0667 46.48 29.9733 46.8 30C47.12 30 47.44 30.08 47.76 30.24C48.08 30.4 48.28 30.6133 48.36 30.88C48.4133 31.1733 48.3333 31.84 48.12 32.88C47.9333 33.8933 47.64 35.2667 47.24 37C47.24 37.2933 47.16 37.7733 47 38.44C46.84 39.1067 46.6667 39.8133 46.48 40.56C46.32 41.3067 46.2 41.9467 46.12 42.48C46.0133 43.1733 45.8933 43.8267 45.76 44.44C45.6267 45.0267 45.4933 45.3067 45.36 45.28C44.6667 48.2933 43.9333 50.8667 43.16 53C42.4133 55.1067 41.7467 56.8267 41.16 58.16C40.52 59.6267 39.8133 60.5067 39.04 60.8C38.2933 61.12 37.4933 60.7333 36.64 59.64C36.1333 58.9467 35.7333 58.2667 35.44 57.6C35.1467 56.9067 34.9067 56.1067 34.72 55.2C34.5333 54.2667 34.3067 53.12 34.04 51.76C33.64 50.6667 33.4133 49.56 33.36 48.44C33.3333 47.32 33.3733 46.1733 33.48 45C33.5867 43.8 33.6667 42.56 33.72 41.28C33.6933 40 33.64 39.1467 33.56 38.72C33.48 38.2933 33.32 38.32 33.08 38.8C32.8667 39.2533 32.5067 40.1867 32 41.6C31.8133 42.1067 31.56 42.72 31.24 43.44C30.9467 44.16 30.6533 44.88 30.36 45.6C30.0667 46.2933 29.8133 46.9067 29.6 47.44C29.3867 47.9467 29.2533 48.2667 29.2 48.4C29.04 48.72 28.8533 49.1467 28.64 49.68C28.4267 50.1867 28.2533 50.7333 28.12 51.32C27.16 53.8267 26.44 55.8267 25.96 57.32C25.5067 58.8133 25.1733 59.8533 24.96 60.44C24.6933 61.1867 24.4133 61.68 24.12 61.92C23.8267 62.1867 23.4133 62.04 22.88 61.48ZM54.3759 57.6C53.8159 58.08 53.1626 58.36 52.4159 58.44C51.6959 58.52 50.9893 58.4133 50.2959 58.12C49.6026 57.8 49.0293 57.32 48.5759 56.68C48.1226 56.0933 47.8293 55.4267 47.6959 54.68C47.5626 53.9067 47.5493 52.9067 47.6559 51.68C47.7359 50.64 48.0693 49.6 48.6559 48.56C49.2426 47.4933 49.9493 46.5467 50.7759 45.72C51.6293 44.8933 52.4693 44.32 53.2959 44C53.6959 43.7333 54.0293 43.6133 54.2959 43.64C54.5893 43.64 55.0293 43.6667 55.6159 43.72C56.2293 43.8 56.6826 43.92 56.9759 44.08C57.2959 44.24 57.5493 44.4533 57.7359 44.72C58.1359 45.12 58.4026 45.52 58.5359 45.92C58.6693 46.2933 58.7359 46.6667 58.7359 47.04C58.6293 47.6267 58.2293 48.3467 57.5359 49.2C56.8693 50.0267 55.9893 50.7067 54.8959 51.24C54.3093 51.4267 53.6693 51.5067 52.9759 51.48C52.2826 51.4533 51.7093 51.28 51.2559 50.96C50.7493 50.7467 50.4159 50.7867 50.2559 51.08C50.0959 51.3467 49.9493 52.0133 49.8159 53.08C49.7093 54.0933 49.7893 54.84 50.0559 55.32C50.3226 55.7733 50.6826 56.04 51.1359 56.12C51.6693 56.2267 52.0826 56.3067 52.3759 56.36C52.6959 56.3867 53.0826 56.2667 53.5359 56C53.9626 55.7333 54.2293 55.5867 54.3359 55.56C54.4426 55.5067 54.5226 55.4533 54.5759 55.4C54.6559 55.32 54.8293 55.1467 55.0959 54.88C55.2826 54.6933 55.4293 54.56 55.5359 54.48C55.6426 54.3733 55.7626 54.32 55.8959 54.32C56.0293 54.32 56.1493 54.3867 56.2559 54.52C56.3626 54.6267 56.4693 54.7067 56.5759 54.76C56.8426 54.76 56.8959 54.92 56.7359 55.24C56.6026 55.56 56.3226 55.9467 55.8959 56.4C55.4693 56.8267 54.9626 57.2267 54.3759 57.6ZM54.3359 49.12C54.6293 48.9867 54.9359 48.8 55.2559 48.56C55.5759 48.2933 55.8426 48.0133 56.0559 47.72C56.2959 47.4 56.4159 47.1333 56.4159 46.92C56.4159 46.5467 56.2426 46.24 55.8959 46C55.5493 45.7333 55.0293 45.6933 54.3359 45.88C54.0426 45.96 53.7093 46.16 53.3359 46.48C52.9626 46.7733 52.6026 47.1067 52.2559 47.48C51.9359 47.8533 51.6693 48.1867 51.4559 48.48C51.2693 48.7733 51.2026 48.9467 51.2559 49C51.3359 49.1333 51.5626 49.24 51.9359 49.32C52.3093 49.3733 52.7226 49.3867 53.1759 49.36C53.6559 49.3333 54.0426 49.2533 54.3359 49.12ZM71.9838 58.88C71.8771 58.88 71.7304 58.8667 71.5438 58.84C71.3838 58.8133 71.2504 58.7467 71.1438 58.64C71.0371 58.64 70.8504 58.6 70.5838 58.52C70.3171 58.44 70.0771 58.3467 69.8638 58.24C69.5971 58.1333 69.2371 57.92 68.7838 57.6C68.3304 57.2533 67.8771 56.88 67.4238 56.48C66.9704 56.08 66.5838 55.7067 66.2638 55.36C65.9704 55.0133 65.8238 54.76 65.8238 54.6C65.8238 54.4667 65.7571 54.4 65.6238 54.4C65.6238 54.4 65.5838 54.36 65.5038 54.28C65.4238 54.1733 65.3838 54.0667 65.3838 53.96C65.3838 53.6933 65.2504 53.56 64.9838 53.56C64.9838 53.56 64.7571 53.7467 64.3038 54.12C63.8504 54.4933 63.3571 54.9467 62.8238 55.48C62.0771 56.2267 61.5171 56.7733 61.1438 57.12C60.7971 57.44 60.5171 57.6 60.3038 57.6C60.0904 57.6 59.8504 57.52 59.5838 57.36C59.3171 57.2 59.0771 57.0133 58.8638 56.8C58.6771 56.56 58.5838 56.3333 58.5838 56.12C58.5838 56.12 58.8504 55.8133 59.3838 55.2C59.9438 54.5867 60.5971 53.96 61.3438 53.32L63.9038 50.8L63.4638 49.28C63.2771 48.8533 63.0771 48.4133 62.8638 47.96C62.6771 47.48 62.5304 47.08 62.4238 46.76C62.1038 46.3067 61.9304 46.0267 61.9038 45.92C61.9038 45.7867 62.0104 45.56 62.2237 45.24C62.4371 45.0267 62.6104 44.8933 62.7438 44.84C62.9038 44.76 63.1438 44.8267 63.4638 45.04C63.6238 45.04 63.8371 45.2667 64.1038 45.72C64.3704 46.1467 64.6104 46.6267 64.8238 47.16C65.0638 47.6667 65.1838 48.0267 65.1838 48.24C65.1838 48.6667 65.3438 48.84 65.6638 48.76C65.9838 48.68 66.4638 48.4267 67.1038 48C67.4238 47.7067 67.6771 47.4667 67.8638 47.28C68.0504 47.0667 68.1438 46.96 68.1438 46.96C68.2238 46.88 68.4638 46.7067 68.8638 46.44C69.2638 46.1467 69.6771 45.8533 70.1038 45.56C70.5304 45.2667 70.8104 45.0933 70.9438 45.04C71.1571 44.88 71.3971 44.88 71.6638 45.04C71.9304 45.1733 72.1571 45.3867 72.3438 45.68C72.5304 45.9467 72.6238 46.2267 72.6238 46.52C72.6238 46.84 72.5438 47.0933 72.3838 47.28C72.2238 47.4667 71.8771 47.7067 71.3438 48C70.8638 48.3467 70.4371 48.6533 70.0638 48.92C69.7171 49.1867 69.3438 49.48 68.9438 49.8C68.5704 50.0933 68.0904 50.4933 67.5038 51L66.4638 51.84L67.1038 52.92C67.2104 53.1067 67.3571 53.3733 67.5438 53.72C67.7571 54.0667 67.9571 54.2933 68.1438 54.4C68.3038 54.6133 68.6104 54.9067 69.0638 55.28C69.5171 55.6533 69.9571 56 70.3838 56.32C70.8371 56.6133 71.0904 56.76 71.1438 56.76C71.2504 56.76 71.3704 56.8 71.5038 56.88C71.6371 56.96 71.7971 57.0533 71.9838 57.16C72.1971 57.3733 72.3304 57.6133 72.3838 57.88C72.4638 58.1467 72.4638 58.3867 72.3838 58.6C72.3304 58.7867 72.1971 58.88 71.9838 58.88ZM79.0547 58.92C78.6814 58.8133 78.3747 58.6933 78.1347 58.56C77.8947 58.4 77.5747 58.1467 77.1747 57.8C76.8547 57.3733 76.6014 56.9733 76.4147 56.6C76.2547 56.2267 76.148 55.8 76.0947 55.32C76.0414 54.8133 76.0147 54.1733 76.0147 53.4C76.0147 53.08 76.068 52.6 76.1747 51.96C76.308 51.32 76.4547 50.6533 76.6147 49.96C76.8014 49.24 76.9614 48.6 77.0947 48.04C77.2547 47.48 77.348 47.12 77.3747 46.96C77.4547 46.6133 77.3214 46.4133 76.9747 46.36C76.628 46.3067 76.2414 46.2933 75.8147 46.32C75.4147 46.32 75.148 46.28 75.0147 46.2C74.908 46.1733 74.8547 46.1333 74.8547 46.08C74.8547 46 74.8547 45.96 74.8547 45.96C74.8547 45.8533 74.8414 45.7867 74.8147 45.76C74.8147 45.7067 74.7747 45.6133 74.6947 45.48C74.6414 45.3733 74.668 45.2267 74.7747 45.04C74.908 44.8267 75.1214 44.6933 75.4147 44.64C75.6547 44.5867 75.9747 44.5467 76.3747 44.52C76.8014 44.4667 77.228 44.3733 77.6547 44.24C78.0814 44.08 78.428 43.84 78.6947 43.52C78.9347 42.9333 79.2147 42.28 79.5347 41.56C79.8547 40.84 80.1614 40.2 80.4547 39.64C80.7747 39.0533 80.988 38.6933 81.0947 38.56C81.548 38.32 81.8814 38.2267 82.0947 38.28C82.308 38.3067 82.548 38.5333 82.8147 38.96C82.948 39.1467 83.0414 39.2933 83.0947 39.4C83.1747 39.5067 83.188 39.6667 83.1347 39.88C83.0814 40.0933 82.9347 40.4267 82.6947 40.88C82.4814 41.3333 82.148 41.9867 81.6947 42.84C81.5614 43.1067 81.4414 43.3467 81.3347 43.56C81.228 43.7467 81.1747 43.84 81.1747 43.84C81.2814 43.8667 81.4414 43.88 81.6547 43.88C81.868 43.88 82.1347 43.8667 82.4547 43.84C82.748 43.7867 83.1214 43.7467 83.5747 43.72C84.028 43.6667 84.388 43.6667 84.6547 43.72C85.268 43.72 85.7214 43.84 86.0147 44.08C86.308 44.2933 86.468 44.6667 86.4947 45.2C86.548 45.4933 86.4814 45.6667 86.2947 45.72C86.1347 45.7733 85.6947 45.8 84.9747 45.8C84.7347 45.8 84.3614 45.8133 83.8547 45.84C83.348 45.8667 82.8147 45.8933 82.2547 45.92C81.7214 45.9467 81.2547 45.9867 80.8547 46.04C80.4814 46.0667 80.2947 46.1067 80.2947 46.16C80.2147 46.2133 80.0814 46.4667 79.8947 46.92C79.7347 47.3733 79.5614 47.8933 79.3747 48.48C79.2147 49.04 79.068 49.5467 78.9347 50C78.748 50.9067 78.6014 51.8133 78.4947 52.72C78.4147 53.6267 78.4014 54.4133 78.4547 55.08C78.508 55.7467 78.6547 56.2133 78.8947 56.48C79.1347 56.72 79.6014 56.7733 80.2947 56.64C80.988 56.48 81.548 56.2267 81.9747 55.88C82.4547 55.48 82.8414 55.28 83.1347 55.28C83.4547 55.28 83.628 55.4267 83.6547 55.72C83.708 55.9867 83.5614 56.3733 83.2147 56.88C82.8947 57.36 82.4947 57.7867 82.0147 58.16C81.5347 58.5067 81.028 58.76 80.4947 58.92C79.988 59.0533 79.508 59.0533 79.0547 58.92Z" fill="#881C70"/>
</svg>
