<svg width="258" height="51" viewBox="0 0 258 51" fill="none" xmlns="http://www.w3.org/2000/svg">
<rect width="258" height="51" rx="15" fill="white"/>
<path d="M105.44 38.16C104.933 37.9467 104.453 37.6667 104 37.32C103.547 36.9467 103.253 36.64 103.12 36.4C103.12 36.16 103.16 36 103.24 35.92C103.32 35.8133 103.547 35.7733 103.92 35.8C104.32 35.8 104.96 35.8533 105.84 35.96C106.16 35.96 106.56 35.9333 107.04 35.88C107.52 35.8267 107.96 35.7467 108.36 35.64C108.787 35.5333 109.027 35.4 109.08 35.24C109.213 35.24 109.24 35.2 109.16 35.12C109.08 35.0133 108.987 34.9067 108.88 34.8C108.773 34.8 108.653 34.76 108.52 34.68C108.387 34.5733 108.267 34.52 108.16 34.52C108.16 34.3867 108.027 34.24 107.76 34.08C107.52 33.8933 107.267 33.7467 107 33.64C106.413 33.16 105.907 32.7333 105.48 32.36C105.053 31.96 104.893 31.6933 105 31.56C105 31.4533 105 31.4 105 31.4C105 31.3733 105 31.36 105 31.36C104.813 31.36 104.6 31.0933 104.36 30.56C104.147 30.0267 104.04 29.5467 104.04 29.12C104.04 28.8 104.133 28.4 104.32 27.92C104.507 27.4133 104.76 26.8933 105.08 26.36C105.4 25.8267 105.733 25.3867 106.08 25.04C106.56 24.5867 107.16 24.1067 107.88 23.6C108.6 23.0667 109.307 22.6 110 22.2C110.72 21.7733 111.32 21.4933 111.8 21.36C112.28 21.1733 112.72 21.08 113.12 21.08C113.547 21.08 113.92 21.1733 114.24 21.36C114.507 21.4933 114.747 21.6933 114.96 21.96C115.2 22.2 115.4 22.4533 115.56 22.72C115.747 22.96 115.867 23.1733 115.92 23.36C115.92 23.68 115.893 24.04 115.84 24.44C115.787 24.8133 115.707 25.1467 115.6 25.44C115.52 25.7333 115.387 25.88 115.2 25.88C115.2 25.88 115.16 25.8933 115.08 25.92C115.027 25.92 115 25.9867 115 26.12C115 26.3867 114.8 26.6933 114.4 27.04C113.893 27.3867 113.453 27.6 113.08 27.68C112.707 27.7333 112.48 27.5867 112.4 27.24C112.32 27.1333 112.267 27.04 112.24 26.96C112.213 26.88 112.147 26.84 112.04 26.84C112.04 26.84 112 26.8 111.92 26.72C111.84 26.64 111.8 26.5067 111.8 26.32C111.8 26.2133 111.84 26.12 111.92 26.04C112 25.9333 112.04 25.88 112.04 25.88C112.173 25.88 112.347 25.7333 112.56 25.44C112.773 25.12 112.96 24.7867 113.12 24.44C113.307 24.0667 113.4 23.8133 113.4 23.68C113.4 23.52 113.373 23.4267 113.32 23.4C113.293 23.3733 113.173 23.36 112.96 23.36C112.587 23.52 112.133 23.7333 111.6 24C111.067 24.2667 110.56 24.5333 110.08 24.8C109.627 25.04 109.293 25.2667 109.08 25.48C108.973 25.6667 108.907 25.7867 108.88 25.84C108.853 25.8667 108.787 25.88 108.68 25.88C108.68 25.7733 108.587 25.8267 108.4 26.04C108.24 26.2267 108.027 26.4933 107.76 26.84C107.52 27.1867 107.28 27.5333 107.04 27.88C106.827 28.2 106.667 28.44 106.56 28.6C106.507 28.6533 106.44 28.8133 106.36 29.08C106.307 29.32 106.28 29.5467 106.28 29.76C106.173 30.08 106.187 30.3067 106.32 30.44C106.453 30.5467 106.747 30.7867 107.2 31.16C108.133 31.8533 108.867 32.4267 109.4 32.88C109.933 33.3333 110.333 33.7067 110.6 34C110.867 34.2933 111.027 34.56 111.08 34.8C111.56 35.6 111.707 36.2133 111.52 36.64C111.333 37.0667 110.88 37.44 110.16 37.76C109.893 37.8933 109.453 38 108.84 38.08C108.227 38.16 107.6 38.2 106.96 38.2C106.32 38.2267 105.813 38.2133 105.44 38.16ZM123.673 36.6C123.113 37.08 122.459 37.36 121.713 37.44C120.993 37.52 120.286 37.4133 119.593 37.12C118.899 36.8 118.326 36.32 117.873 35.68C117.419 35.0933 117.126 34.4267 116.993 33.68C116.859 32.9067 116.846 31.9067 116.953 30.68C117.033 29.64 117.366 28.6 117.953 27.56C118.539 26.4933 119.246 25.5467 120.073 24.72C120.926 23.8933 121.766 23.32 122.593 23C122.993 22.7333 123.326 22.6133 123.593 22.64C123.886 22.64 124.326 22.6667 124.913 22.72C125.526 22.8 125.979 22.92 126.273 23.08C126.593 23.24 126.846 23.4533 127.033 23.72C127.433 24.12 127.699 24.52 127.833 24.92C127.966 25.2933 128.033 25.6667 128.033 26.04C127.926 26.6267 127.526 27.3467 126.833 28.2C126.166 29.0267 125.286 29.7067 124.193 30.24C123.606 30.4267 122.966 30.5067 122.273 30.48C121.579 30.4533 121.006 30.28 120.553 29.96C120.046 29.7467 119.713 29.7867 119.553 30.08C119.393 30.3467 119.246 31.0133 119.113 32.08C119.006 33.0933 119.086 33.84 119.353 34.32C119.619 34.7733 119.979 35.04 120.433 35.12C120.966 35.2267 121.379 35.3067 121.673 35.36C121.993 35.3867 122.379 35.2667 122.833 35C123.259 34.7333 123.526 34.5867 123.633 34.56C123.739 34.5067 123.819 34.4533 123.873 34.4C123.953 34.32 124.126 34.1467 124.393 33.88C124.579 33.6933 124.726 33.56 124.833 33.48C124.939 33.3733 125.059 33.32 125.193 33.32C125.326 33.32 125.446 33.3867 125.553 33.52C125.659 33.6267 125.766 33.7067 125.873 33.76C126.139 33.76 126.193 33.92 126.033 34.24C125.899 34.56 125.619 34.9467 125.193 35.4C124.766 35.8267 124.259 36.2267 123.673 36.6ZM123.633 28.12C123.926 27.9867 124.233 27.8 124.553 27.56C124.873 27.2933 125.139 27.0133 125.353 26.72C125.593 26.4 125.713 26.1333 125.713 25.92C125.713 25.5467 125.539 25.24 125.193 25C124.846 24.7333 124.326 24.6933 123.633 24.88C123.339 24.96 123.006 25.16 122.633 25.48C122.259 25.7733 121.899 26.1067 121.553 26.48C121.233 26.8533 120.966 27.1867 120.753 27.48C120.566 27.7733 120.499 27.9467 120.553 28C120.633 28.1333 120.859 28.24 121.233 28.32C121.606 28.3733 122.019 28.3867 122.473 28.36C122.953 28.3333 123.339 28.2533 123.633 28.12ZM142.041 37.52C141.774 37.52 141.494 37.3733 141.201 37.08C140.934 36.7867 140.694 36.4267 140.481 36C140.294 35.5467 140.201 35.12 140.201 34.72C140.201 34.32 140.294 33.5733 140.481 32.48C140.694 31.3867 140.947 30.28 141.241 29.16C141.454 28.4667 141.521 28.0667 141.441 27.96C141.361 27.8533 141.001 28 140.361 28.4C139.987 28.5867 139.654 28.7867 139.361 29C139.067 29.1867 138.814 29.4 138.601 29.64C138.467 29.7467 138.267 29.92 138.001 30.16C137.734 30.4 137.454 30.6267 137.161 30.84C136.814 31.1067 136.374 31.48 135.841 31.96C135.307 32.44 134.774 32.92 134.241 33.4C133.734 33.88 133.347 34.2533 133.081 34.52C133.027 34.6267 132.947 34.72 132.841 34.8C132.734 34.88 132.614 34.9333 132.481 34.96C132.347 34.96 132.201 34.9333 132.041 34.88C131.747 34.8 131.467 34.6267 131.201 34.36C130.961 34.0933 130.841 33.7867 130.841 33.44C130.841 33.1733 130.947 32.72 131.161 32.08C131.374 31.4133 131.654 30.6133 132.001 29.68C132.374 28.7467 132.801 27.76 133.281 26.72C133.361 26.5867 133.427 26.4267 133.481 26.24C133.534 26.0267 133.574 25.8 133.601 25.56C133.654 25.32 133.681 25.0933 133.681 24.88C133.681 24.7467 133.694 24.6133 133.721 24.48C133.774 24.32 133.827 24.1733 133.881 24.04C133.961 23.88 134.027 23.7733 134.081 23.72C134.187 23.5067 134.374 23.4533 134.641 23.56C134.907 23.64 135.134 23.8267 135.321 24.12C135.721 24.4933 135.921 24.96 135.921 25.52C135.947 26.08 135.814 26.7733 135.521 27.6C135.414 27.7867 135.321 27.9733 135.241 28.16C135.187 28.32 135.134 28.4667 135.081 28.6C135.027 28.7067 134.987 28.8 134.961 28.88C134.934 28.9333 134.921 28.96 134.921 28.96C135.027 28.96 135.267 28.84 135.641 28.6C136.014 28.36 136.454 28.0933 136.961 27.8C137.361 27.5067 137.707 27.24 138.001 27C138.321 26.7333 138.587 26.5333 138.801 26.4C139.014 26.24 139.147 26.16 139.201 26.16C139.307 26.16 139.441 26.12 139.601 26.04C139.761 25.96 139.894 25.8667 140.001 25.76C140.107 25.6533 140.187 25.6 140.241 25.6C140.321 25.5733 140.361 25.56 140.361 25.56C140.361 25.56 140.414 25.56 140.521 25.56C140.627 25.5333 140.734 25.4667 140.841 25.36C141.054 25.2 141.334 25.16 141.681 25.24C142.027 25.2933 142.347 25.4267 142.641 25.64C142.934 25.8533 143.081 26.0933 143.081 26.36C143.081 26.4667 143.107 26.56 143.161 26.64C143.241 26.6933 143.281 26.72 143.281 26.72C143.494 26.72 143.627 27.0533 143.681 27.72C143.761 28.3867 143.694 29.0267 143.481 29.64C143.481 30.04 143.401 30.52 143.241 31.08C143.107 31.64 142.987 32.1733 142.881 32.68C142.667 33.3467 142.521 33.9333 142.441 34.44C142.361 34.9467 142.347 35.3733 142.401 35.72C142.454 36.0667 142.547 36.3467 142.681 36.56C142.787 36.7467 142.787 36.96 142.681 37.2C142.574 37.4133 142.361 37.52 142.041 37.52ZM156.568 37.88C156.275 37.9867 156.062 38.0267 155.928 38C155.822 37.9467 155.542 37.7467 155.088 37.4C154.902 37.08 154.782 36.8 154.728 36.56C154.702 36.2933 154.688 35.8267 154.688 35.16C154.742 34.76 154.848 34.1867 155.008 33.44C155.195 32.6933 155.408 31.9067 155.648 31.08C155.888 30.2533 156.102 29.5067 156.288 28.84C156.502 28.1733 156.662 27.72 156.768 27.48C156.955 26.84 156.995 26.4533 156.888 26.32C156.782 26.16 156.462 26.0533 155.928 26C154.862 25.8667 153.902 26.2133 153.048 27.04C152.195 27.8667 151.342 28.9467 150.488 30.28C149.848 31.2667 149.462 32.12 149.328 32.84C149.222 33.5333 149.208 34.0133 149.288 34.28C149.368 34.4933 149.555 34.6133 149.848 34.64C150.142 34.64 150.462 34.5733 150.808 34.44C151.182 34.3067 151.502 34.1733 151.768 34.04C151.955 33.9333 152.182 33.8267 152.448 33.72C152.742 33.5867 153.022 33.4667 153.288 33.36C153.448 33.36 153.555 33.4133 153.608 33.52C153.688 33.6 153.728 33.7733 153.728 34.04C153.728 34.1467 153.768 34.24 153.848 34.32C153.928 34.4 154.022 34.4667 154.128 34.52C154.235 34.6267 154.075 34.8667 153.648 35.24C153.248 35.6133 152.622 36.04 151.768 36.52C150.968 36.7067 150.315 36.8 149.808 36.8C149.328 36.8 148.862 36.6267 148.408 36.28C147.662 35.8267 147.235 35.0933 147.128 34.08C147.048 33.04 147.262 31.7733 147.768 30.28C148.275 29.08 148.835 28.1067 149.448 27.36C150.062 26.5867 150.715 25.84 151.408 25.12C151.515 25.0133 151.755 24.8533 152.128 24.64C152.528 24.4 153.022 24.1867 153.608 24C154.275 23.7867 154.902 23.6533 155.488 23.6C156.075 23.5467 156.582 23.6667 157.008 23.96C157.488 24.0667 157.795 24.0533 157.928 23.92C158.062 23.76 158.288 23.28 158.608 22.48C159.142 21.1467 159.662 19.8 160.168 18.44C160.675 17.0533 161.222 15.6533 161.808 14.24C162.075 13.7333 162.235 13.3467 162.288 13.08C162.368 12.7867 162.462 12.5867 162.568 12.48H163.328C163.435 12.48 163.622 12.5733 163.888 12.76C164.155 12.9467 164.342 13.2 164.448 13.52C164.448 13.76 164.342 14.2933 164.128 15.12C163.915 15.92 163.568 16.88 163.088 18C162.662 18.9867 162.235 19.9867 161.808 21C161.408 21.9867 161.022 23.04 160.648 24.16C160.355 24.9867 160.088 25.6533 159.848 26.16C159.608 26.6667 159.448 27.1067 159.368 27.48C159.208 28.1733 159.008 28.8 158.768 29.36C158.555 29.8933 158.408 30.2667 158.328 30.48C157.982 31.4933 157.702 32.32 157.488 32.96C157.275 33.5733 157.115 34.0933 157.008 34.52C156.902 34.92 156.835 35.3333 156.808 35.76C156.808 36.16 156.848 36.64 156.928 37.2C156.928 37.3067 156.915 37.4133 156.888 37.52C156.862 37.6267 156.755 37.7467 156.568 37.88Z" fill="#881C70"/>
</svg>
