<svg width="452" height="236" viewBox="0 0 452 236" fill="none" xmlns="http://www.w3.org/2000/svg">
<path d="M116.236 49.71C115.629 49.7567 115.069 49.6167 114.556 49.29C114.089 49.01 113.763 48.6367 113.576 48.17C113.389 47.9367 113.109 47.54 112.736 46.98C112.363 46.42 112.129 45.86 112.036 45.3C111.896 43.8067 111.803 42.36 111.756 40.96C111.756 39.56 111.826 37.6 111.966 35.08C112.106 33.0267 112.363 31.0433 112.736 29.13C113.156 27.17 113.553 25.42 113.926 23.88C114.346 22.34 114.673 21.1267 114.906 20.24C115.139 19.3067 115.186 18.84 115.046 18.84C114.859 18.84 114.579 19.19 114.206 19.89C113.833 20.5433 113.413 21.36 112.946 22.34C112.479 23.32 112.013 24.3 111.546 25.28C111.079 26.2133 110.683 26.9833 110.356 27.59C109.703 29.0367 108.933 30.5767 108.046 32.21C107.206 33.7967 106.343 35.3367 105.456 36.83C104.569 38.3233 103.799 39.63 103.146 40.75C102.726 41.2167 102.236 41.8933 101.676 42.78C101.116 43.62 100.509 44.5067 99.856 45.44C99.2026 46.3733 98.526 47.1433 97.826 47.75C96.7993 48.73 95.7726 49.2667 94.746 49.36C93.766 49.4533 92.926 49.1967 92.226 48.59C92.086 48.4033 91.9226 48.17 91.736 47.89C91.596 47.6567 91.4793 47.33 91.386 46.91C91.2926 46.49 91.316 46 91.456 45.44C91.4093 44.7867 91.4093 43.7833 91.456 42.43C91.5493 41.03 91.6893 39.5133 91.876 37.88C92.0626 36.2 92.2493 34.59 92.436 33.05C92.6693 31.51 92.8793 30.2267 93.066 29.2C93.486 26.2133 94.046 23.1567 94.746 20.03C95.4926 16.9033 96.1693 13.7533 96.776 10.58C97.1493 9.64666 97.476 8.59667 97.756 7.43C98.0826 6.21667 98.4093 5.09666 98.736 4.07C98.7826 3.04333 99.016 2.36666 99.436 2.04C99.856 1.66666 100.323 1.55 100.836 1.69C101.396 1.78333 101.839 2.06333 102.166 2.53C102.633 2.99667 102.983 3.72 103.216 4.7C103.496 5.68 103.309 6.91667 102.656 8.41C101.723 10.6967 100.813 13.4967 99.926 16.81C99.086 20.0767 98.316 24.0433 97.616 28.71C97.4293 29.83 97.2193 31.16 96.986 32.7C96.7526 34.24 96.5426 35.7333 96.356 37.18C96.1693 38.6267 96.0293 39.84 95.936 40.82C95.8893 41.8 95.9126 42.3133 96.006 42.36C96.3793 42.4533 96.8926 42.1733 97.546 41.52C98.1993 40.82 98.7826 39.91 99.296 38.79C101.209 35.6167 103.099 32.3033 104.966 28.85C106.879 25.35 108.699 21.8967 110.426 18.49C111.219 17.1367 112.013 15.6667 112.806 14.08C113.646 12.4467 114.439 10.9533 115.186 9.6C115.979 8.2 116.703 6.94 117.356 5.82C118.009 4.65333 118.569 3.69666 119.036 2.95C119.503 2.20333 119.876 1.78333 120.156 1.69C120.903 1.73666 121.533 1.92333 122.046 2.25C122.606 2.53 123.073 3.13666 123.446 4.07C123.539 4.30333 123.516 4.7 123.376 5.26C123.236 5.82 123.073 6.31 122.886 6.73C122.839 7.05666 122.629 7.73333 122.256 8.76C121.929 9.78666 121.626 10.93 121.346 12.19C120.879 13.45 120.459 14.71 120.086 15.97C119.759 17.1833 119.526 18.1867 119.386 18.98C119.013 20.9867 118.546 23.2033 117.986 25.63C117.426 28.01 116.936 30.39 116.516 32.77C116.143 35.1033 115.933 37.2033 115.886 39.07C115.839 40.3767 115.839 41.4033 115.886 42.15C115.979 42.8967 116.119 43.48 116.306 43.9C116.399 44.2733 116.679 44.5067 117.146 44.6C117.659 44.6933 118.079 44.53 118.406 44.11C119.339 42.9433 120.133 41.8933 120.786 40.96C121.486 39.98 122.139 39 122.746 38.02C123.353 36.9933 123.983 35.85 124.636 34.59C125.803 32.4433 126.993 30.0633 128.206 27.45C129.466 24.79 130.656 22.1533 131.776 19.54C132.943 16.9267 133.946 14.64 134.786 12.68C135.673 10.16 136.373 8.15333 136.886 6.66C137.446 5.16666 137.936 4.04666 138.356 3.3C138.776 2.55333 139.219 2.04 139.686 1.76C139.919 1.57333 140.246 1.48 140.666 1.48C141.086 1.48 141.506 1.66666 141.926 2.04C142.113 2.22667 142.276 2.53 142.416 2.95C142.603 3.32333 142.673 3.79 142.626 4.35C142.393 5.09666 141.973 6.28666 141.366 7.92C140.806 9.55333 140.153 11.35 139.406 13.31C138.659 15.27 137.936 17.1367 137.236 18.91C136.536 20.6833 135.929 22.1067 135.416 23.18C134.903 24.16 134.413 25 133.946 25.7C133.479 26.4 133.246 26.9367 133.246 27.31C133.246 27.4967 133.013 28.08 132.546 29.06C132.079 29.9933 131.473 31.1367 130.726 32.49C130.026 33.8433 129.256 35.2433 128.416 36.69C127.576 38.1367 126.783 39.4667 126.036 40.68C125.289 41.8933 124.659 42.8267 124.146 43.48C122.979 44.9267 121.836 46.1167 120.716 47.05C119.643 47.9833 118.709 48.66 117.916 49.08C117.123 49.5 116.563 49.71 116.236 49.71ZM151.76 43.55C150.78 44.39 149.637 44.88 148.33 45.02C147.07 45.16 145.834 44.9733 144.62 44.46C143.407 43.9 142.404 43.06 141.61 41.94C140.817 40.9133 140.304 39.7467 140.07 38.44C139.837 37.0867 139.814 35.3367 140 33.19C140.14 31.37 140.724 29.55 141.75 27.73C142.777 25.8633 144.014 24.2067 145.46 22.76C146.954 21.3133 148.424 20.31 149.87 19.75C150.57 19.2833 151.154 19.0733 151.62 19.12C152.134 19.12 152.904 19.1667 153.93 19.26C155.004 19.4 155.797 19.61 156.31 19.89C156.87 20.17 157.314 20.5433 157.64 21.01C158.34 21.71 158.807 22.41 159.04 23.11C159.274 23.7633 159.39 24.4167 159.39 25.07C159.204 26.0967 158.504 27.3567 157.29 28.85C156.124 30.2967 154.584 31.4867 152.67 32.42C151.644 32.7467 150.524 32.8867 149.31 32.84C148.097 32.7933 147.094 32.49 146.3 31.93C145.414 31.5567 144.83 31.6267 144.55 32.14C144.27 32.6067 144.014 33.7733 143.78 35.64C143.594 37.4133 143.734 38.72 144.2 39.56C144.667 40.3533 145.297 40.82 146.09 40.96C147.024 41.1467 147.747 41.2867 148.26 41.38C148.82 41.4267 149.497 41.2167 150.29 40.75C151.037 40.2833 151.504 40.0267 151.69 39.98C151.877 39.8867 152.017 39.7933 152.11 39.7C152.25 39.56 152.554 39.2567 153.02 38.79C153.347 38.4633 153.604 38.23 153.79 38.09C153.977 37.9033 154.187 37.81 154.42 37.81C154.654 37.81 154.864 37.9267 155.05 38.16C155.237 38.3467 155.424 38.4867 155.61 38.58C156.077 38.58 156.17 38.86 155.89 39.42C155.657 39.98 155.167 40.6567 154.42 41.45C153.674 42.1967 152.787 42.8967 151.76 43.55ZM151.69 28.71C152.204 28.4767 152.74 28.15 153.3 27.73C153.86 27.2633 154.327 26.7733 154.7 26.26C155.12 25.7 155.33 25.2333 155.33 24.86C155.33 24.2067 155.027 23.67 154.42 23.25C153.814 22.7833 152.904 22.7133 151.69 23.04C151.177 23.18 150.594 23.53 149.94 24.09C149.287 24.6033 148.657 25.1867 148.05 25.84C147.49 26.4933 147.024 27.0767 146.65 27.59C146.324 28.1033 146.207 28.4067 146.3 28.5C146.44 28.7333 146.837 28.92 147.49 29.06C148.144 29.1533 148.867 29.1767 149.66 29.13C150.5 29.0833 151.177 28.9433 151.69 28.71ZM164.988 46C164.101 46.2333 163.378 46.0467 162.818 45.44C162.304 44.8333 162.001 43.9 161.908 42.64C161.814 41.38 161.954 39.8867 162.328 38.16C162.561 37.6 162.748 37.0633 162.888 36.55C163.028 35.99 163.098 35.5467 163.098 35.22C163.191 34.7533 163.378 34.0767 163.658 33.19C163.938 32.2567 164.241 31.3 164.568 30.32C164.894 29.34 165.198 28.4767 165.478 27.73C165.804 26.9367 166.014 26.4467 166.108 26.26C166.294 26.26 166.458 26.0967 166.598 25.77C166.738 25.4433 166.808 25.1167 166.808 24.79C166.808 24.4167 166.878 23.9967 167.018 23.53C167.204 23.0633 167.391 22.7367 167.578 22.55C167.578 22.3167 167.624 22.06 167.718 21.78C167.858 21.4533 167.928 21.1967 167.928 21.01C167.928 20.8233 167.974 20.6367 168.068 20.45C168.208 20.2633 168.278 20.0767 168.278 19.89C168.604 19.2833 169.024 18.3267 169.538 17.02C170.098 15.6667 170.681 14.1733 171.288 12.54C171.941 10.9067 172.548 9.29666 173.108 7.71C173.668 6.12333 174.111 4.79333 174.438 3.72C174.811 2.6 174.998 1.92333 174.998 1.69C174.998 1.31666 175.091 1.03666 175.278 0.849997C175.464 0.66333 175.744 0.569997 176.118 0.569997C176.258 0.429998 176.421 0.336665 176.608 0.289996C176.841 0.24333 177.051 0.219997 177.238 0.219997C177.238 0.219997 177.331 0.31333 177.518 0.499997C177.704 0.686665 177.984 0.966665 178.358 1.34C178.731 1.66666 178.941 2.04 178.988 2.46C179.081 2.88 179.128 3.37 179.128 3.93C179.128 4.53667 179.058 5.07333 178.918 5.54C178.778 6.00667 178.498 6.68333 178.078 7.57C177.658 8.45666 177.004 9.83333 176.118 11.7C175.744 12.6333 175.348 13.52 174.928 14.36C174.508 15.1533 174.298 15.6433 174.298 15.83C174.298 16.0167 174.204 16.2967 174.018 16.67C173.878 17.0433 173.714 17.51 173.528 18.07C173.341 18.4433 173.084 19.0033 172.758 19.75C172.431 20.45 172.081 21.22 171.708 22.06C171.381 22.8533 171.101 23.5533 170.868 24.16C170.634 24.72 170.518 25.0467 170.518 25.14C170.518 25.3267 170.494 25.5133 170.448 25.7C170.448 25.8867 170.354 26.0733 170.168 26.26C169.981 26.26 169.864 26.4 169.818 26.68C169.818 26.9133 169.818 27.03 169.818 27.03C169.818 27.4967 169.444 28.7333 168.698 30.74C167.951 33.3067 167.251 35.6633 166.598 37.81C165.991 39.9567 165.688 41.6833 165.688 42.99C165.688 44.11 165.664 44.8567 165.618 45.23C165.571 45.5567 165.361 45.8133 164.988 46ZM182.064 44.39C181.037 44.39 180.267 44.3433 179.754 44.25C179.241 44.1567 178.844 44.0167 178.564 43.83C178.284 43.6433 177.957 43.3867 177.584 43.06C177.397 42.6867 177.164 42.29 176.884 41.87C176.604 41.45 176.371 41.1467 176.184 40.96C175.997 40.26 175.904 39.35 175.904 38.23C175.951 37.11 176.091 35.8967 176.324 34.59C176.604 33.2833 176.977 32.07 177.444 30.95C177.631 30.5767 177.794 30.2033 177.934 29.83C178.074 29.4567 178.144 29.27 178.144 29.27C178.144 29.0367 178.424 28.4767 178.984 27.59C179.591 26.7033 180.244 25.77 180.944 24.79C181.691 23.81 182.297 23.11 182.764 22.69C183.091 22.3167 183.581 21.92 184.234 21.5C184.934 21.08 185.541 20.7767 186.054 20.59C186.567 20.4033 187.081 20.24 187.594 20.1C188.154 19.96 188.784 19.89 189.484 19.89C190.137 19.89 190.744 20.03 191.304 20.31C191.864 20.59 192.401 21.08 192.914 21.78C193.754 22.62 194.221 23.46 194.314 24.3C194.454 25.0933 194.431 25.91 194.244 26.75C194.011 27.6833 193.707 28.4067 193.334 28.92C192.961 29.3867 192.541 29.5967 192.074 29.55C191.607 29.5033 191.071 29.1533 190.464 28.5C190.277 28.1267 190.184 27.8233 190.184 27.59C190.184 27.31 190.277 26.9133 190.464 26.4C190.651 25.7467 190.651 25.07 190.464 24.37C190.277 23.67 189.974 23.32 189.554 23.32C188.947 23.32 188.271 23.6 187.524 24.16C186.824 24.6733 186.101 25.3267 185.354 26.12C185.027 26.4933 184.561 27.0767 183.954 27.87C183.394 28.6167 182.834 29.4567 182.274 30.39C181.714 31.2767 181.247 32.14 180.874 32.98C180.361 34.52 179.941 35.7567 179.614 36.69C179.334 37.6233 179.194 38.09 179.194 38.09C179.194 38.2767 179.241 38.4633 179.334 38.65C179.474 38.79 179.544 38.9533 179.544 39.14C179.544 39.7 179.871 40.1433 180.524 40.47C181.037 40.7967 181.644 40.9833 182.344 41.03C183.044 41.03 183.907 40.7967 184.934 40.33C185.681 39.9567 186.381 39.4667 187.034 38.86C187.734 38.2533 188.457 37.7167 189.204 37.25C189.717 36.9233 190.114 36.6433 190.394 36.41C190.721 36.1767 190.884 36.1533 190.884 36.34C190.884 36.5267 190.954 36.62 191.094 36.62C191.234 36.62 191.397 36.5267 191.584 36.34C191.864 35.9667 192.167 35.7333 192.494 35.64C192.821 35.5 193.101 35.4533 193.334 35.5C193.614 35.5 193.754 35.57 193.754 35.71C193.661 36.13 193.754 36.48 194.034 36.76C194.034 36.9467 193.964 37.2033 193.824 37.53C193.731 37.81 193.591 38.0433 193.404 38.23C193.171 38.5567 192.821 38.93 192.354 39.35C191.934 39.77 191.537 40.1433 191.164 40.47C190.791 40.75 190.604 40.89 190.604 40.89C190.417 40.8433 190.231 40.89 190.044 41.03C189.904 41.17 189.741 41.3333 189.554 41.52C189.181 41.8467 188.831 42.1033 188.504 42.29C188.177 42.43 187.921 42.5 187.734 42.5C187.407 42.6867 187.151 42.8033 186.964 42.85C186.824 42.8967 186.754 43.0133 186.754 43.2C186.287 43.6667 185.704 43.9933 185.004 44.18C184.351 44.32 183.371 44.39 182.064 44.39ZM206.605 43.34C205.625 43.5267 204.995 43.5967 204.715 43.55C204.482 43.4567 204.108 43.1767 203.595 42.71C202.848 42.3367 202.218 41.87 201.705 41.31C201.238 40.75 200.888 40.1667 200.655 39.56C200.468 38.9067 200.398 38.37 200.445 37.95C200.585 36.3167 200.982 34.5667 201.635 32.7C202.288 30.8333 203.082 29.0367 204.015 27.31C204.948 25.5833 205.952 24.1133 207.025 22.9C208.145 21.64 209.218 20.8233 210.245 20.45C211.178 20.0767 212.065 19.9367 212.905 20.03C213.745 20.1233 214.352 20.5667 214.725 21.36C215.425 22.7133 215.262 23.5767 214.235 23.95C214.095 23.95 213.932 24.02 213.745 24.16C213.558 24.2533 213.465 24.3933 213.465 24.58C213.652 24.6733 214.165 24.6967 215.005 24.65C215.845 24.5567 216.685 24.4167 217.525 24.23C218.412 23.9967 218.995 23.7633 219.275 23.53C219.555 23.39 219.765 23.32 219.905 23.32C220.045 23.32 220.395 23.3667 220.955 23.46C221.748 23.6933 222.145 23.9733 222.145 24.3C222.145 24.4867 222.215 24.6733 222.355 24.86C222.495 25 222.658 25.07 222.845 25.07C223.172 25.1167 223.125 25.3267 222.705 25.7C222.332 26.0733 221.678 26.5867 220.745 27.24C219.858 27.8 219.298 28.1733 219.065 28.36C218.878 28.5 218.855 28.8267 218.995 29.34C219.368 30.2267 219.392 31.2533 219.065 32.42C218.738 33.5867 218.155 34.7767 217.315 35.99C216.475 37.2033 215.448 38.3467 214.235 39.42C213.068 40.4467 211.808 41.3333 210.455 42.08C209.148 42.78 207.865 43.2 206.605 43.34ZM205.415 40.26C205.602 40.26 205.928 40.1667 206.395 39.98C206.862 39.7467 207.235 39.56 207.515 39.42C207.702 39.2333 207.935 39.0233 208.215 38.79C208.542 38.51 208.798 38.3467 208.985 38.3C209.172 38.3 209.405 38.23 209.685 38.09C209.965 37.9033 210.362 37.5533 210.875 37.04C211.388 36.48 212.065 35.6633 212.905 34.59C213.838 33.5633 214.562 32.63 215.075 31.79C215.588 30.9033 215.728 30.0867 215.495 29.34C215.448 29.1533 215.308 29.0367 215.075 28.99C214.888 28.9433 214.632 28.8267 214.305 28.64C213.838 28.64 213.395 28.5233 212.975 28.29C212.602 28.01 212.158 27.66 211.645 27.24L210.525 25.84L209.335 27.03C208.588 27.7767 207.795 28.8967 206.955 30.39C206.162 31.8367 205.485 33.33 204.925 34.87C204.365 36.3633 204.038 37.5533 203.945 38.44C203.898 39.14 204.015 39.6067 204.295 39.84C204.575 40.0733 204.948 40.2133 205.415 40.26ZM227.223 42.57C226.709 42.2433 226.243 41.8233 225.823 41.31C225.403 40.75 225.193 40.05 225.193 39.21C225.193 38.7433 225.286 37.95 225.473 36.83C225.659 35.71 225.916 34.45 226.243 33.05C226.569 31.65 226.896 30.3433 227.223 29.13C227.689 28.29 228.086 27.45 228.413 26.61C228.739 25.77 228.903 25.2567 228.903 25.07C228.996 24.51 229.113 23.8567 229.253 23.11C229.439 22.3633 229.626 21.6867 229.813 21.08C229.999 20.4733 230.139 20.1233 230.233 20.03C230.466 19.7967 230.746 19.6567 231.073 19.61C231.399 19.5167 231.726 19.5633 232.053 19.75C232.426 19.89 232.706 20.1933 232.893 20.66C233.406 21.22 233.663 21.8967 233.663 22.69C233.663 23.4367 233.406 24.5567 232.893 26.05C232.473 26.9833 232.053 28.08 231.633 29.34C231.213 30.6 230.839 31.7667 230.513 32.84C230.233 33.8667 230.069 34.5667 230.023 34.94L228.623 35.36C229.416 34.6133 230.163 33.8433 230.863 33.05C231.563 32.21 232.076 31.5567 232.403 31.09C233.196 30.0167 233.873 29.13 234.433 28.43C235.039 27.6833 235.809 26.7967 236.743 25.77C237.676 24.6967 238.586 24.0433 239.473 23.81C240.406 23.53 241.129 23.39 241.643 23.39C242.669 23.5767 243.486 24.1133 244.093 25C244.746 25.84 245.166 27.1 245.353 28.78C245.353 29.4333 245.283 30.2033 245.143 31.09C245.049 31.9767 245.003 32.42 245.003 32.42C245.003 32.42 245.376 31.93 246.123 30.95C246.916 29.97 247.966 28.8967 249.273 27.73C250.159 27.0767 251.023 26.7033 251.863 26.61C252.703 26.47 253.449 26.75 254.103 27.45C255.316 28.1033 256.109 29.1067 256.483 30.46C256.856 31.7667 256.949 33.4467 256.763 35.5C256.623 36.7133 256.599 37.6233 256.693 38.23C256.786 38.79 256.926 39.35 257.113 39.91C257.486 40.0967 257.556 40.4933 257.323 41.1C257.089 41.66 256.809 41.94 256.483 41.94C256.016 41.94 255.479 41.8467 254.873 41.66C254.313 41.4733 253.799 41.17 253.333 40.75C252.913 40.2833 252.703 39.6533 252.703 38.86V34.52C252.703 33.4933 252.656 32.6533 252.563 32C252.516 31.3467 252.399 30.95 252.213 30.81C251.699 30.53 250.953 30.8333 249.973 31.72C248.993 32.6067 247.943 33.7967 246.823 35.29C245.703 36.7833 244.653 38.3233 243.673 39.91C242.786 41.3567 242.226 42.1967 241.993 42.43C241.806 42.6167 241.456 42.5467 240.943 42.22C239.916 41.8933 239.263 41.45 238.983 40.89C238.749 40.2833 238.726 39.6067 238.913 38.86C239.146 38.0667 239.426 36.9933 239.753 35.64C240.126 34.2867 240.476 32.98 240.803 31.72C241.129 30.4133 241.339 29.48 241.433 28.92C241.246 28.5467 240.919 28.43 240.453 28.57C240.033 28.6633 239.589 28.8733 239.123 29.2C238.563 29.5733 237.886 30.2733 237.093 31.3C236.299 32.3267 235.483 33.5167 234.643 34.87C234.083 35.7567 233.499 36.6433 232.893 37.53C232.286 38.37 231.726 39.1167 231.213 39.77C230.699 40.4233 230.256 40.9133 229.883 41.24C229.229 42.2667 228.786 42.8267 228.553 42.92C228.319 43.0133 227.876 42.8967 227.223 42.57ZM268.003 44.32C266.183 43.5733 264.993 42.5467 264.433 41.24C263.919 39.8867 263.826 37.81 264.153 35.01C264.246 33.5633 264.293 32.6067 264.293 32.14C264.293 31.6733 264.036 31.2067 263.523 30.74C263.383 30.5533 263.126 30.2967 262.753 29.97C262.426 29.6433 262.286 29.3633 262.333 29.13C262.286 28.8033 262.309 28.4533 262.403 28.08C262.496 27.66 262.636 27.45 262.823 27.45C263.009 27.45 263.196 27.4033 263.383 27.31C263.616 27.2167 263.826 27.2167 264.013 27.31C264.199 27.31 264.409 27.3333 264.643 27.38C264.876 27.4267 264.993 27.5433 264.993 27.73C265.179 28.0567 265.483 28.1033 265.903 27.87C266.323 27.59 266.766 26.9833 267.233 26.05C267.699 25.3033 268.306 24.5567 269.053 23.81C269.846 23.0633 270.616 22.3867 271.363 21.78C272.156 21.1267 272.809 20.66 273.323 20.38C273.556 20.2867 273.906 20.17 274.373 20.03C274.839 19.89 275.329 19.7733 275.843 19.68C276.403 19.5867 276.869 19.5633 277.243 19.61C278.083 19.6567 278.783 19.89 279.343 20.31C279.949 20.73 280.509 21.22 281.023 21.78C281.629 22.2 282.003 22.76 282.143 23.46C282.329 24.16 282.376 24.9067 282.283 25.7C282.189 26.4933 281.979 27.2167 281.653 27.87C281.513 28.3367 281.116 28.8967 280.463 29.55C279.809 30.2033 279.063 30.8333 278.223 31.44C277.383 32.0467 276.613 32.49 275.913 32.77C275.306 32.91 274.513 33.0267 273.533 33.12C272.599 33.2133 271.713 33.26 270.873 33.26C270.079 33.2133 269.543 33.12 269.263 32.98C268.936 32.7933 268.679 33.05 268.493 33.75C268.306 34.45 268.166 35.4533 268.073 36.76C267.979 37.7867 267.979 38.5333 268.073 39C268.166 39.4667 268.259 39.7933 268.353 39.98C268.679 40.3067 269.123 40.7267 269.683 41.24C270.289 41.7067 271.129 41.7767 272.203 41.45C273.089 41.2167 273.953 40.61 274.793 39.63C275.679 38.65 276.496 37.8567 277.243 37.25C277.429 36.9233 277.733 36.7367 278.153 36.69C278.619 36.5967 279.109 36.62 279.623 36.76C280.136 37.0867 280.346 37.4833 280.253 37.95C280.206 38.37 279.973 39.0233 279.553 39.91C279.413 40.2367 279.086 40.6567 278.573 41.17C278.106 41.6367 277.569 42.1267 276.963 42.64C276.403 43.1067 275.889 43.48 275.423 43.76C274.023 44.5067 272.716 44.9033 271.503 44.95C270.289 44.95 269.123 44.74 268.003 44.32ZM272.133 30.11C273.159 29.8767 273.976 29.7133 274.583 29.62C275.189 29.5267 275.773 29.27 276.333 28.85C276.893 28.3833 277.593 27.52 278.433 26.26C278.619 25.7467 278.666 25.2333 278.573 24.72C278.526 24.2067 278.409 23.8567 278.223 23.67C277.803 23.2033 277.289 23.0633 276.683 23.25C276.123 23.39 275.586 23.6467 275.073 24.02C274.746 24.16 274.256 24.51 273.603 25.07C272.996 25.5833 272.389 26.19 271.783 26.89C271.176 27.5433 270.686 28.15 270.313 28.71C269.939 29.27 269.846 29.5967 270.033 29.69C269.939 29.8767 270.196 29.9933 270.803 30.04C271.456 30.0867 271.899 30.11 272.133 30.11ZM308.349 45.51C307.836 45.4167 307.299 45.16 306.739 44.74C306.226 44.2733 305.759 43.76 305.339 43.2C304.966 42.5933 304.709 42.0567 304.569 41.59C304.569 41.4967 304.499 41.38 304.359 41.24C304.266 41.1 304.219 41.03 304.219 41.03C304.033 40.89 303.916 40.2833 303.869 39.21C303.869 38.09 303.939 36.8533 304.079 35.5C304.219 34.1467 304.383 33.0733 304.569 32.28C304.803 31.5333 305.153 30.53 305.619 29.27C306.086 27.9633 306.483 26.7967 306.809 25.77L308.699 21.71L305.899 20.94C305.573 20.8467 305.293 20.66 305.059 20.38C304.873 20.1 304.779 19.8667 304.779 19.68C304.779 19.3067 304.989 18.8633 305.409 18.35C305.829 17.79 306.133 17.51 306.319 17.51C306.553 17.5567 306.973 17.58 307.579 17.58C308.233 17.58 308.863 17.5567 309.469 17.51C310.076 17.4633 310.449 17.4167 310.589 17.37C310.776 17.2767 310.963 17.16 311.149 17.02C311.336 16.8333 311.476 16.5767 311.569 16.25C311.803 15.7367 312.013 15.27 312.199 14.85C312.386 14.3833 312.643 13.87 312.969 13.31C313.296 12.7033 313.553 12.19 313.739 11.77C313.973 11.35 314.323 10.7667 314.789 10.02C315.023 9.69333 315.279 9.29666 315.559 8.83C315.839 8.36333 316.189 7.96667 316.609 7.64C317.029 7.26666 317.449 7.10333 317.869 7.15C318.336 7.15 318.919 7.45333 319.619 8.06C319.993 8.52667 320.203 8.87667 320.249 9.11C320.296 9.34333 320.109 9.78667 319.689 10.44C319.316 11.2333 318.873 12.0267 318.359 12.82C317.893 13.6133 317.449 14.4067 317.029 15.2C316.283 16.2267 316.143 16.81 316.609 16.95C317.076 17.09 318.383 16.9967 320.529 16.67C321.883 16.4367 322.863 16.5067 323.469 16.88C324.076 17.2067 324.426 17.7667 324.519 18.56C324.659 19.68 324.543 20.3567 324.169 20.59C323.796 20.8233 322.723 20.94 320.949 20.94C319.829 21.1267 318.873 21.2433 318.079 21.29C317.286 21.29 316.703 21.29 316.329 21.29C315.723 21.3367 315.326 21.36 315.139 21.36C314.953 21.36 314.673 21.4067 314.299 21.5C313.926 21.5933 313.646 21.7567 313.459 21.99C313.319 22.1767 313.156 22.4567 312.969 22.83C312.783 23.0167 312.503 23.5067 312.129 24.3C311.756 25.0933 311.289 25.9567 310.729 26.89C310.076 28.85 309.516 30.81 309.049 32.77C308.583 34.6833 308.209 36.55 307.929 38.37C307.743 39.5367 307.766 40.3533 307.999 40.82C308.233 41.24 308.839 41.4967 309.819 41.59C310.333 41.6367 311.149 41.6367 312.269 41.59C313.436 41.4967 314.346 41.3567 314.999 41.17C315.513 40.9367 316.049 40.7033 316.609 40.47C317.169 40.19 317.683 39.91 318.149 39.63C318.569 39.3967 318.989 39.1633 319.409 38.93C319.829 38.65 320.039 38.51 320.039 38.51C320.273 38.1367 320.529 38.02 320.809 38.16C321.089 38.3 321.323 38.65 321.509 39.21C321.509 39.77 321.393 40.3533 321.159 40.96C320.926 41.5667 320.063 42.29 318.569 43.13C316.469 44.4367 314.533 45.23 312.759 45.51C311.033 45.7433 309.563 45.7433 308.349 45.51ZM330.823 44.95C330.216 44.95 329.726 44.8333 329.353 44.6C329.026 44.3667 328.606 44.04 328.093 43.62C327.206 42.6867 326.576 41.8 326.203 40.96C325.83 40.0733 325.713 39.2333 325.853 38.44C325.993 38.0667 326.04 37.7167 325.993 37.39C325.993 37.0167 325.993 36.83 325.993 36.83C325.76 36.5967 325.69 36.4567 325.783 36.41C325.876 36.3167 325.97 36.1767 326.063 35.99C326.343 35.99 326.436 35.7333 326.343 35.22C326.25 34.8467 326.436 34.03 326.903 32.77C327.37 31.51 327.953 30.32 328.653 29.2C328.933 28.7333 329.353 28.1267 329.913 27.38C330.473 26.5867 331.08 25.8167 331.733 25.07C332.433 24.2767 333.063 23.6467 333.623 23.18C334.79 22.2 335.816 21.4767 336.703 21.01C337.59 20.5433 338.546 20.1933 339.573 19.96C340.6 19.7267 341.3 19.61 341.673 19.61C342.093 19.61 342.653 19.9833 343.353 20.73C344.426 21.1967 345.196 21.7567 345.663 22.41C346.176 23.0633 346.503 24.02 346.643 25.28C346.783 26.68 346.666 28.29 346.293 30.11C345.966 31.8833 344.87 34.1 343.003 36.76C341.836 38.44 340.763 39.7 339.783 40.54C338.803 41.3333 337.636 42.1267 336.283 42.92C335.303 43.5733 334.416 44.0633 333.623 44.39C332.83 44.67 331.896 44.8567 330.823 44.95ZM337.543 37.53C338.663 36.27 339.55 35.08 340.203 33.96C340.903 32.84 341.556 31.4167 342.163 29.69C342.35 29.1767 342.466 28.5467 342.513 27.8C342.56 27.0067 342.536 26.2833 342.443 25.63C342.396 24.93 342.233 24.5333 341.953 24.44C341.393 24.1133 340.716 24.02 339.923 24.16C339.13 24.2533 338.266 24.6967 337.333 25.49C335.886 26.7033 334.626 28.22 333.553 30.04C332.48 31.8133 331.43 33.8433 330.403 36.13C329.703 37.81 329.54 39.1633 329.913 40.19C330.333 41.17 331.196 41.52 332.503 41.24C333.856 40.9133 335.536 39.6767 337.543 37.53ZM10.8906 140.65C10.004 140.79 9.18729 140.86 8.44063 140.86C7.69396 140.907 6.59729 140.743 5.15063 140.37C4.40396 140.137 3.86729 139.857 3.54063 139.53C3.26063 139.203 2.77063 138.597 2.07063 137.71C1.55729 136.963 1.18396 136.263 0.950625 135.61C0.763959 135.003 0.740625 134.513 0.880625 134.14C1.02063 133.813 1.32396 133.72 1.79063 133.86C1.93063 133.907 2.14063 134.047 2.42063 134.28C2.74729 134.56 3.05063 134.887 3.33063 135.26C3.98396 135.96 4.77729 136.427 5.71063 136.66C6.64396 136.893 7.88063 136.917 9.42063 136.73C10.074 136.59 10.8673 136.38 11.8006 136.1C12.734 135.867 13.644 135.563 14.5306 135.19C15.4173 134.817 16.1173 134.443 16.6306 134.07C19.104 132.39 21.0873 131.06 22.5806 130.08C24.074 129.1 24.8206 128.61 24.8206 128.61C24.914 128.423 25.0773 128.283 25.3106 128.19C25.5906 128.05 25.9173 127.91 26.2906 127.77C26.5706 127.49 27.014 127.047 27.6206 126.44C28.274 125.833 28.8806 125.227 29.4406 124.62C30.0473 124.013 30.4206 123.663 30.5606 123.57C30.654 123.15 30.7473 122.823 30.8406 122.59C30.934 122.31 30.9806 122.03 30.9806 121.75C31.354 121.377 31.844 120.607 32.4506 119.44C33.104 118.227 33.7573 116.897 34.4106 115.45C35.064 113.957 35.5306 112.603 35.8106 111.39C36.464 108.123 36.6273 105.37 36.3006 103.13C35.974 100.89 35.2973 98.9767 34.2706 97.39C33.2906 95.7567 32.054 94.31 30.5606 93.05C30.0473 92.63 29.324 92.1867 28.3906 91.72C27.504 91.2067 26.5706 90.7633 25.5906 90.39C24.6106 90.0167 23.7473 89.7133 23.0006 89.48C22.3006 89.2467 21.8806 89.1533 21.7406 89.2C21.554 89.2467 21.1573 89.9933 20.5506 91.44C19.9906 92.84 19.314 94.6367 18.5206 96.83C17.7273 99.0233 16.864 101.357 15.9306 103.83C15.044 106.303 14.204 108.637 13.4106 110.83C13.1306 111.717 12.8273 112.65 12.5006 113.63C12.174 114.61 11.894 115.473 11.6606 116.22C11.4273 116.92 11.3106 117.387 11.3106 117.62C10.7973 118.413 10.3773 119.463 10.0506 120.77C9.77063 122.077 9.44396 124.247 9.07063 127.28C8.65063 128.867 8.34729 130.08 8.16063 130.92C7.97396 131.713 7.78729 132.087 7.60063 132.04C7.60063 132.04 7.57729 132.063 7.53063 132.11C7.53063 132.11 7.46063 132.18 7.32063 132.32C7.32063 132.6 7.13396 132.74 6.76063 132.74C6.38729 132.74 5.94396 132.647 5.43062 132.46C4.96396 132.227 4.59063 131.97 4.31063 131.69C4.17063 131.177 4.07729 130.687 4.03063 130.22C4.03063 129.753 4.21729 128.843 4.59063 127.49C4.82396 126.603 5.10396 125.53 5.43062 124.27C5.80396 122.963 6.20063 121.633 6.62063 120.28C7.04063 118.88 7.43729 117.597 7.81063 116.43C8.18396 115.263 8.46396 114.377 8.65063 113.77C8.97729 112.977 9.44396 111.483 10.0506 109.29C10.424 108.077 10.7973 106.863 11.1706 105.65C11.5906 104.437 11.9873 103.363 12.3606 102.43C12.734 101.45 12.9906 100.82 13.1306 100.54C13.364 99.9333 13.714 98.9067 14.1806 97.46C14.6473 96.0133 15.254 94.4033 16.0006 92.63L16.4906 90.32L15.7206 89.97C15.1606 90.1567 14.7173 90.2267 14.3906 90.18C14.1106 90.0867 13.924 90.0167 13.8306 89.97C13.5506 90.0633 13.154 89.9933 12.6406 89.76C12.1273 89.5267 11.6606 89.2233 11.2406 88.85C10.8673 88.4767 10.634 88.15 10.5406 87.87C10.4473 87.6833 10.3773 87.45 10.3306 87.17C10.3306 86.8433 10.3306 86.68 10.3306 86.68C10.3773 86.4 10.7273 86.1433 11.3806 85.91C12.034 85.63 12.874 85.3967 13.9006 85.21C14.974 85.0233 16.1173 84.9067 17.3306 84.86C18.5906 84.7667 19.804 84.7667 20.9706 84.86C22.184 84.9533 23.3273 85.21 24.4006 85.63C25.474 86.05 26.6406 86.4933 27.9006 86.96C29.394 87.52 30.9573 88.5 32.5906 89.9C34.2706 91.2533 35.7873 92.8633 37.1406 94.73C38.5406 96.5967 39.474 98.5567 39.9406 100.61C40.0806 101.17 40.2206 101.963 40.3606 102.99C40.5006 104.017 40.5706 105.02 40.5706 106C40.6173 106.933 40.524 107.54 40.2906 107.82C40.1973 108.007 40.1273 108.24 40.0806 108.52C40.0806 108.753 40.174 108.917 40.3606 109.01C40.314 109.15 40.1506 109.687 39.8706 110.62C39.5906 111.507 39.334 112.277 39.1006 112.93C39.0073 114.143 38.7273 115.403 38.2606 116.71C37.794 118.017 37.2806 119.253 36.7206 120.42C36.1606 121.54 35.6473 122.497 35.1806 123.29C34.994 123.29 34.8073 123.337 34.6206 123.43C34.4806 123.477 34.504 123.523 34.6906 123.57C34.6906 123.803 34.434 124.247 33.9206 124.9C33.734 125.04 33.4306 125.39 33.0106 125.95C32.6373 126.463 32.334 126.813 32.1006 127C32.054 127.327 31.914 127.607 31.6806 127.84C31.4473 128.027 31.2373 128.12 31.0506 128.12C31.0506 128.12 31.004 128.12 30.9106 128.12C30.864 128.12 30.8406 128.213 30.8406 128.4C30.4673 128.96 29.884 129.637 29.0906 130.43C28.2973 131.177 27.3873 131.97 26.3606 132.81C25.3806 133.603 24.354 134.35 23.2806 135.05C22.254 135.75 21.274 136.287 20.3406 136.66C19.874 136.987 19.384 137.243 18.8706 137.43C18.3573 137.663 17.8673 137.897 17.4006 138.13C17.1673 138.317 16.654 138.573 15.8606 138.9C15.0673 139.273 14.204 139.623 13.2706 139.95C12.384 140.277 11.5906 140.51 10.8906 140.65ZM44.4048 131.76C44.0314 131.387 43.7514 130.92 43.5648 130.36C43.4248 129.8 43.3781 129.24 43.4248 128.68C43.4714 128.12 43.5881 127.653 43.7748 127.28C43.7748 126.907 43.8214 126.627 43.9148 126.44C44.0548 126.207 44.1014 125.997 44.0548 125.81C44.0081 125.623 44.0548 125.297 44.1948 124.83C44.3348 124.363 44.4748 123.92 44.6148 123.5C44.9414 122.753 45.2914 121.867 45.6648 120.84C46.0381 119.767 46.3881 118.717 46.7148 117.69C47.0414 116.663 47.3214 115.777 47.5548 115.03C47.7881 114.283 47.9281 113.817 47.9748 113.63C47.9748 113.07 48.3481 112.767 49.0948 112.72C49.6548 112.533 50.0748 112.533 50.3548 112.72C50.6348 112.86 51.0081 113.303 51.4748 114.05C51.8481 114.423 51.9881 114.983 51.8948 115.73C51.8014 116.477 51.4981 117.41 50.9848 118.53C50.7981 118.903 50.5648 119.44 50.2848 120.14C50.0514 120.84 49.8881 121.47 49.7948 122.03C49.6081 122.403 49.3748 122.94 49.0948 123.64C48.8614 124.293 48.6514 124.923 48.4648 125.53C48.3714 125.763 48.2781 126.113 48.1848 126.58C48.0914 127 47.9748 127.467 47.8348 127.98C47.6948 128.447 47.5081 128.867 47.2748 129.24C46.8548 131.153 46.4581 132.273 46.0848 132.6C45.7581 132.927 45.1981 132.647 44.4048 131.76ZM51.1948 103.34C50.9614 103.107 50.7514 102.78 50.5648 102.36C50.3781 101.893 50.2614 101.473 50.2148 101.1C50.1681 100.68 50.2148 100.47 50.3548 100.47C50.7281 100.423 51.1714 100.027 51.6848 99.28C52.1981 98.5333 52.4081 97.88 52.3148 97.32C52.3148 97.1333 52.3848 96.97 52.5248 96.83C52.6648 96.6433 52.8281 96.5267 53.0148 96.48C53.5748 96.1067 54.1114 96.06 54.6248 96.34C55.1848 96.5733 55.6981 97.0633 56.1648 97.81C56.5848 98.6967 56.7014 99.4433 56.5148 100.05C56.3281 100.61 55.8148 101.403 54.9748 102.43C54.2748 103.363 53.6214 103.877 53.0148 103.97C52.4548 104.063 51.8481 103.853 51.1948 103.34ZM64.0414 147.37C62.7347 147.883 61.3581 147.79 59.9114 147.09C58.5114 146.437 57.2981 145.387 56.2714 143.94C56.0847 143.66 55.8514 143.217 55.5714 142.61C55.3381 142.05 55.1047 141.467 54.8714 140.86C54.6847 140.253 54.5681 139.717 54.5214 139.25C54.4747 138.783 54.5214 138.503 54.6614 138.41C54.8014 138.27 55.0347 138.223 55.3614 138.27C55.6881 138.317 55.9914 138.433 56.2714 138.62C56.5981 138.807 56.8081 139.04 56.9014 139.32C57.0414 139.647 57.2514 140.067 57.5314 140.58C57.8581 141.093 58.2081 141.56 58.5814 141.98C58.9547 142.4 59.2347 142.633 59.4214 142.68C60.3081 143.1 60.9614 143.287 61.3814 143.24C61.8014 143.193 62.1747 143.053 62.5014 142.82C63.2947 142.213 63.9481 141.42 64.4614 140.44C64.9747 139.46 65.5581 137.943 66.2114 135.89C66.7247 134.163 67.2381 132.343 67.7514 130.43C68.3114 128.47 68.8014 126.953 69.2214 125.88C69.3614 125.32 69.5247 124.853 69.7114 124.48C69.9447 124.06 70.1547 123.757 70.3414 123.57H70.7614C69.7347 124.223 68.8247 124.97 68.0314 125.81C67.2381 126.65 66.2347 127.327 65.0214 127.84C64.7414 128.167 64.0414 128.377 62.9214 128.47C61.8481 128.517 60.7981 128.377 59.7714 128.05C59.1181 127.677 58.6281 127.397 58.3014 127.21C58.0214 127.023 57.7881 126.767 57.6014 126.44C57.4614 126.113 57.2514 125.6 56.9714 124.9C56.6447 124.2 56.5981 123.057 56.8314 121.47C57.0647 119.883 57.4847 118.297 58.0914 116.71C58.6514 115.543 59.4681 114.283 60.5414 112.93C61.6147 111.577 62.7581 110.363 63.9714 109.29C65.1847 108.17 66.2814 107.47 67.2614 107.19C67.6347 107.003 68.0314 106.887 68.4514 106.84C68.9181 106.747 69.5714 106.817 70.4114 107.05C71.2047 107.143 71.8114 107.33 72.2314 107.61C72.6514 107.843 73.3281 108.357 74.2614 109.15C74.8681 109.757 75.3581 110.363 75.7314 110.97C76.1514 111.577 76.4781 112.207 76.7114 112.86C77.0381 113.56 77.1547 114.213 77.0614 114.82C77.0147 115.38 76.7581 115.963 76.2914 116.57C75.8714 117.177 75.4281 117.783 74.9614 118.39C74.4947 118.997 74.1447 119.837 73.9114 120.91C73.6781 122.31 73.3047 123.897 72.7914 125.67C72.2781 127.397 71.8347 129.007 71.4614 130.5L70.3414 134.84C69.1747 138.807 68.0547 141.747 66.9814 143.66C65.9547 145.62 64.9747 146.857 64.0414 147.37ZM61.5214 124.97C62.4547 124.923 63.3414 124.737 64.1814 124.41C65.0214 124.083 65.8381 123.547 66.6314 122.8C67.4247 122.007 68.2181 121.003 69.0114 119.79C69.8047 118.67 70.3647 117.503 70.6914 116.29C71.0181 115.03 71.1347 113.817 71.0414 112.65C70.9947 111.903 70.8781 111.413 70.6914 111.18C70.5047 110.947 70.1081 110.877 69.5014 110.97C68.6147 111.11 67.6347 111.6 66.5614 112.44C65.4881 113.233 64.4847 114.237 63.5514 115.45C62.8514 116.383 62.2681 117.503 61.8014 118.81C61.3347 120.21 61.0547 121.54 60.9614 122.8C60.8681 124.06 61.0547 124.783 61.5214 124.97ZM85.0742 131.83C84.3742 131.737 83.7676 131.247 83.2542 130.36C82.7876 129.427 82.5076 128.587 82.4142 127.84C82.4609 127.467 82.5076 126.93 82.5542 126.23C82.6476 125.53 82.7409 124.807 82.8342 124.06C83.0209 123.173 83.2776 122.1 83.6042 120.84C83.9309 119.533 84.2576 118.227 84.5842 116.92C84.9576 115.613 85.2842 114.493 85.5642 113.56C85.8442 112.627 86.0309 112.067 86.1242 111.88C86.3576 111.507 86.7309 111.413 87.2442 111.6C87.7576 111.787 88.1776 112.067 88.5042 112.44C88.7842 112.813 88.9476 113.257 88.9942 113.77C89.0876 114.283 89.0176 115.03 88.7842 116.01C88.5976 116.99 88.2242 118.437 87.6642 120.35C87.1509 122.217 86.7542 123.733 86.4742 124.9C86.2409 126.02 86.1476 127.21 86.1942 128.47C86.0076 130.057 85.8676 131.037 85.7742 131.41C85.6809 131.737 85.4476 131.877 85.0742 131.83ZM93.1242 103.9C92.9376 104.04 92.7509 104.11 92.5642 104.11C92.4242 104.063 92.1676 103.923 91.7942 103.69C91.4676 103.643 91.0476 103.433 90.5342 103.06C90.0676 102.64 89.6476 102.22 89.2742 101.8C88.9476 101.333 88.7842 101.053 88.7842 100.96C88.7376 100.493 88.7609 99.91 88.8542 99.21C88.9942 98.4633 89.2509 97.81 89.6242 97.25C89.9976 96.6433 90.5342 96.3167 91.2342 96.27C91.4209 96.27 91.5842 96.2933 91.7242 96.34C91.8642 96.3867 92.2842 96.55 92.9842 96.83C93.3576 97.53 93.7309 98.3233 94.1042 99.21C94.4776 100.05 94.6409 100.89 94.5942 101.73C94.5476 102.523 94.0576 103.247 93.1242 103.9ZM103.381 133.86C102.728 133.673 102.191 133.463 101.771 133.23C101.351 132.95 100.791 132.507 100.091 131.9C99.5309 131.153 99.0875 130.453 98.7609 129.8C98.4809 129.147 98.2942 128.4 98.2009 127.56C98.1075 126.673 98.0609 125.553 98.0609 124.2C98.0609 123.64 98.1542 122.8 98.3409 121.68C98.5742 120.56 98.8309 119.393 99.1109 118.18C99.4375 116.92 99.7175 115.8 99.9509 114.82C100.231 113.84 100.394 113.21 100.441 112.93C100.581 112.323 100.348 111.973 99.7409 111.88C99.1342 111.787 98.4575 111.763 97.7109 111.81C97.0109 111.81 96.5442 111.74 96.3109 111.6C96.1242 111.553 96.0309 111.483 96.0309 111.39C96.0309 111.25 96.0309 111.18 96.0309 111.18C96.0309 110.993 96.0075 110.877 95.9609 110.83C95.9609 110.737 95.8909 110.573 95.7509 110.34C95.6575 110.153 95.7042 109.897 95.8909 109.57C96.1242 109.197 96.4975 108.963 97.0109 108.87C97.4309 108.777 97.9909 108.707 98.6909 108.66C99.4375 108.567 100.184 108.403 100.931 108.17C101.678 107.89 102.284 107.47 102.751 106.91C103.171 105.883 103.661 104.74 104.221 103.48C104.781 102.22 105.318 101.1 105.831 100.12C106.391 99.0933 106.764 98.4633 106.951 98.23C107.744 97.81 108.328 97.6467 108.701 97.74C109.074 97.7867 109.494 98.1833 109.961 98.93C110.194 99.2567 110.358 99.5133 110.451 99.7C110.591 99.8867 110.614 100.167 110.521 100.54C110.428 100.913 110.171 101.497 109.751 102.29C109.378 103.083 108.794 104.227 108.001 105.72C107.768 106.187 107.558 106.607 107.371 106.98C107.184 107.307 107.091 107.47 107.091 107.47C107.278 107.517 107.558 107.54 107.931 107.54C108.304 107.54 108.771 107.517 109.331 107.47C109.844 107.377 110.498 107.307 111.291 107.26C112.084 107.167 112.714 107.167 113.181 107.26C114.254 107.26 115.048 107.47 115.561 107.89C116.074 108.263 116.354 108.917 116.401 109.85C116.494 110.363 116.378 110.667 116.051 110.76C115.771 110.853 115.001 110.9 113.741 110.9C113.321 110.9 112.668 110.923 111.781 110.97C110.894 111.017 109.961 111.063 108.981 111.11C108.048 111.157 107.231 111.227 106.531 111.32C105.878 111.367 105.551 111.437 105.551 111.53C105.411 111.623 105.178 112.067 104.851 112.86C104.571 113.653 104.268 114.563 103.941 115.59C103.661 116.57 103.404 117.457 103.171 118.25C102.844 119.837 102.588 121.423 102.401 123.01C102.261 124.597 102.238 125.973 102.331 127.14C102.424 128.307 102.681 129.123 103.101 129.59C103.521 130.01 104.338 130.103 105.551 129.87C106.764 129.59 107.744 129.147 108.491 128.54C109.331 127.84 110.008 127.49 110.521 127.49C111.081 127.49 111.384 127.747 111.431 128.26C111.524 128.727 111.268 129.403 110.661 130.29C110.101 131.13 109.401 131.877 108.561 132.53C107.721 133.137 106.834 133.58 105.901 133.86C105.014 134.093 104.174 134.093 103.381 133.86ZM122.145 131.69C121.585 131.783 120.978 131.69 120.325 131.41C119.671 131.13 119.088 130.733 118.575 130.22C118.108 129.707 117.805 129.17 117.665 128.61C117.478 127.63 117.595 126.417 118.015 124.97C118.481 123.477 119.135 121.913 119.975 120.28C120.861 118.6 121.841 116.99 122.915 115.45C124.035 113.91 125.178 112.58 126.345 111.46C127.558 110.293 128.678 109.5 129.705 109.08C130.218 108.753 130.615 108.543 130.895 108.45C131.221 108.31 131.548 108.287 131.875 108.38C132.248 108.473 132.785 108.707 133.485 109.08C134.138 109.267 134.628 109.477 134.955 109.71C135.281 109.943 135.701 110.41 136.215 111.11C136.588 111.81 136.868 112.51 137.055 113.21C137.241 113.91 137.405 114.703 137.545 115.59C137.918 116.757 138.058 117.527 137.965 117.9C137.871 118.227 137.731 118.483 137.545 118.67C137.171 119.137 137.078 119.37 137.265 119.37C137.265 119.37 137.241 119.463 137.195 119.65C137.195 119.79 137.101 120.023 136.915 120.35C136.588 121.377 136.331 122.45 136.145 123.57C136.005 124.643 136.028 125.53 136.215 126.23C136.588 127.257 137.265 127.863 138.245 128.05C139.225 128.237 140.228 127.817 141.255 126.79C141.768 126.417 142.258 126.09 142.725 125.81C143.191 125.483 143.425 125.507 143.425 125.88C143.425 125.88 143.495 125.95 143.635 126.09C143.775 126.183 143.938 126.23 144.125 126.23C144.358 126.23 144.498 126.323 144.545 126.51C144.638 126.697 144.638 126.953 144.545 127.28C144.498 127.56 144.358 127.887 144.125 128.26C143.425 128.96 143.075 129.427 143.075 129.66C143.075 129.66 142.981 129.753 142.795 129.94C142.655 130.08 142.398 130.313 142.025 130.64C141.185 131.153 140.111 131.41 138.805 131.41C137.545 131.41 136.565 131.153 135.865 130.64C135.165 130.127 134.511 129.427 133.905 128.54C133.345 127.653 132.971 126.883 132.785 126.23L132.435 125.53L130.405 126.86C129.891 127.373 129.331 127.863 128.725 128.33C128.165 128.797 127.791 129.123 127.605 129.31C127.465 129.497 127.301 129.66 127.115 129.8C126.975 129.94 126.811 130.01 126.625 130.01C126.438 130.01 126.275 130.01 126.135 130.01C125.995 130.01 125.925 130.01 125.925 130.01C125.925 130.197 125.691 130.43 125.225 130.71C124.805 130.99 124.291 131.223 123.685 131.41C123.125 131.597 122.611 131.69 122.145 131.69ZM121.445 127.91C121.725 127.91 122.215 127.7 122.915 127.28C123.661 126.813 124.478 126.277 125.365 125.67C126.298 125.063 127.115 124.457 127.815 123.85C128.561 123.243 129.075 122.777 129.355 122.45C129.541 122.263 129.845 121.96 130.265 121.54C130.685 121.073 131.058 120.677 131.385 120.35C132.458 119.137 133.205 117.807 133.625 116.36C134.045 114.867 133.998 113.7 133.485 112.86C133.298 112.347 133.065 112.067 132.785 112.02C132.505 111.973 131.921 112.137 131.035 112.51C130.475 112.837 129.775 113.467 128.935 114.4C128.141 115.287 127.278 116.337 126.345 117.55C125.458 118.717 124.618 119.93 123.825 121.19C123.031 122.45 122.378 123.617 121.865 124.69C121.351 125.763 121.095 126.603 121.095 127.21C121.095 127.397 121.141 127.56 121.235 127.7C121.375 127.84 121.445 127.91 121.445 127.91ZM146.586 134.63C145.979 134.397 145.536 134.047 145.256 133.58C144.976 133.067 144.812 132.343 144.766 131.41C144.766 130.85 144.859 130.103 145.046 129.17C145.232 128.237 145.442 127.163 145.676 125.95C145.676 125.857 145.676 125.763 145.676 125.67C145.722 125.53 145.746 125.437 145.746 125.39C145.792 125.203 145.839 124.923 145.886 124.55C145.979 124.177 146.049 123.897 146.096 123.71C146.142 123.477 146.166 123.477 146.166 123.71L146.656 121.82C146.889 120.98 147.122 120.14 147.356 119.3C147.589 118.46 147.799 117.737 147.986 117.13C148.172 116.477 148.289 116.103 148.336 116.01C148.336 116.01 148.429 115.753 148.616 115.24C148.802 114.68 148.989 114.143 149.176 113.63C149.969 111.437 150.692 109.593 151.346 108.1C151.999 106.56 152.582 105.44 153.096 104.74C153.142 104.6 153.212 104.437 153.306 104.25C153.399 104.017 153.469 103.83 153.516 103.69C153.562 103.317 153.609 103.037 153.656 102.85C153.749 102.617 153.866 102.407 154.006 102.22C154.099 102.033 154.239 101.8 154.426 101.52C154.612 101.193 154.822 100.797 155.056 100.33L155.336 99.56C155.616 98.9533 155.966 98.2767 156.386 97.53C156.806 96.7833 157.109 96.2467 157.296 95.92C157.482 95.5 157.762 95.01 158.136 94.45C158.509 93.8433 158.789 93.4467 158.976 93.26L158.906 93.19C159.139 92.77 159.419 92.5367 159.746 92.49C160.119 92.3967 160.516 92.35 160.936 92.35C161.589 92.35 161.962 92.4433 162.056 92.63C162.149 92.8167 162.196 93.2367 162.196 93.89C162.196 94.59 162.172 95.1033 162.126 95.43C162.126 95.71 161.939 96.0367 161.566 96.41H161.636C161.729 96.3167 161.706 96.4333 161.566 96.76C161.426 97.04 161.309 97.25 161.216 97.39C161.122 97.6233 161.006 97.88 160.866 98.16C160.772 98.44 160.656 98.65 160.516 98.79C160.376 98.9767 160.026 99.6067 159.466 100.68C158.952 101.707 158.346 102.92 157.646 104.32C156.992 105.72 156.362 107.073 155.756 108.38C155.149 109.687 154.706 110.69 154.426 111.39L154.076 112.44C153.982 112.627 153.936 112.767 153.936 112.86C153.796 113.187 153.656 113.513 153.516 113.84C153.376 114.167 153.236 114.447 153.096 114.68L151.906 118.74L151.556 120.21L150.926 121.75L150.506 123.08C150.412 123.36 150.342 123.617 150.296 123.85C150.249 124.083 150.156 124.27 150.016 124.41C150.016 124.457 149.992 124.527 149.946 124.62C149.946 124.667 149.946 124.713 149.946 124.76C149.759 125.507 149.549 126.557 149.316 127.91C149.082 129.263 148.919 130.687 148.826 132.18C148.826 132.227 148.802 132.273 148.756 132.32C148.756 132.367 148.756 132.413 148.756 132.46C148.616 133.44 148.382 134.093 148.056 134.42C147.729 134.747 147.239 134.817 146.586 134.63ZM175.785 131.48C175.598 131.107 175.365 130.827 175.085 130.64C174.805 130.407 174.665 130.197 174.665 130.01C174.665 129.823 174.642 129.637 174.595 129.45C174.595 129.217 174.502 129.007 174.315 128.82C174.082 128.54 174.105 127.91 174.385 126.93C174.665 125.903 175.132 124.667 175.785 123.22C176.438 121.727 177.208 120.163 178.095 118.53C178.468 118.157 178.842 117.667 179.215 117.06C179.588 116.453 179.868 116.057 180.055 115.87C180.055 115.683 180.125 115.52 180.265 115.38C180.405 115.193 180.568 115.1 180.755 115.1V114.68C180.755 114.447 180.965 114.05 181.385 113.49C181.852 112.93 182.412 112.323 183.065 111.67C183.718 110.97 184.395 110.317 185.095 109.71C185.795 109.057 186.378 108.59 186.845 108.31C187.825 107.657 188.828 107.26 189.855 107.12C190.928 106.98 191.838 107.213 192.585 107.82C192.725 107.96 192.958 108.193 193.285 108.52C193.612 108.847 193.985 109.22 194.405 109.64C194.872 110.013 195.338 110.41 195.805 110.83L198.395 113.14L197.135 116.64C196.528 118.507 196.365 120.14 196.645 121.54C196.972 122.94 197.438 124.153 198.045 125.18C198.278 125.693 198.745 126.183 199.445 126.65C200.192 127.117 200.892 127.397 201.545 127.49C201.918 127.537 202.268 127.677 202.595 127.91C202.922 128.143 203.085 128.517 203.085 129.03C203.085 129.497 202.992 129.87 202.805 130.15C202.618 130.43 202.292 130.617 201.825 130.71C200.285 130.897 198.838 130.523 197.485 129.59C196.178 128.657 194.965 127.117 193.845 124.97C193.658 124.69 193.402 124.177 193.075 123.43C192.795 122.637 192.632 122.123 192.585 121.89C192.398 122.123 192.048 122.567 191.535 123.22C191.022 123.827 190.625 124.27 190.345 124.55C187.032 127.91 184.162 130.173 181.735 131.34C179.355 132.46 177.372 132.507 175.785 131.48ZM178.305 127.56C178.305 127.887 178.795 127.887 179.775 127.56C180.802 127.187 181.898 126.533 183.065 125.6C184.652 124.247 186.238 122.753 187.825 121.12C189.458 119.487 190.765 117.97 191.745 116.57L193.285 114.05C192.818 112.977 192.305 112.253 191.745 111.88C191.232 111.46 190.788 111.25 190.415 111.25C189.808 111.25 188.898 111.81 187.685 112.93C186.518 114.05 185.258 115.543 183.905 117.41C182.552 119.277 181.268 121.33 180.055 123.57C179.588 124.503 179.168 125.413 178.795 126.3C178.468 127.14 178.305 127.56 178.305 127.56ZM207.182 131.55C206.762 131.223 206.458 130.897 206.272 130.57C206.132 130.243 206.132 129.613 206.272 128.68C206.412 127.373 206.598 126.23 206.832 125.25C207.065 124.223 207.345 123.057 207.672 121.75C207.765 121.19 208.022 120.233 208.442 118.88C208.908 117.527 209.468 116.057 210.122 114.47C210.775 112.883 211.428 111.39 212.082 109.99C212.735 108.543 213.295 107.47 213.762 106.77C214.135 106.49 214.578 106.373 215.092 106.42C215.652 106.467 216.118 106.677 216.492 107.05C217.005 107.47 217.075 108.217 216.702 109.29C216.375 110.317 215.675 111.95 214.602 114.19C214.042 115.45 213.622 116.407 213.342 117.06C213.062 117.667 212.945 118.04 212.992 118.18C213.038 118.273 213.248 118.203 213.622 117.97C213.902 117.457 214.415 116.873 215.162 116.22C215.908 115.52 216.702 114.843 217.542 114.19C218.382 113.537 219.175 112.953 219.922 112.44C220.668 111.927 221.182 111.6 221.462 111.46C221.835 111.227 222.255 111.04 222.722 110.9C223.235 110.713 223.585 110.573 223.772 110.48C224.845 109.967 225.942 109.78 227.062 109.92C228.182 110.06 228.882 110.48 229.162 111.18C229.208 111.553 229.348 111.833 229.582 112.02C229.862 112.207 230.002 112.3 230.002 112.3C230.188 112.3 230.282 112.37 230.282 112.51C230.328 112.65 230.352 112.72 230.352 112.72C230.352 113.047 230.095 113.257 229.582 113.35C229.115 113.397 228.508 113.443 227.762 113.49C227.155 113.537 226.618 113.653 226.152 113.84C225.685 114.027 225.125 114.26 224.472 114.54C222.698 115.567 220.995 116.57 219.362 117.55C217.775 118.53 216.235 119.837 214.742 121.47C214.415 121.843 214.088 122.287 213.762 122.8C213.435 123.313 213.085 123.873 212.712 124.48C212.478 124.713 212.245 125.227 212.012 126.02C211.778 126.813 211.568 127.583 211.382 128.33C211.242 129.03 211.172 129.45 211.172 129.59C211.172 129.59 211.102 129.823 210.962 130.29C210.822 130.71 210.588 131.13 210.262 131.55C209.702 132.297 209.235 132.67 208.862 132.67C208.488 132.67 207.928 132.297 207.182 131.55ZM239.826 133.86C239.173 133.673 238.636 133.463 238.216 133.23C237.796 132.95 237.236 132.507 236.536 131.9C235.976 131.153 235.533 130.453 235.206 129.8C234.926 129.147 234.74 128.4 234.646 127.56C234.553 126.673 234.506 125.553 234.506 124.2C234.506 123.64 234.6 122.8 234.786 121.68C235.02 120.56 235.276 119.393 235.556 118.18C235.883 116.92 236.163 115.8 236.396 114.82C236.676 113.84 236.84 113.21 236.886 112.93C237.026 112.323 236.793 111.973 236.186 111.88C235.58 111.787 234.903 111.763 234.156 111.81C233.456 111.81 232.99 111.74 232.756 111.6C232.57 111.553 232.476 111.483 232.476 111.39C232.476 111.25 232.476 111.18 232.476 111.18C232.476 110.993 232.453 110.877 232.406 110.83C232.406 110.737 232.336 110.573 232.196 110.34C232.103 110.153 232.15 109.897 232.336 109.57C232.57 109.197 232.943 108.963 233.456 108.87C233.876 108.777 234.436 108.707 235.136 108.66C235.883 108.567 236.63 108.403 237.376 108.17C238.123 107.89 238.73 107.47 239.196 106.91C239.616 105.883 240.106 104.74 240.666 103.48C241.226 102.22 241.763 101.1 242.276 100.12C242.836 99.0933 243.21 98.4633 243.396 98.23C244.19 97.81 244.773 97.6467 245.146 97.74C245.52 97.7867 245.94 98.1833 246.406 98.93C246.64 99.2567 246.803 99.5133 246.896 99.7C247.036 99.8867 247.06 100.167 246.966 100.54C246.873 100.913 246.616 101.497 246.196 102.29C245.823 103.083 245.24 104.227 244.446 105.72C244.213 106.187 244.003 106.607 243.816 106.98C243.63 107.307 243.536 107.47 243.536 107.47C243.723 107.517 244.003 107.54 244.376 107.54C244.75 107.54 245.216 107.517 245.776 107.47C246.29 107.377 246.943 107.307 247.736 107.26C248.53 107.167 249.16 107.167 249.626 107.26C250.7 107.26 251.493 107.47 252.006 107.89C252.52 108.263 252.8 108.917 252.846 109.85C252.94 110.363 252.823 110.667 252.496 110.76C252.216 110.853 251.446 110.9 250.186 110.9C249.766 110.9 249.113 110.923 248.226 110.97C247.34 111.017 246.406 111.063 245.426 111.11C244.493 111.157 243.676 111.227 242.976 111.32C242.323 111.367 241.996 111.437 241.996 111.53C241.856 111.623 241.623 112.067 241.296 112.86C241.016 113.653 240.713 114.563 240.386 115.59C240.106 116.57 239.85 117.457 239.616 118.25C239.29 119.837 239.033 121.423 238.846 123.01C238.706 124.597 238.683 125.973 238.776 127.14C238.87 128.307 239.126 129.123 239.546 129.59C239.966 130.01 240.783 130.103 241.996 129.87C243.21 129.59 244.19 129.147 244.936 128.54C245.776 127.84 246.453 127.49 246.966 127.49C247.526 127.49 247.83 127.747 247.876 128.26C247.97 128.727 247.713 129.403 247.106 130.29C246.546 131.13 245.846 131.877 245.006 132.53C244.166 133.137 243.28 133.58 242.346 133.86C241.46 134.093 240.62 134.093 239.826 133.86ZM277.503 137.5C275.963 137.267 274.913 136.683 274.353 135.75C273.84 134.863 273.723 133.487 274.003 131.62C274.283 130.733 274.446 129.94 274.493 129.24C274.586 128.493 274.796 128.027 275.123 127.84C275.123 127.84 275.146 127.77 275.193 127.63C275.286 127.49 275.263 127.35 275.123 127.21C275.123 126.603 275.333 125.763 275.753 124.69C275.846 124.41 275.963 124.083 276.103 123.71C276.29 123.29 276.383 123.08 276.383 123.08C276.15 122.707 276.15 122.403 276.383 122.17C276.616 121.937 276.85 121.727 277.083 121.54C277.363 121.307 277.386 121.05 277.153 120.77C277.06 120.583 277.176 120.163 277.503 119.51C277.83 118.81 278.203 118.087 278.623 117.34C279.043 116.593 279.323 116.01 279.463 115.59C279.463 115.497 279.58 115.17 279.813 114.61C280.046 114.05 280.326 113.397 280.653 112.65C280.98 111.903 281.283 111.227 281.563 110.62C281.89 110.013 282.1 109.617 282.193 109.43C282.66 109.197 282.473 109.033 281.633 108.94C280.793 108.847 279.906 108.823 278.973 108.87C277.526 108.823 276.36 108.753 275.473 108.66C274.633 108.567 273.933 108.357 273.373 108.03C272.813 107.377 272.603 106.91 272.743 106.63C272.93 106.303 273.49 106.117 274.423 106.07C275.03 106.023 275.496 106 275.823 106C276.196 106 276.663 105.977 277.223 105.93C277.83 105.837 278.763 105.72 280.023 105.58L283.593 105.3L283.803 104.11C284.176 103.503 284.48 102.967 284.713 102.5C284.993 101.987 285.226 101.473 285.413 100.96C285.6 100.447 285.74 99.91 285.833 99.35C285.833 99.35 286.043 98.9767 286.463 98.23C286.883 97.4367 287.14 96.62 287.233 95.78C287.793 94.8467 288.283 94.0067 288.703 93.26C289.123 92.4667 289.38 91.9767 289.473 91.79C289.986 91.37 290.336 91.16 290.523 91.16C290.756 91.16 291.223 91.3933 291.923 91.86C292.343 92.0933 292.716 92.3733 293.043 92.7C293.37 93.0267 293.58 93.3767 293.673 93.75C293.766 94.0767 293.626 94.4033 293.253 94.73C293.16 94.9167 293.02 95.2667 292.833 95.78C292.646 96.2467 292.506 96.6433 292.413 96.97C292.133 97.2967 291.783 97.8333 291.363 98.58C290.99 99.28 290.733 100.003 290.593 100.75C290.22 101.543 289.87 102.267 289.543 102.92C289.216 103.527 288.96 103.83 288.773 103.83C288.866 104.297 289.146 104.53 289.613 104.53C290.08 104.483 290.85 104.437 291.923 104.39C292.81 104.297 293.416 104.203 293.743 104.11C294.116 103.97 294.536 104.017 295.003 104.25C295.236 104.577 295.423 104.95 295.563 105.37C295.703 105.79 295.726 106.187 295.633 106.56C295.586 106.887 295.4 107.12 295.073 107.26C294.84 107.26 294.35 107.4 293.603 107.68C292.903 107.913 292.016 108.053 290.943 108.1L287.233 108.45L286.043 110.83C285.716 111.437 285.436 111.997 285.203 112.51C284.97 112.977 284.806 113.257 284.713 113.35C284.713 113.63 284.55 114.05 284.223 114.61C283.943 115.17 283.64 115.777 283.313 116.43C283.033 117.223 282.706 117.947 282.333 118.6C282.006 119.253 281.843 119.58 281.843 119.58C281.656 119.58 281.563 119.72 281.563 120C281.796 120.56 281.726 120.98 281.353 121.26C281.12 121.4 280.91 121.61 280.723 121.89C280.583 122.123 280.513 122.24 280.513 122.24C280.7 122.427 280.723 122.66 280.583 122.94C280.49 123.22 280.35 123.523 280.163 123.85C280.163 124.223 280.046 124.76 279.813 125.46C279.626 126.16 279.416 126.813 279.183 127.42C279.23 128.26 279.276 128.797 279.323 129.03C279.37 129.263 279.486 129.357 279.673 129.31C279.906 129.357 280.116 129.357 280.303 129.31C280.49 129.263 280.676 129.24 280.863 129.24C281.516 128.96 281.166 130.593 279.813 134.14C279.066 135.307 278.553 136.147 278.273 136.66C277.993 137.22 277.736 137.5 277.503 137.5ZM296.897 130.22C296.57 130.267 296.22 130.267 295.847 130.22C295.52 130.127 295.194 129.963 294.867 129.73C294.494 129.357 294.237 129.077 294.097 128.89C293.957 128.657 293.91 128.307 293.957 127.84C294.05 127.373 294.214 126.65 294.447 125.67C294.68 124.923 294.96 123.897 295.287 122.59C295.614 121.237 295.964 119.907 296.337 118.6C296.477 117.853 296.664 117.083 296.897 116.29C297.177 115.497 297.457 114.773 297.737 114.12C298.017 113.42 298.227 112.883 298.367 112.51C298.74 111.203 299.09 110.06 299.417 109.08C299.79 108.1 300.234 106.98 300.747 105.72C301.26 104.413 301.89 102.687 302.637 100.54C303.664 97.74 304.434 95.6167 304.947 94.17C305.507 92.6767 305.904 91.6033 306.137 90.95C306.417 90.25 306.604 89.7133 306.697 89.34C306.697 88.9667 306.79 88.6867 306.977 88.5C307.21 88.3133 307.49 88.22 307.817 88.22C308.47 88.22 308.984 88.5467 309.357 89.2C309.777 89.8067 310.034 90.5533 310.127 91.44C310.22 92.28 310.08 93.0733 309.707 93.82C308.96 95.5 308.167 97.5067 307.327 99.84C306.487 102.127 305.67 104.39 304.877 106.63C304.084 108.823 303.337 110.69 302.637 112.23C302.637 112.417 302.567 112.743 302.427 113.21C302.287 113.677 302.124 114.097 301.937 114.47C301.75 114.843 301.564 115.193 301.377 115.52C301.237 115.847 301.167 116.01 301.167 116.01C301.167 116.197 301.097 116.547 300.957 117.06C300.817 117.573 300.63 118.203 300.397 118.95C300.21 119.51 299.977 120.233 299.697 121.12C299.464 122.007 299.3 122.753 299.207 123.36C299.44 122.94 299.93 122.31 300.677 121.47C301.424 120.63 302.124 119.907 302.777 119.3C303.524 118.647 304.364 117.923 305.297 117.13C306.23 116.337 306.977 115.753 307.537 115.38C308.097 115.007 308.587 114.68 309.007 114.4C309.474 114.073 309.707 113.91 309.707 113.91C309.707 113.723 309.777 113.63 309.917 113.63C310.104 113.583 310.29 113.56 310.477 113.56C310.664 113.56 310.757 113.537 310.757 113.49C310.804 113.443 310.827 113.327 310.827 113.14C310.827 112.907 311.084 112.697 311.597 112.51C312.157 112.323 312.787 112.183 313.487 112.09C314.234 111.95 314.84 111.88 315.307 111.88C315.867 111.88 316.31 111.997 316.637 112.23C316.964 112.463 317.384 112.977 317.897 113.77C318.457 114.517 318.807 115.427 318.947 116.5C319.134 117.527 319.04 118.6 318.667 119.72C318.667 120.093 318.597 120.63 318.457 121.33C318.364 121.983 318.317 122.683 318.317 123.43L317.897 125.67H319.017C319.39 125.67 319.74 125.74 320.067 125.88C320.394 125.973 320.557 126.02 320.557 126.02C320.744 126.207 320.93 126.393 321.117 126.58C321.304 126.72 321.49 126.79 321.677 126.79C322.237 126.79 322.447 127.023 322.307 127.49C322.167 127.91 321.817 128.307 321.257 128.68C320.137 129.427 319.11 129.8 318.177 129.8C317.29 129.8 316.474 129.427 315.727 128.68C314.98 127.887 314.514 127 314.327 126.02C314.14 125.04 314.234 123.803 314.607 122.31C314.794 120.257 314.887 118.763 314.887 117.83C314.934 116.85 314.7 116.36 314.187 116.36C313.72 116.36 312.904 116.687 311.737 117.34C310.57 117.947 309.264 118.787 307.817 119.86C306.37 120.933 304.947 122.123 303.547 123.43C302.147 124.737 300.98 126.09 300.047 127.49C299.487 128.19 298.95 128.82 298.437 129.38C297.924 129.893 297.41 130.173 296.897 130.22ZM333.568 134.21C331.514 134.21 329.834 133.44 328.528 131.9C327.221 130.313 326.591 128.353 326.638 126.02C326.731 124.34 327.058 122.543 327.618 120.63C328.224 118.67 329.018 116.803 329.998 115.03C330.978 113.21 332.051 111.623 333.218 110.27C334.384 108.917 335.598 107.96 336.858 107.4C337.324 107.167 337.814 106.98 338.328 106.84C338.888 106.7 339.448 106.63 340.008 106.63C340.521 106.63 341.058 106.723 341.618 106.91C342.178 107.05 342.644 107.213 343.018 107.4C343.811 107.727 344.418 108.123 344.838 108.59C345.258 109.057 345.631 109.78 345.958 110.76C346.098 111.647 346.168 112.277 346.168 112.65C346.168 113.023 346.051 113.583 345.818 114.33C345.258 116.01 344.534 117.457 343.648 118.67C342.761 119.883 341.571 120.91 340.078 121.75C339.704 121.983 339.261 122.17 338.748 122.31C338.281 122.403 337.791 122.45 337.278 122.45C336.344 122.45 335.434 122.287 334.548 121.96C333.708 121.587 333.031 121.05 332.518 120.35L332.028 119.79L331.818 120.35C331.351 121.61 330.978 122.777 330.698 123.85C330.464 124.923 330.348 125.903 330.348 126.79C330.348 127.35 330.394 127.887 330.488 128.4C330.628 128.913 330.814 129.357 331.048 129.73C331.234 130.01 331.538 130.22 331.958 130.36C332.424 130.453 332.914 130.5 333.428 130.5C333.754 130.5 334.081 130.5 334.408 130.5C334.781 130.453 335.131 130.36 335.458 130.22C336.251 129.94 336.881 129.637 337.348 129.31C337.861 128.983 338.374 128.633 338.888 128.26L339.168 128.12H339.098C339.658 127.84 340.148 127.56 340.568 127.28C341.034 127 341.268 126.86 341.268 126.86C341.454 126.86 341.641 126.743 341.828 126.51C342.201 126.323 342.668 126.393 343.228 126.72C343.834 127.047 344.138 127.467 344.138 127.98C344.091 128.213 343.881 128.587 343.508 129.1C343.134 129.567 342.714 130.01 342.248 130.43C341.828 130.85 341.478 131.083 341.198 131.13C341.151 131.177 340.988 131.27 340.708 131.41C340.428 131.503 340.241 131.597 340.148 131.69H340.218C339.798 132.25 339.378 132.53 338.958 132.53H338.398C338.211 132.857 337.604 133.23 336.578 133.65C335.551 134.023 334.548 134.21 333.568 134.21ZM336.718 118.81C337.558 118.81 338.281 118.577 338.888 118.11C339.541 117.597 340.101 117.037 340.568 116.43C341.501 115.17 342.038 113.957 342.178 112.79C342.364 111.577 342.224 110.737 341.758 110.27C341.478 110.13 341.221 110.06 340.988 110.06C340.801 110.013 340.404 110.083 339.798 110.27C339.378 110.363 338.794 110.713 338.048 111.32C337.301 111.927 336.554 112.603 335.808 113.35C335.108 114.097 334.571 114.727 334.198 115.24L333.288 116.71C333.661 116.57 334.011 116.5 334.338 116.5C334.711 116.453 334.921 116.477 334.968 116.57C334.968 116.99 335.038 117.387 335.178 117.76C335.364 118.087 335.574 118.343 335.808 118.53C336.088 118.717 336.391 118.81 336.718 118.81ZM353.881 131.83C353.741 131.877 353.508 131.853 353.181 131.76C352.855 131.667 352.528 131.55 352.201 131.41C351.875 131.27 351.665 131.153 351.571 131.06C351.385 130.873 351.198 130.593 351.011 130.22C350.871 129.847 350.871 129.31 351.011 128.61C351.151 127.863 351.618 126.907 352.411 125.74C352.645 125.273 352.925 124.573 353.251 123.64C353.578 122.707 353.905 121.727 354.231 120.7C354.605 119.627 354.931 118.67 355.211 117.83C355.538 116.99 355.771 116.407 355.911 116.08C356.005 115.287 355.958 114.727 355.771 114.4C355.631 114.027 355.235 113.817 354.581 113.77C354.115 113.77 353.741 113.723 353.461 113.63C353.228 113.537 353.111 113.07 353.111 112.23C353.205 111.577 353.368 111.133 353.601 110.9C353.881 110.62 354.255 110.317 354.721 109.99C355.188 109.757 355.655 109.593 356.121 109.5C356.635 109.407 357.125 109.383 357.591 109.43C358.058 109.477 358.431 109.64 358.711 109.92C359.038 110.107 359.248 110.527 359.341 111.18C359.435 111.787 359.481 112.417 359.481 113.07C359.528 113.723 359.575 114.213 359.621 114.54C360.088 114.167 360.718 113.653 361.511 113C362.351 112.3 363.075 111.647 363.681 111.04C364.428 110.527 365.315 110.013 366.341 109.5C367.368 108.94 368.115 108.66 368.581 108.66C369.095 108.66 369.608 108.8 370.121 109.08C370.635 109.313 370.985 109.617 371.171 109.99C371.638 110.783 371.848 111.483 371.801 112.09C371.801 112.697 371.545 113.327 371.031 113.98C370.565 114.587 369.981 115.007 369.281 115.24C368.628 115.473 368.208 115.59 368.021 115.59C367.741 115.59 367.391 115.38 366.971 114.96C366.551 114.54 366.318 114.19 366.271 113.91C366.271 113.77 365.968 113.91 365.361 114.33C364.801 114.703 364.171 115.193 363.471 115.8C362.771 116.36 362.188 116.873 361.721 117.34C360.928 118.32 360.088 119.65 359.201 121.33C358.315 123.01 357.265 125.04 356.051 127.42C355.491 128.587 355.095 129.59 354.861 130.43C354.628 131.223 354.301 131.69 353.881 131.83ZM379.176 131.69C378.616 131.783 378.009 131.69 377.356 131.41C376.703 131.13 376.119 130.733 375.606 130.22C375.139 129.707 374.836 129.17 374.696 128.61C374.509 127.63 374.626 126.417 375.046 124.97C375.513 123.477 376.166 121.913 377.006 120.28C377.893 118.6 378.873 116.99 379.946 115.45C381.066 113.91 382.209 112.58 383.376 111.46C384.589 110.293 385.709 109.5 386.736 109.08C387.249 108.753 387.646 108.543 387.926 108.45C388.253 108.31 388.579 108.287 388.906 108.38C389.279 108.473 389.816 108.707 390.516 109.08C391.169 109.267 391.659 109.477 391.986 109.71C392.313 109.943 392.733 110.41 393.246 111.11C393.619 111.81 393.899 112.51 394.086 113.21C394.273 113.91 394.436 114.703 394.576 115.59C394.949 116.757 395.089 117.527 394.996 117.9C394.903 118.227 394.763 118.483 394.576 118.67C394.203 119.137 394.109 119.37 394.296 119.37C394.296 119.37 394.273 119.463 394.226 119.65C394.226 119.79 394.133 120.023 393.946 120.35C393.619 121.377 393.363 122.45 393.176 123.57C393.036 124.643 393.059 125.53 393.246 126.23C393.619 127.257 394.296 127.863 395.276 128.05C396.256 128.237 397.259 127.817 398.286 126.79C398.799 126.417 399.289 126.09 399.756 125.81C400.223 125.483 400.456 125.507 400.456 125.88C400.456 125.88 400.526 125.95 400.666 126.09C400.806 126.183 400.969 126.23 401.156 126.23C401.389 126.23 401.529 126.323 401.576 126.51C401.669 126.697 401.669 126.953 401.576 127.28C401.529 127.56 401.389 127.887 401.156 128.26C400.456 128.96 400.106 129.427 400.106 129.66C400.106 129.66 400.013 129.753 399.826 129.94C399.686 130.08 399.429 130.313 399.056 130.64C398.216 131.153 397.143 131.41 395.836 131.41C394.576 131.41 393.596 131.153 392.896 130.64C392.196 130.127 391.543 129.427 390.936 128.54C390.376 127.653 390.003 126.883 389.816 126.23L389.466 125.53L387.436 126.86C386.923 127.373 386.363 127.863 385.756 128.33C385.196 128.797 384.823 129.123 384.636 129.31C384.496 129.497 384.333 129.66 384.146 129.8C384.006 129.94 383.843 130.01 383.656 130.01C383.469 130.01 383.306 130.01 383.166 130.01C383.026 130.01 382.956 130.01 382.956 130.01C382.956 130.197 382.723 130.43 382.256 130.71C381.836 130.99 381.323 131.223 380.716 131.41C380.156 131.597 379.643 131.69 379.176 131.69ZM378.476 127.91C378.756 127.91 379.246 127.7 379.946 127.28C380.693 126.813 381.509 126.277 382.396 125.67C383.329 125.063 384.146 124.457 384.846 123.85C385.593 123.243 386.106 122.777 386.386 122.45C386.573 122.263 386.876 121.96 387.296 121.54C387.716 121.073 388.089 120.677 388.416 120.35C389.489 119.137 390.236 117.807 390.656 116.36C391.076 114.867 391.029 113.7 390.516 112.86C390.329 112.347 390.096 112.067 389.816 112.02C389.536 111.973 388.953 112.137 388.066 112.51C387.506 112.837 386.806 113.467 385.966 114.4C385.173 115.287 384.309 116.337 383.376 117.55C382.489 118.717 381.649 119.93 380.856 121.19C380.063 122.45 379.409 123.617 378.896 124.69C378.383 125.763 378.126 126.603 378.126 127.21C378.126 127.397 378.173 127.56 378.266 127.7C378.406 127.84 378.476 127.91 378.476 127.91ZM400.467 149.61C400.14 149.47 399.79 149.237 399.417 148.91C399.044 148.583 398.74 148.21 398.507 147.79C398.274 147.417 398.157 147.09 398.157 146.81C398.157 146.53 398.274 145.783 398.507 144.57C398.74 143.403 399.044 141.957 399.417 140.23C399.837 138.55 400.28 136.823 400.747 135.05C401.26 133.323 401.774 131.783 402.287 130.43C402.38 130.197 402.684 129.427 403.197 128.12C403.757 126.767 404.294 125.133 404.807 123.22C405.18 122.007 405.67 120.63 406.277 119.09C406.884 117.55 407.514 116.01 408.167 114.47C408.82 112.883 409.357 111.483 409.777 110.27C410.197 109.057 410.547 108.077 410.827 107.33C411.154 106.537 411.34 106.047 411.387 105.86C411.48 105.58 411.62 105.347 411.807 105.16C412.04 104.927 412.274 104.74 412.507 104.6C412.74 104.413 412.927 104.297 413.067 104.25C413.907 104.017 414.63 104.367 415.237 105.3C415.47 105.72 415.517 106.21 415.377 106.77C415.237 107.33 414.98 108.03 414.607 108.87L414.117 110.27L416.637 109.71C417.057 109.71 417.57 109.733 418.177 109.78C418.83 109.78 419.46 109.78 420.067 109.78C420.674 109.78 421.117 109.827 421.397 109.92C422.517 109.967 423.287 110.177 423.707 110.55C424.174 110.923 424.57 111.413 424.897 112.02C425.13 112.253 425.41 112.58 425.737 113C426.064 113.373 426.25 113.747 426.297 114.12C426.484 114.913 426.484 115.777 426.297 116.71C426.157 117.597 425.877 118.483 425.457 119.37C425.084 120.257 424.57 121.073 423.917 121.82C423.31 122.52 422.657 123.103 421.957 123.57C421.49 123.757 421.07 123.967 420.697 124.2C420.324 124.387 420.137 124.48 420.137 124.48C420.09 124.713 419.577 125.087 418.597 125.6C417.617 126.067 416.497 126.51 415.237 126.93C413.977 127.35 412.88 127.63 411.947 127.77C411.62 127.817 411.154 127.863 410.547 127.91C409.94 127.957 409.474 127.887 409.147 127.7C408.634 127.607 408.284 127.56 408.097 127.56C407.91 127.56 407.817 127.653 407.817 127.84C407.77 127.933 407.444 128.913 406.837 130.78C406.23 132.647 405.6 134.817 404.947 137.29C404.06 139.997 403.337 142.143 402.777 143.73C402.217 145.363 401.774 146.577 401.447 147.37C401.167 148.163 400.957 148.7 400.817 148.98C400.677 149.307 400.56 149.517 400.467 149.61ZM409.217 123.78C409.357 124.06 409.8 124.153 410.547 124.06C411.34 123.92 412.274 123.64 413.347 123.22C414.467 122.753 415.564 122.24 416.637 121.68C417.71 121.073 418.597 120.467 419.297 119.86C420.324 118.693 421.164 117.62 421.817 116.64C422.47 115.613 422.564 114.937 422.097 114.61C421.584 113.863 420.627 113.513 419.227 113.56C417.827 113.607 416.1 114.19 414.047 115.31C413.254 115.59 412.647 115.963 412.227 116.43C411.854 116.85 411.527 117.387 411.247 118.04C410.967 118.693 410.617 119.487 410.197 120.42C409.777 121.447 409.497 122.217 409.357 122.73C409.217 123.243 409.17 123.593 409.217 123.78ZM428.532 147.93C427.412 148.257 426.175 148.303 424.822 148.07C423.515 147.883 422.372 147.487 421.392 146.88C420.365 146.273 419.782 145.597 419.642 144.85C419.595 144.57 419.689 144.267 419.922 143.94C420.109 143.613 420.365 143.38 420.692 143.24C420.972 143.147 421.229 143.24 421.462 143.52C421.835 143.753 422.512 144.033 423.492 144.36C424.472 144.733 425.569 144.803 426.782 144.57C427.855 144.337 428.905 143.707 429.932 142.68C431.005 141.653 431.869 140.697 432.522 139.81C432.895 139.25 433.525 138.247 434.412 136.8C435.299 135.353 436.209 133.767 437.142 132.04C438.122 130.267 438.939 128.633 439.592 127.14C439.732 126.767 439.895 126.323 440.082 125.81C440.269 125.297 440.502 124.877 440.782 124.55C441.062 123.99 441.295 123.477 441.482 123.01C441.715 122.497 441.855 122.147 441.902 121.96C441.949 121.727 442.159 121.26 442.532 120.56C442.905 119.86 443.255 119.16 443.582 118.46C443.815 117.76 444.165 116.733 444.632 115.38C445.099 114.027 445.565 112.93 446.032 112.09C446.592 111.017 447.035 110.153 447.362 109.5C447.735 108.8 448.132 108.38 448.552 108.24C448.972 107.913 449.252 107.75 449.392 107.75C449.579 107.75 449.929 107.89 450.442 108.17C451.002 108.73 451.352 109.29 451.492 109.85C451.632 110.363 451.562 111.017 451.282 111.81C451.049 112.557 450.582 113.583 449.882 114.89C449.509 116.01 449.089 117.037 448.622 117.97C448.202 118.857 447.875 119.44 447.642 119.72C447.409 120.28 447.129 120.91 446.802 121.61C446.522 122.263 446.265 122.87 446.032 123.43C445.192 125.297 444.469 126.813 443.862 127.98C443.255 129.147 442.719 130.22 442.252 131.2C441.785 132.18 441.295 133.323 440.782 134.63C439.709 136.357 438.659 137.99 437.632 139.53C436.652 141.117 435.602 142.587 434.482 143.94C434.015 144.36 433.432 144.85 432.732 145.41C432.032 145.97 431.309 146.483 430.562 146.95C429.862 147.417 429.185 147.743 428.532 147.93ZM437.982 131.13C437.282 131.037 436.582 130.617 435.882 129.87C435.229 129.123 434.715 128.33 434.342 127.49C433.969 126.65 433.829 126.043 433.922 125.67C433.922 125.437 433.922 125.25 433.922 125.11C433.922 124.97 433.922 124.9 433.922 124.9C433.642 124.9 433.385 124.55 433.152 123.85C432.965 123.15 432.825 122.24 432.732 121.12C432.639 120 432.569 118.81 432.522 117.55C432.522 116.29 432.569 115.1 432.662 113.98C432.849 113.187 432.942 112.323 432.942 111.39C432.942 110.41 432.965 109.64 433.012 109.08C432.965 108.333 433.035 107.843 433.222 107.61C433.409 107.33 433.595 107.12 433.782 106.98C435.089 106.42 435.952 106.77 436.372 108.03C436.839 109.243 436.955 111.53 436.722 114.89C436.629 116.757 436.629 118.623 436.722 120.49C436.815 122.357 437.072 123.99 437.492 125.39C437.959 126.79 438.589 127.747 439.382 128.26C439.709 128.447 439.872 128.703 439.872 129.03C439.872 129.357 439.779 129.707 439.592 130.08C439.405 130.407 439.149 130.687 438.822 130.92C438.542 131.107 438.262 131.177 437.982 131.13ZM142.943 234.67C142.15 235.043 141.24 235.183 140.213 235.09C139.233 235.043 138.253 234.763 137.273 234.25C136.293 233.783 135.43 233.153 134.683 232.36C134.356 231.987 134.146 231.613 134.053 231.24C133.96 230.913 134.006 230.447 134.193 229.84C134.426 229 134.73 228.58 135.103 228.58C135.616 228.58 136.2 229.023 136.853 229.91C138.16 231.077 139.443 231.403 140.703 230.89C142.01 230.377 143.386 229 144.833 226.76C145.113 226.06 145.556 225.057 146.163 223.75C146.77 222.443 147.4 221.043 148.053 219.55C148.753 218.057 149.383 216.68 149.943 215.42C150.503 214.113 150.876 213.18 151.063 212.62C151.063 212.62 151.063 212.55 151.063 212.41C151.11 212.223 151.226 212.037 151.413 211.85C151.46 211.663 151.576 211.29 151.763 210.73C151.95 210.17 152.136 209.517 152.323 208.77C152.51 208.257 152.766 207.487 153.093 206.46C153.466 205.433 153.84 204.36 154.213 203.24C154.633 202.12 154.983 201.187 155.263 200.44C155.496 199.46 155.776 198.41 156.103 197.29C156.476 196.123 156.78 195.237 157.013 194.63C157.2 194.257 157.48 193.51 157.853 192.39C158.226 191.223 158.646 189.963 159.113 188.61C159.673 186.79 160.21 185.11 160.723 183.57C161.236 181.983 161.633 180.7 161.913 179.72C162.24 178.693 162.356 178.11 162.263 177.97C162.263 177.97 161.843 178.04 161.003 178.18C160.21 178.32 159.323 178.483 158.343 178.67C157.55 178.997 156.756 179.113 155.963 179.02C155.216 178.88 154.866 178.717 154.913 178.53C154.913 178.343 154.913 178.25 154.913 178.25C154.913 178.203 154.913 178.18 154.913 178.18C154.773 178.273 154.586 178.25 154.353 178.11C154.12 177.923 153.91 177.69 153.723 177.41C153.536 177.083 153.443 176.803 153.443 176.57C153.443 176.197 153.91 175.87 154.843 175.59C155.776 175.263 156.966 175.007 158.413 174.82C159.346 174.68 160.256 174.563 161.143 174.47C162.076 174.33 162.846 174.213 163.453 174.12C163.64 173.98 163.966 173.98 164.433 174.12C164.946 174.26 165.46 174.447 165.973 174.68C166.533 174.913 166.93 175.17 167.163 175.45C167.443 175.823 167.606 176.22 167.653 176.64C167.746 177.06 167.7 177.643 167.513 178.39C167.326 179.137 166.976 180.21 166.463 181.61C165.996 182.963 165.32 184.83 164.433 187.21C163.406 190.103 162.496 192.74 161.703 195.12C160.91 197.453 160.186 199.39 159.533 200.93C159.393 201.443 159.136 202.19 158.763 203.17C158.436 204.15 158.11 205.153 157.783 206.18C157.456 207.16 157.2 207.977 157.013 208.63C156.64 209.517 156.29 210.473 155.963 211.5C155.636 212.527 155.38 213.343 155.193 213.95C155.193 214.323 155.1 214.743 154.913 215.21C154.726 215.677 154.516 216.027 154.283 216.26C154.283 216.26 154.12 216.68 153.793 217.52C153.466 218.313 153.07 219.27 152.603 220.39C152.23 221.323 151.81 222.35 151.343 223.47C150.923 224.637 150.526 225.523 150.153 226.13C149.92 226.69 149.64 227.203 149.313 227.67C148.986 228.183 148.823 228.533 148.823 228.72C148.823 228.72 148.8 228.79 148.753 228.93C148.753 229.07 148.66 229.14 148.473 229.14C148.473 229.14 148.403 229.187 148.263 229.28C148.123 229.42 148.053 229.607 148.053 229.84C147.96 230.12 147.703 230.493 147.283 230.96C146.91 231.427 146.443 231.917 145.883 232.43C145.37 232.943 144.833 233.387 144.273 233.76C143.76 234.18 143.316 234.483 142.943 234.67ZM169.256 220.95C168.649 220.95 168.159 220.833 167.786 220.6C167.459 220.367 167.039 220.04 166.526 219.62C165.639 218.687 165.009 217.8 164.636 216.96C164.262 216.073 164.146 215.233 164.286 214.44C164.426 214.067 164.472 213.717 164.426 213.39C164.426 213.017 164.426 212.83 164.426 212.83C164.192 212.597 164.122 212.457 164.216 212.41C164.309 212.317 164.402 212.177 164.496 211.99C164.776 211.99 164.869 211.733 164.776 211.22C164.682 210.847 164.869 210.03 165.336 208.77C165.802 207.51 166.386 206.32 167.086 205.2C167.366 204.733 167.786 204.127 168.346 203.38C168.906 202.587 169.512 201.817 170.166 201.07C170.866 200.277 171.496 199.647 172.056 199.18C173.222 198.2 174.249 197.477 175.136 197.01C176.022 196.543 176.979 196.193 178.006 195.96C179.032 195.727 179.732 195.61 180.106 195.61C180.526 195.61 181.086 195.983 181.786 196.73C182.859 197.197 183.629 197.757 184.096 198.41C184.609 199.063 184.936 200.02 185.076 201.28C185.216 202.68 185.099 204.29 184.726 206.11C184.399 207.883 183.302 210.1 181.436 212.76C180.269 214.44 179.196 215.7 178.216 216.54C177.236 217.333 176.069 218.127 174.716 218.92C173.736 219.573 172.849 220.063 172.056 220.39C171.262 220.67 170.329 220.857 169.256 220.95ZM175.976 213.53C177.096 212.27 177.982 211.08 178.636 209.96C179.336 208.84 179.989 207.417 180.596 205.69C180.782 205.177 180.899 204.547 180.946 203.8C180.992 203.007 180.969 202.283 180.876 201.63C180.829 200.93 180.666 200.533 180.386 200.44C179.826 200.113 179.149 200.02 178.356 200.16C177.562 200.253 176.699 200.697 175.766 201.49C174.319 202.703 173.059 204.22 171.986 206.04C170.912 207.813 169.862 209.843 168.836 212.13C168.136 213.81 167.972 215.163 168.346 216.19C168.766 217.17 169.629 217.52 170.936 217.24C172.289 216.913 173.969 215.677 175.976 213.53ZM205.554 221.86C205.227 222.047 204.784 221.977 204.224 221.65C203.71 221.323 203.197 220.833 202.684 220.18C202.357 219.62 202.124 219.013 201.984 218.36C201.89 217.707 201.844 216.797 201.844 215.63C201.89 214.697 201.844 214.09 201.704 213.81C201.61 213.53 201.354 213.577 200.934 213.95C200.514 214.277 199.79 214.953 198.764 215.98C197.597 217.147 196.477 218.057 195.404 218.71C194.377 219.363 193.537 219.667 192.884 219.62C192.557 219.62 192.184 219.457 191.764 219.13C191.39 218.757 191.04 218.313 190.714 217.8C190.387 217.24 190.107 216.68 189.874 216.12C189.594 215.093 189.547 213.787 189.734 212.2C189.967 210.567 190.34 208.863 190.854 207.09C191.367 205.317 191.95 203.637 192.604 202.05C193.304 200.463 194.004 199.18 194.704 198.2C195.45 197.22 196.104 196.73 196.664 196.73C197.037 196.73 197.364 196.917 197.644 197.29C197.97 197.663 198.297 198.247 198.624 199.04C198.81 199.367 198.88 199.647 198.834 199.88C198.834 200.113 198.647 200.393 198.274 200.72C197.854 201.28 197.364 202.12 196.804 203.24C196.29 204.36 195.777 205.573 195.264 206.88C194.797 208.187 194.377 209.447 194.004 210.66C193.63 211.873 193.374 212.877 193.234 213.67C193.094 214.417 193.117 214.79 193.304 214.79C193.957 214.79 194.727 214.533 195.614 214.02C196.547 213.46 197.434 212.783 198.274 211.99C199.254 211.01 200.117 209.937 200.864 208.77C201.657 207.603 202.45 206.367 203.244 205.06C203.85 204.127 204.48 203.1 205.134 201.98C205.834 200.86 206.277 200.067 206.464 199.6C207.117 198.387 207.607 197.57 207.934 197.15C208.26 196.683 208.657 196.38 209.124 196.24C209.357 196.24 209.567 196.24 209.754 196.24C209.987 196.24 210.104 196.24 210.104 196.24C210.384 196.287 210.71 196.497 211.084 196.87C211.457 197.057 211.667 197.243 211.714 197.43C211.76 197.57 211.784 197.757 211.784 197.99C211.597 198.457 211.294 199.157 210.874 200.09C210.5 200.977 210.22 201.63 210.034 202.05C209.147 204.057 208.26 206.04 207.374 208C206.534 209.913 205.927 211.873 205.554 213.88C205.46 214.533 205.437 215.303 205.484 216.19C205.577 217.03 205.717 217.637 205.904 218.01C206.044 218.29 206.207 218.617 206.394 218.99C206.627 219.317 206.884 219.597 207.164 219.83C207.584 220.11 207.654 220.413 207.374 220.74C207.14 221.067 206.814 221.347 206.394 221.58C205.974 221.767 205.694 221.86 205.554 221.86ZM216.342 219.55C215.922 219.223 215.618 218.897 215.432 218.57C215.292 218.243 215.292 217.613 215.432 216.68C215.572 215.373 215.758 214.23 215.992 213.25C216.225 212.223 216.505 211.057 216.832 209.75C216.925 209.19 217.182 208.233 217.602 206.88C218.068 205.527 218.628 204.057 219.282 202.47C219.935 200.883 220.588 199.39 221.242 197.99C221.895 196.543 222.455 195.47 222.922 194.77C223.295 194.49 223.738 194.373 224.252 194.42C224.812 194.467 225.278 194.677 225.652 195.05C226.165 195.47 226.235 196.217 225.862 197.29C225.535 198.317 224.835 199.95 223.762 202.19C223.202 203.45 222.782 204.407 222.502 205.06C222.222 205.667 222.105 206.04 222.152 206.18C222.198 206.273 222.408 206.203 222.782 205.97C223.062 205.457 223.575 204.873 224.322 204.22C225.068 203.52 225.862 202.843 226.702 202.19C227.542 201.537 228.335 200.953 229.082 200.44C229.828 199.927 230.342 199.6 230.622 199.46C230.995 199.227 231.415 199.04 231.882 198.9C232.395 198.713 232.745 198.573 232.932 198.48C234.005 197.967 235.102 197.78 236.222 197.92C237.342 198.06 238.042 198.48 238.322 199.18C238.368 199.553 238.508 199.833 238.742 200.02C239.022 200.207 239.162 200.3 239.162 200.3C239.348 200.3 239.442 200.37 239.442 200.51C239.488 200.65 239.512 200.72 239.512 200.72C239.512 201.047 239.255 201.257 238.742 201.35C238.275 201.397 237.668 201.443 236.922 201.49C236.315 201.537 235.778 201.653 235.312 201.84C234.845 202.027 234.285 202.26 233.632 202.54C231.858 203.567 230.155 204.57 228.522 205.55C226.935 206.53 225.395 207.837 223.902 209.47C223.575 209.843 223.248 210.287 222.922 210.8C222.595 211.313 222.245 211.873 221.872 212.48C221.638 212.713 221.405 213.227 221.172 214.02C220.938 214.813 220.728 215.583 220.542 216.33C220.402 217.03 220.332 217.45 220.332 217.59C220.332 217.59 220.262 217.823 220.122 218.29C219.982 218.71 219.748 219.13 219.422 219.55C218.862 220.297 218.395 220.67 218.022 220.67C217.648 220.67 217.088 220.297 216.342 219.55ZM261.936 221.16C261.47 221.16 260.98 220.903 260.466 220.39C260 219.877 259.58 219.247 259.206 218.5C258.88 217.707 258.716 216.96 258.716 216.26C258.716 215.56 258.88 214.253 259.206 212.34C259.58 210.427 260.023 208.49 260.536 206.53C260.91 205.317 261.026 204.617 260.886 204.43C260.746 204.243 260.116 204.5 258.996 205.2C258.343 205.527 257.76 205.877 257.246 206.25C256.733 206.577 256.29 206.95 255.916 207.37C255.683 207.557 255.333 207.86 254.866 208.28C254.4 208.7 253.91 209.097 253.396 209.47C252.79 209.937 252.02 210.59 251.086 211.43C250.153 212.27 249.22 213.11 248.286 213.95C247.4 214.79 246.723 215.443 246.256 215.91C246.163 216.097 246.023 216.26 245.836 216.4C245.65 216.54 245.44 216.633 245.206 216.68C244.973 216.68 244.716 216.633 244.436 216.54C243.923 216.4 243.433 216.097 242.966 215.63C242.546 215.163 242.336 214.627 242.336 214.02C242.336 213.553 242.523 212.76 242.896 211.64C243.27 210.473 243.76 209.073 244.366 207.44C245.02 205.807 245.766 204.08 246.606 202.26C246.746 202.027 246.863 201.747 246.956 201.42C247.05 201.047 247.12 200.65 247.166 200.23C247.26 199.81 247.306 199.413 247.306 199.04C247.306 198.807 247.33 198.573 247.376 198.34C247.47 198.06 247.563 197.803 247.656 197.57C247.796 197.29 247.913 197.103 248.006 197.01C248.193 196.637 248.52 196.543 248.986 196.73C249.453 196.87 249.85 197.197 250.176 197.71C250.876 198.363 251.226 199.18 251.226 200.16C251.273 201.14 251.04 202.353 250.526 203.8C250.34 204.127 250.176 204.453 250.036 204.78C249.943 205.06 249.85 205.317 249.756 205.55C249.663 205.737 249.593 205.9 249.546 206.04C249.5 206.133 249.476 206.18 249.476 206.18C249.663 206.18 250.083 205.97 250.736 205.55C251.39 205.13 252.16 204.663 253.046 204.15C253.746 203.637 254.353 203.17 254.866 202.75C255.426 202.283 255.893 201.933 256.266 201.7C256.64 201.42 256.873 201.28 256.966 201.28C257.153 201.28 257.386 201.21 257.666 201.07C257.946 200.93 258.18 200.767 258.366 200.58C258.553 200.393 258.693 200.3 258.786 200.3C258.926 200.253 258.996 200.23 258.996 200.23C258.996 200.23 259.09 200.23 259.276 200.23C259.463 200.183 259.65 200.067 259.836 199.88C260.21 199.6 260.7 199.53 261.306 199.67C261.913 199.763 262.473 199.997 262.986 200.37C263.5 200.743 263.756 201.163 263.756 201.63C263.756 201.817 263.803 201.98 263.896 202.12C264.036 202.213 264.106 202.26 264.106 202.26C264.48 202.26 264.713 202.843 264.806 204.01C264.946 205.177 264.83 206.297 264.456 207.37C264.456 208.07 264.316 208.91 264.036 209.89C263.803 210.87 263.593 211.803 263.406 212.69C263.033 213.857 262.776 214.883 262.636 215.77C262.496 216.657 262.473 217.403 262.566 218.01C262.66 218.617 262.823 219.107 263.056 219.48C263.243 219.807 263.243 220.18 263.056 220.6C262.87 220.973 262.496 221.16 261.936 221.16ZM276.09 219.69C275.53 219.783 274.923 219.69 274.27 219.41C273.617 219.13 273.033 218.733 272.52 218.22C272.053 217.707 271.75 217.17 271.61 216.61C271.423 215.63 271.54 214.417 271.96 212.97C272.427 211.477 273.08 209.913 273.92 208.28C274.807 206.6 275.787 204.99 276.86 203.45C277.98 201.91 279.123 200.58 280.29 199.46C281.503 198.293 282.623 197.5 283.65 197.08C284.163 196.753 284.56 196.543 284.84 196.45C285.167 196.31 285.493 196.287 285.82 196.38C286.193 196.473 286.73 196.707 287.43 197.08C288.083 197.267 288.573 197.477 288.9 197.71C289.227 197.943 289.647 198.41 290.16 199.11C290.533 199.81 290.813 200.51 291 201.21C291.187 201.91 291.35 202.703 291.49 203.59C291.863 204.757 292.003 205.527 291.91 205.9C291.817 206.227 291.677 206.483 291.49 206.67C291.117 207.137 291.023 207.37 291.21 207.37C291.21 207.37 291.187 207.463 291.14 207.65C291.14 207.79 291.047 208.023 290.86 208.35C290.533 209.377 290.277 210.45 290.09 211.57C289.95 212.643 289.973 213.53 290.16 214.23C290.533 215.257 291.21 215.863 292.19 216.05C293.17 216.237 294.173 215.817 295.2 214.79C295.713 214.417 296.203 214.09 296.67 213.81C297.137 213.483 297.37 213.507 297.37 213.88C297.37 213.88 297.44 213.95 297.58 214.09C297.72 214.183 297.883 214.23 298.07 214.23C298.303 214.23 298.443 214.323 298.49 214.51C298.583 214.697 298.583 214.953 298.49 215.28C298.443 215.56 298.303 215.887 298.07 216.26C297.37 216.96 297.02 217.427 297.02 217.66C297.02 217.66 296.927 217.753 296.74 217.94C296.6 218.08 296.343 218.313 295.97 218.64C295.13 219.153 294.057 219.41 292.75 219.41C291.49 219.41 290.51 219.153 289.81 218.64C289.11 218.127 288.457 217.427 287.85 216.54C287.29 215.653 286.917 214.883 286.73 214.23L286.38 213.53L284.35 214.86C283.837 215.373 283.277 215.863 282.67 216.33C282.11 216.797 281.737 217.123 281.55 217.31C281.41 217.497 281.247 217.66 281.06 217.8C280.92 217.94 280.757 218.01 280.57 218.01C280.383 218.01 280.22 218.01 280.08 218.01C279.94 218.01 279.87 218.01 279.87 218.01C279.87 218.197 279.637 218.43 279.17 218.71C278.75 218.99 278.237 219.223 277.63 219.41C277.07 219.597 276.557 219.69 276.09 219.69ZM275.39 215.91C275.67 215.91 276.16 215.7 276.86 215.28C277.607 214.813 278.423 214.277 279.31 213.67C280.243 213.063 281.06 212.457 281.76 211.85C282.507 211.243 283.02 210.777 283.3 210.45C283.487 210.263 283.79 209.96 284.21 209.54C284.63 209.073 285.003 208.677 285.33 208.35C286.403 207.137 287.15 205.807 287.57 204.36C287.99 202.867 287.943 201.7 287.43 200.86C287.243 200.347 287.01 200.067 286.73 200.02C286.45 199.973 285.867 200.137 284.98 200.51C284.42 200.837 283.72 201.467 282.88 202.4C282.087 203.287 281.223 204.337 280.29 205.55C279.403 206.717 278.563 207.93 277.77 209.19C276.977 210.45 276.323 211.617 275.81 212.69C275.297 213.763 275.04 214.603 275.04 215.21C275.04 215.397 275.087 215.56 275.18 215.7C275.32 215.84 275.39 215.91 275.39 215.91ZM300.531 222.63C299.924 222.397 299.481 222.047 299.201 221.58C298.921 221.067 298.758 220.343 298.711 219.41C298.711 218.85 298.804 218.103 298.991 217.17C299.178 216.237 299.388 215.163 299.621 213.95C299.621 213.857 299.621 213.763 299.621 213.67C299.668 213.53 299.691 213.437 299.691 213.39C299.738 213.203 299.784 212.923 299.831 212.55C299.924 212.177 299.994 211.897 300.041 211.71C300.088 211.477 300.111 211.477 300.111 211.71L300.601 209.82C300.834 208.98 301.068 208.14 301.301 207.3C301.534 206.46 301.744 205.737 301.931 205.13C302.118 204.477 302.234 204.103 302.281 204.01C302.281 204.01 302.374 203.753 302.561 203.24C302.748 202.68 302.934 202.143 303.121 201.63C303.914 199.437 304.638 197.593 305.291 196.1C305.944 194.56 306.528 193.44 307.041 192.74C307.088 192.6 307.158 192.437 307.251 192.25C307.344 192.017 307.414 191.83 307.461 191.69C307.508 191.317 307.554 191.037 307.601 190.85C307.694 190.617 307.811 190.407 307.951 190.22C308.044 190.033 308.184 189.8 308.371 189.52C308.558 189.193 308.768 188.797 309.001 188.33L309.281 187.56C309.561 186.953 309.911 186.277 310.331 185.53C310.751 184.783 311.054 184.247 311.241 183.92C311.428 183.5 311.708 183.01 312.081 182.45C312.454 181.843 312.734 181.447 312.921 181.26L312.851 181.19C313.084 180.77 313.364 180.537 313.691 180.49C314.064 180.397 314.461 180.35 314.881 180.35C315.534 180.35 315.908 180.443 316.001 180.63C316.094 180.817 316.141 181.237 316.141 181.89C316.141 182.59 316.118 183.103 316.071 183.43C316.071 183.71 315.884 184.037 315.511 184.41H315.581C315.674 184.317 315.651 184.433 315.511 184.76C315.371 185.04 315.254 185.25 315.161 185.39C315.068 185.623 314.951 185.88 314.811 186.16C314.718 186.44 314.601 186.65 314.461 186.79C314.321 186.977 313.971 187.607 313.411 188.68C312.898 189.707 312.291 190.92 311.591 192.32C310.938 193.72 310.308 195.073 309.701 196.38C309.094 197.687 308.651 198.69 308.371 199.39L308.021 200.44C307.928 200.627 307.881 200.767 307.881 200.86C307.741 201.187 307.601 201.513 307.461 201.84C307.321 202.167 307.181 202.447 307.041 202.68L305.851 206.74L305.501 208.21L304.871 209.75L304.451 211.08C304.358 211.36 304.288 211.617 304.241 211.85C304.194 212.083 304.101 212.27 303.961 212.41C303.961 212.457 303.938 212.527 303.891 212.62C303.891 212.667 303.891 212.713 303.891 212.76C303.704 213.507 303.494 214.557 303.261 215.91C303.028 217.263 302.864 218.687 302.771 220.18C302.771 220.227 302.748 220.273 302.701 220.32C302.701 220.367 302.701 220.413 302.701 220.46C302.561 221.44 302.328 222.093 302.001 222.42C301.674 222.747 301.184 222.817 300.531 222.63Z" fill="url(#paint0_linear_2_10)"/>
<defs>
<linearGradient id="paint0_linear_2_10" x1="221" y1="-21" x2="221" y2="205.283" gradientUnits="userSpaceOnUse">
<stop stop-color="#FF0000"/>
<stop offset="0.495" stop-color="#001AFF"/>
<stop offset="1" stop-color="#24FF00"/>
</linearGradient>
</defs>
</svg>
